<svg preserveAspectRatio="none" width="100%" height="100%" overflow="visible" style="display: block;" viewBox="0 0 22 34" fill="none" xmlns="http://www.w3.org/2000/svg">
<g id="Shape" filter="url(#filter0_d_1277_20611)">
<path d="M7.9996 10.4958H4.00381C3.1129 10.4958 2.66674 9.41865 3.2967 8.78868L10.2925 1.79289C10.683 1.40237 11.3162 1.40237 11.7067 1.79289L18.7025 8.78868C19.3325 9.41864 18.8863 10.4958 17.9954 10.4958H13.9996V20.4958H17.9972C18.8878 20.4958 19.3341 21.5724 18.7047 22.2025L11.7071 29.2075C11.3165 29.5986 10.6827 29.5986 10.2921 29.2075L3.29452 22.2025C2.66507 21.5724 3.11135 20.4958 4.002 20.4958H7.9996V10.4958Z" fill="var(--fill-0, #12131A)"/>
</g>
<defs>
<filter id="filter0_d_1277_20611" x="3.61151e-09" y="-3.72533e-09" width="21.9992" height="34.0008" filterUnits="userSpaceOnUse" color-interpolation-filters="sRGB">
<feFlood flood-opacity="0" result="BackgroundImageFix"/>
<feColorMatrix in="SourceAlpha" type="matrix" values="0 0 0 0 0 0 0 0 0 0 0 0 0 0 0 0 0 0 127 0" result="hardAlpha"/>
<feOffset dy="1.5"/>
<feGaussianBlur stdDeviation="1.5"/>
<feComposite in2="hardAlpha" operator="out"/>
<feColorMatrix type="matrix" values="0 0 0 0 0.0705882 0 0 0 0 0.0745098 0 0 0 0 0.101961 0 0 0 0.25 0"/>
<feBlend mode="normal" in2="BackgroundImageFix" result="effect1_dropShadow_1277_20611"/>
<feBlend mode="normal" in="SourceGraphic" in2="effect1_dropShadow_1277_20611" result="shape"/>
</filter>
</defs>
</svg>
