<svg preserveAspectRatio="none" width="100%" height="100%" overflow="visible" style="display: block;" viewBox="0 0 22 34" fill="none" xmlns="http://www.w3.org/2000/svg">
<g id="Shape" filter="url(#filter0_d_1277_20563)">
<path d="M15 1.5H7C4.79086 1.5 3 3.29086 3 5.5V10.2574C3 11.053 3.31607 11.8161 3.87868 12.3787L6.29289 14.7929C6.68342 15.1834 6.68342 15.8166 6.29289 16.2071L3.87868 18.6213C3.31607 19.1839 3 19.947 3 20.7426V25.5C3 27.7091 4.79086 29.5 7 29.5H15C17.2091 29.5 19 27.7091 19 25.5V20.7426C19 19.947 18.6839 19.1839 18.1213 18.6213L15.7071 16.2071C15.3166 15.8166 15.3166 15.1834 15.7071 14.7929L18.1213 12.3787C18.6839 11.8161 19 11.053 19 10.2574V5.5C19 3.29086 17.2091 1.5 15 1.5Z" fill="var(--fill-0, white)"/>
</g>
<defs>
<filter id="filter0_d_1277_20563" x="0" y="0" width="22" height="34" filterUnits="userSpaceOnUse" color-interpolation-filters="sRGB">
<feFlood flood-opacity="0" result="BackgroundImageFix"/>
<feColorMatrix in="SourceAlpha" type="matrix" values="0 0 0 0 0 0 0 0 0 0 0 0 0 0 0 0 0 0 127 0" result="hardAlpha"/>
<feOffset dy="1.5"/>
<feGaussianBlur stdDeviation="1.5"/>
<feComposite in2="hardAlpha" operator="out"/>
<feColorMatrix type="matrix" values="0 0 0 0 0.0705882 0 0 0 0 0.0745098 0 0 0 0 0.101961 0 0 0 0.25 0"/>
<feBlend mode="normal" in2="BackgroundImageFix" result="effect1_dropShadow_1277_20563"/>
<feBlend mode="normal" in="SourceGraphic" in2="effect1_dropShadow_1277_20563" result="shape"/>
</filter>
</defs>
</svg>
