<svg preserveAspectRatio="none" width="100%" height="100%" overflow="visible" style="display: block;" viewBox="0 0 34 34" fill="none" xmlns="http://www.w3.org/2000/svg">
<g id="Shape" filter="url(#filter0_d_1277_20649)">
<path fill-rule="evenodd" clip-rule="evenodd" d="M31 15.5C31 23.232 24.732 29.5 17 29.5C9.26801 29.5 3 23.232 3 15.5C3 7.76801 9.26801 1.5 17 1.5C24.732 1.5 31 7.76801 31 15.5ZM20.1243 22.8669C19.1645 23.2745 18.1086 23.5 17 23.5C12.5817 23.5 9 19.9183 9 15.5C9 14.3914 9.22548 13.3355 9.63307 12.3757L20.1243 22.8669ZM24.3669 18.6243L13.8757 8.13305C14.8356 7.72547 15.8915 7.5 17 7.5C21.4183 7.5 25 11.0817 25 15.5C25 16.6085 24.7745 17.6644 24.3669 18.6243Z" fill="var(--fill-0, #12131A)"/>
</g>
<defs>
<filter id="filter0_d_1277_20649" x="0" y="0" width="34" height="34" filterUnits="userSpaceOnUse" color-interpolation-filters="sRGB">
<feFlood flood-opacity="0" result="BackgroundImageFix"/>
<feColorMatrix in="SourceAlpha" type="matrix" values="0 0 0 0 0 0 0 0 0 0 0 0 0 0 0 0 0 0 127 0" result="hardAlpha"/>
<feOffset dy="1.5"/>
<feGaussianBlur stdDeviation="1.5"/>
<feComposite in2="hardAlpha" operator="out"/>
<feColorMatrix type="matrix" values="0 0 0 0 0.0705882 0 0 0 0 0.0745098 0 0 0 0 0.101961 0 0 0 0.25 0"/>
<feBlend mode="normal" in2="BackgroundImageFix" result="effect1_dropShadow_1277_20649"/>
<feBlend mode="normal" in="SourceGraphic" in2="effect1_dropShadow_1277_20649" result="shape"/>
</filter>
</defs>
</svg>
