<svg preserveAspectRatio="none" width="100%" height="100%" overflow="visible" style="display: block;" viewBox="0 0 16 16" fill="none" xmlns="http://www.w3.org/2000/svg">
<path id="Shape" fill-rule="evenodd" clip-rule="evenodd" d="M11.2869 5.88308L3.41421 13.7558C3.09069 14.0793 2.56616 14.0793 2.24264 13.7558C1.91912 13.4323 1.91912 12.9077 2.24264 12.5842L10.1154 4.7115L7.40961 2H13.9984V8.58882L11.2869 5.88308ZM11.2884 8.71L4.82843 15.17C3.72386 16.2746 1.933 16.2746 0.828426 15.17C-0.276144 14.0654 -0.276141 12.2746 0.828429 11.17L7.28843 4.71L4.29116 1.70636C3.66223 1.07608 4.10862 0 4.99902 0H14.9984C15.5507 0 15.9984 0.447715 15.9984 1V10.9994C15.9984 11.8898 14.9223 12.3362 14.2921 11.7073L11.2884 8.71Z" fill="var(--fill-0, white)"/>
</svg>
