<svg preserveAspectRatio="none" width="100%" height="100%" overflow="visible" style="display: block;" viewBox="0 0 8 8" fill="none" xmlns="http://www.w3.org/2000/svg">
<path id="Ellipse 45" d="M3.75 0.75L4.27297 1.79594C4.44997 2.14993 4.53846 2.32692 4.65669 2.4803C4.76159 2.6164 4.88361 2.73841 5.0197 2.84331C5.17308 2.96154 5.35007 3.05003 5.70406 3.22703L6.75 3.75L5.70406 4.27297C5.35007 4.44996 5.17308 4.53846 5.0197 4.65669C4.88361 4.76159 4.76159 4.88361 4.65669 5.0197C4.53846 5.17308 4.44997 5.35007 4.27297 5.70406L3.75 6.75L3.22703 5.70406C3.05004 5.35007 2.96154 5.17308 2.84331 5.0197C2.73841 4.8836 2.6164 4.76159 2.4803 4.65669C2.32692 4.53846 2.14993 4.44997 1.79594 4.27297L0.75 3.75L1.79594 3.22703C2.14993 3.05003 2.32692 2.96154 2.4803 2.84331C2.6164 2.73841 2.73841 2.6164 2.84331 2.4803C2.96154 2.32692 3.05004 2.14993 3.22703 1.79594L3.75 0.75Z" stroke="var(--stroke-0, #FAFAFA)" stroke-width="1.5" stroke-linecap="round" stroke-linejoin="round"/>
</svg>
