<svg preserveAspectRatio="none" width="100%" height="100%" overflow="visible" style="display: block;" viewBox="0 0 48 48" fill="none" xmlns="http://www.w3.org/2000/svg">
<path id="BG" d="M24 47C20.9796 47 17.9888 46.4051 15.1983 45.2492C12.4078 44.0934 9.87229 42.3992 7.73654 40.2635C5.6008 38.1277 3.90663 35.5922 2.75077 32.8017C1.59491 30.0112 1 27.0204 1 24C1 20.9796 1.59491 17.9888 2.75077 15.1983C3.90663 12.4078 5.6008 9.87229 7.73655 7.73654C9.8723 5.60079 12.4078 3.90663 15.1983 2.75077C17.9888 1.59491 20.9796 0.999999 24 1C27.0204 1 30.0112 1.59491 32.8017 2.75077C35.5922 3.90663 38.1277 5.6008 40.2635 7.73655C42.3992 9.8723 44.0934 12.4078 45.2492 15.1983C46.4051 17.9888 47 20.9796 47 24C47 27.0204 46.4051 30.0112 45.2492 32.8017C44.0934 35.5922 42.3992 38.1277 40.2635 40.2635C38.1277 42.3992 35.5922 44.0934 32.8017 45.2492C30.0112 46.4051 27.0204 47 24 47L24 47Z" stroke="var(--stroke-0, #FAFAFA)" stroke-opacity="0.3" stroke-width="2" stroke-linecap="round"/>
</svg>
