<svg preserveAspectRatio="none" width="100%" height="100%" overflow="visible" style="display: block;" viewBox="0 0 17 19" fill="none" xmlns="http://www.w3.org/2000/svg">
<g id="Icon">
<path d="M6.04177 15.2259L6.5288 16.3213C6.67359 16.6474 6.90987 16.9244 7.20899 17.1188C7.50812 17.3133 7.85723 17.4167 8.21399 17.4167C8.57075 17.4167 8.91986 17.3133 9.21899 17.1188C9.51811 16.9244 9.75439 16.6474 9.89917 16.3213L10.3862 15.2259C10.5596 14.8373 10.8512 14.5132 11.2195 14.3C11.5902 14.0862 12.019 13.9951 12.4445 14.0398L13.6362 14.1667C13.9909 14.2042 14.3489 14.138 14.6668 13.9761C14.9846 13.8142 15.2487 13.5636 15.427 13.2546C15.6054 12.9458 15.6905 12.5919 15.6717 12.2357C15.653 11.8796 15.5313 11.5365 15.3214 11.2481L14.6158 10.2787C14.3646 9.93094 14.2304 9.51235 14.2325 9.08333C14.2324 8.65549 14.3679 8.23863 14.6195 7.89259L15.3251 6.92315C15.535 6.6348 15.6567 6.29173 15.6754 5.93556C15.6942 5.5794 15.6091 5.22545 15.4307 4.91667C15.2524 4.6077 14.9883 4.35707 14.6705 4.19519C14.3526 4.0333 13.9946 3.96711 13.6399 4.00463L12.4482 4.13148C12.0227 4.17617 11.5939 4.0851 11.2232 3.8713C10.8542 3.65688 10.5625 3.33113 10.3899 2.94074L9.89917 1.84537C9.75439 1.51931 9.51811 1.24226 9.21899 1.04783C8.91986 0.853402 8.57075 0.749942 8.21399 0.75C7.85723 0.749942 7.50812 0.853402 7.20899 1.04783C6.90987 1.24226 6.67359 1.51931 6.5288 1.84537L6.04177 2.94074C5.86921 3.33113 5.57749 3.65688 5.20843 3.8713C4.83778 4.0851 4.40899 4.17617 3.98343 4.13148L2.78806 4.00463C2.43334 3.96711 2.07535 4.0333 1.75749 4.19519C1.43964 4.35707 1.17558 4.6077 0.997322 4.91667C0.81884 5.22545 0.733808 5.5794 0.752545 5.93556C0.771282 6.29173 0.892982 6.6348 1.10288 6.92315L1.80843 7.89259C2.06005 8.23863 2.19555 8.65549 2.19547 9.08333C2.19555 9.51118 2.06005 9.92804 1.80843 10.2741L1.10288 11.2435C0.892982 11.5319 0.771282 11.8749 0.752545 12.2311C0.733808 12.5873 0.81884 12.9412 0.997322 13.25C1.17575 13.5588 1.43985 13.8093 1.75765 13.9712C2.07546 14.133 2.43336 14.1993 2.78806 14.162L3.97973 14.0352C4.40529 13.9905 4.83408 14.0816 5.20473 14.2954C5.57517 14.5092 5.86824 14.835 6.04177 15.2259Z" stroke="var(--stroke-0, #FAFAFA)" stroke-width="1.5" stroke-linecap="round" stroke-linejoin="round"/>
<path d="M8.2125 11.5833C9.59321 11.5833 10.7125 10.464 10.7125 9.08333C10.7125 7.70262 9.59321 6.58333 8.2125 6.58333C6.83179 6.58333 5.7125 7.70262 5.7125 9.08333C5.7125 10.464 6.83179 11.5833 8.2125 11.5833Z" stroke="var(--stroke-0, #FAFAFA)" stroke-width="1.5" stroke-linecap="round" stroke-linejoin="round"/>
</g>
</svg>
