<svg preserveAspectRatio="none" width="100%" height="100%" overflow="visible" style="display: block;" viewBox="0 0 24 24" fill="none" xmlns="http://www.w3.org/2000/svg">
<path id="Shape" fill-rule="evenodd" clip-rule="evenodd" d="M4.7115 18.1169L18.1169 4.7115L15.4112 2H22V8.58882L19.2885 5.88307L5.88308 19.2885L8.58882 22H2V15.4112L4.7115 18.1169ZM4.71 15.29L15.29 4.71L12.2927 1.70636C11.6638 1.07608 12.1102 0 13.0006 0H24V10.9994C24 11.8898 22.9239 12.3362 22.2936 11.7073L19.2901 8.71011L8.71 19.29L11.7073 22.2936C12.3362 22.9239 11.8898 24 10.9994 24H0V13.0006C0 12.1102 1.07608 11.6638 1.70635 12.2927L4.71 15.29Z" fill="var(--fill-0, white)"/>
</svg>
