<svg preserveAspectRatio="none" width="100%" height="100%" overflow="visible" style="display: block;" viewBox="0 0 15 15" fill="none" xmlns="http://www.w3.org/2000/svg">
<path id="Icon" d="M11.0147 5.93427L8.36574 3.28533M0.750005 13.55L2.99126 13.301C3.26508 13.2705 3.402 13.2553 3.52997 13.2139C3.64351 13.1772 3.75156 13.1252 3.85118 13.0595C3.96348 12.9855 4.06088 12.8881 4.2557 12.6932L13.0014 3.94756C13.7329 3.21608 13.7329 2.0301 13.0014 1.29862C12.2699 0.567129 11.0839 0.567128 10.3524 1.29861L1.60676 10.0443C1.41194 10.2391 1.31453 10.3365 1.24048 10.4488C1.17478 10.5484 1.12285 10.6565 1.0861 10.77C1.04467 10.898 1.02946 11.0349 0.999033 11.3087L0.750005 13.55Z" stroke="var(--stroke-0, #FAFAFA)" stroke-width="1.5" stroke-linecap="round" stroke-linejoin="round"/>
</svg>
