<svg preserveAspectRatio="none" width="100%" height="100%" overflow="visible" style="display: block;" viewBox="0 0 20 22" fill="none" xmlns="http://www.w3.org/2000/svg">
<g id="Icon">
<path d="M7.10012 18.1211L7.68456 19.4356C7.8583 19.8268 8.14184 20.1593 8.50079 20.3926C8.85974 20.6259 9.27867 20.7501 9.70679 20.75C10.1349 20.7501 10.5538 20.6259 10.9128 20.3926C11.2717 20.1593 11.5553 19.8268 11.729 19.4356L12.3135 18.1211C12.5215 17.6547 12.8715 17.2659 13.3135 17.01C13.7582 16.7534 14.2728 16.6442 14.7835 16.6978L16.2135 16.85C16.6391 16.895 17.0687 16.8156 17.4501 16.6213C17.8316 16.4271 18.1484 16.1263 18.3623 15.7556C18.5765 15.385 18.6786 14.9603 18.6561 14.5329C18.6336 14.1055 18.4875 13.6938 18.2357 13.3478L17.389 12.1844C17.0875 11.7671 16.9264 11.2648 16.929 10.75C16.9289 10.2366 17.0915 9.73635 17.3935 9.32111L18.2401 8.15778C18.492 7.81176 18.638 7.40007 18.6605 6.97267C18.683 6.54528 18.581 6.12054 18.3668 5.75C18.1529 5.37924 17.836 5.07849 17.4546 4.88423C17.0732 4.68997 16.6436 4.61053 16.2179 4.65556L14.7879 4.80778C14.2772 4.86141 13.7627 4.75212 13.3179 4.49556C12.875 4.23825 12.525 3.84736 12.3179 3.37889L11.729 2.06444C11.5553 1.67317 11.2717 1.34072 10.9128 1.1074C10.5538 0.874082 10.1349 0.74993 9.70679 0.75C9.27867 0.74993 8.85974 0.874082 8.50079 1.1074C8.14184 1.34072 7.8583 1.67317 7.68456 2.06444L7.10012 3.37889C6.89305 3.84736 6.54299 4.23825 6.10012 4.49556C5.65534 4.75212 5.14079 4.86141 4.63012 4.80778L3.19568 4.65556C2.77001 4.61053 2.34042 4.68997 1.95899 4.88423C1.57757 5.07849 1.26069 5.37924 1.04679 5.75C0.832608 6.12054 0.73057 6.54528 0.753054 6.97267C0.775538 7.40007 0.921578 7.81176 1.17345 8.15778L2.02012 9.32111C2.32206 9.73635 2.48466 10.2366 2.48456 10.75C2.48466 11.2634 2.32206 11.7637 2.02012 12.1789L1.17345 13.3422C0.921578 13.6882 0.775538 14.0999 0.753054 14.5273C0.73057 14.9547 0.832608 15.3795 1.04679 15.75C1.2609 16.1206 1.57782 16.4212 1.95918 16.6154C2.34055 16.8096 2.77004 16.8892 3.19568 16.8444L4.62568 16.6922C5.13634 16.6386 5.65089 16.7479 6.09568 17.0044C6.5402 17.261 6.89188 17.652 7.10012 18.1211Z" stroke="var(--stroke-0, #FAFAFA)" stroke-width="1.5" stroke-linecap="round" stroke-linejoin="round"/>
<path d="M9.705 13.75C11.3619 13.75 12.705 12.4069 12.705 10.75C12.705 9.09315 11.3619 7.75 9.705 7.75C8.04815 7.75 6.705 9.09315 6.705 10.75C6.705 12.4069 8.04815 13.75 9.705 13.75Z" stroke="var(--stroke-0, #FAFAFA)" stroke-width="1.5" stroke-linecap="round" stroke-linejoin="round"/>
</g>
</svg>
