<svg preserveAspectRatio="none" width="100%" height="100%" overflow="visible" style="display: block;" viewBox="0 0 28 28" fill="none" xmlns="http://www.w3.org/2000/svg">
<path id="Shape" fill-rule="evenodd" clip-rule="evenodd" d="M11.4233 23.0048H13.0048V15.0048H5.00483V16.591L2.41517 14.0048L5.00483 11.4187V13.0048H13.0048V5.00483H11.4187L14.0048 2.41517L16.591 5.00483H15.0048V13.0048H23.0048V11.4233L25.5864 14.0048L23.0048 16.5864L23.0048 15.0048H15.0048V23.0048H16.5864L14.0048 25.5864L11.4233 23.0048ZM21.0048 19.0027C21.0065 19.8922 22.0825 20.3372 22.7119 19.7077L27.7077 14.7119C28.0982 14.3214 28.0982 13.6882 27.7077 13.2977L22.7119 8.30194C22.082 7.67198 21.0048 8.11814 21.0048 9.00904V11.0048H17.0048V7.00483H19.0029C19.8935 7.00483 20.3398 5.92836 19.7105 5.2982L14.7124 0.29337C14.3218 -0.0977902 13.6879 -0.09779 13.2973 0.29337L8.29917 5.2982C7.66986 5.92836 8.11617 7.00483 9.00675 7.00483H11.0048V11.0048H7.00483V9.00675C7.00483 8.11617 5.92836 7.66985 5.2982 8.29916L0.293369 13.2972C-0.0977897 13.6879 -0.0977898 14.3218 0.293369 14.7124L5.2982 19.7105C5.92836 20.3398 7.00483 19.8935 7.00483 19.0029V17.0048H11.0048V21.0048H9.00906C8.11815 21.0048 7.67199 22.082 8.30195 22.7119L13.2977 27.7077C13.6883 28.0982 14.3214 28.0982 14.7119 27.7077L19.7077 22.7119C20.3377 22.082 19.8915 21.0048 19.0006 21.0048H17.0048V17.0048H21.0048L21.0048 19.0006C21.0048 19.0013 21.0048 19.002 21.0048 19.0027Z" fill="var(--fill-0, white)"/>
</svg>
