<svg preserveAspectRatio="none" width="100%" height="100%" overflow="visible" style="display: block;" viewBox="0 0 13 3" fill="none" xmlns="http://www.w3.org/2000/svg">
<g id="Icon">
<path d="M6.08333 2.08333C6.45152 2.08333 6.75 1.78486 6.75 1.41667C6.75 1.04848 6.45152 0.75 6.08333 0.75C5.71514 0.75 5.41667 1.04848 5.41667 1.41667C5.41667 1.78486 5.71514 2.08333 6.08333 2.08333Z" stroke="var(--stroke-0, #FAFAFA)" stroke-width="1.5" stroke-linecap="round" stroke-linejoin="round"/>
<path d="M10.75 2.08333C11.1182 2.08333 11.4167 1.78486 11.4167 1.41667C11.4167 1.04848 11.1182 0.75 10.75 0.75C10.3818 0.75 10.0833 1.04848 10.0833 1.41667C10.0833 1.78486 10.3818 2.08333 10.75 2.08333Z" stroke="var(--stroke-0, #FAFAFA)" stroke-width="1.5" stroke-linecap="round" stroke-linejoin="round"/>
<path d="M1.41667 2.08333C1.78486 2.08333 2.08333 1.78486 2.08333 1.41667C2.08333 1.04848 1.78486 0.75 1.41667 0.75C1.04848 0.75 0.75 1.04848 0.75 1.41667C0.75 1.78486 1.04848 2.08333 1.41667 2.08333Z" stroke="var(--stroke-0, #FAFAFA)" stroke-width="1.5" stroke-linecap="round" stroke-linejoin="round"/>
</g>
</svg>
