<svg preserveAspectRatio="none" width="100%" height="100%" overflow="visible" style="display: block;" viewBox="0 0 17 17" fill="none" xmlns="http://www.w3.org/2000/svg">
<path id="Icon" d="M11.75 15.75H4.02614C3.5213 15.75 3.26887 15.75 3.15199 15.6502C3.05057 15.5635 2.99674 15.4336 3.00721 15.3006C3.01927 15.1474 3.19776 14.9689 3.55474 14.6119L10.6405 7.52614C10.9705 7.19613 11.1355 7.03112 11.3258 6.9693C11.4932 6.91492 11.6735 6.91492 11.8408 6.9693C12.0311 7.03112 12.1961 7.19613 12.5261 7.52614L15.75 10.75V11.75M11.75 15.75C13.1501 15.75 13.8502 15.75 14.385 15.4775C14.8554 15.2378 15.2378 14.8554 15.4775 14.385C15.75 13.8502 15.75 13.1501 15.75 11.75M11.75 15.75H4.75C3.34987 15.75 2.6498 15.75 2.11502 15.4775C1.64462 15.2378 1.26217 14.8554 1.02248 14.385C0.750001 13.8502 0.750001 13.1501 0.750001 11.75V4.75C0.750001 3.34987 0.750001 2.6498 1.02248 2.11502C1.26217 1.64462 1.64462 1.26217 2.11502 1.02248C2.6498 0.750001 3.34987 0.750001 4.75 0.750001H11.75C13.1501 0.750001 13.8502 0.750001 14.385 1.02248C14.8554 1.26217 15.2378 1.64462 15.4775 2.11502C15.75 2.6498 15.75 3.34987 15.75 4.75V11.75M7 5.33333C7 6.25381 6.25381 7 5.33333 7C4.41286 7 3.66667 6.25381 3.66667 5.33333C3.66667 4.41286 4.41286 3.66667 5.33333 3.66667C6.25381 3.66667 7 4.41286 7 5.33333Z" stroke="var(--stroke-0, #FAFAFA)" stroke-width="1.5" stroke-linecap="round" stroke-linejoin="round"/>
</svg>
