<svg preserveAspectRatio="none" width="100%" height="100%" overflow="visible" style="display: block;" viewBox="0 0 22 28" fill="none" xmlns="http://www.w3.org/2000/svg">
<path id="Shape" fill-rule="evenodd" clip-rule="evenodd" d="M8.10508 2.21009C8.45179 0.936469 9.61653 0 11 0C12.3835 0 13.5482 0.936469 13.8949 2.21009C14.2369 2.07452 14.6098 2 15 2C16.6569 2 18 3.34315 18 5V6.17071C18.3128 6.06015 18.6494 6 19 6C20.6569 6 22 7.34315 22 9V17.3444C22 19.2587 21.5004 21.1398 20.5507 22.8019L18.732 25.9846C18.0198 27.2309 16.6945 28 15.259 28H7.54385C6.25205 28 5.03977 27.3761 4.28892 26.325L1.30387 22.1459C0.455862 20.9587 0 19.5362 0 18.0772V12C0 10.3431 1.34315 9 3 9C3.35064 9 3.68722 9.06015 4 9.17071V5C4 3.34315 5.34315 2 7 2C7.39025 2 7.76309 2.07452 8.10508 2.21009ZM10 12C10 12.5523 9.55228 13 9 13C8.44772 13 8 12.5523 8 12V5C8 4.44772 7.55228 4 7 4C6.44772 4 6 4.44772 6 5V16C6 16.5523 5.55228 17 5 17C4.44772 17 4 16.5523 4 16V12C4 11.4477 3.55228 11 3 11C2.44772 11 2 11.4477 2 12V18.0772C2 19.1193 2.32562 20.1354 2.93133 20.9834L5.91639 25.1625C6.29181 25.6881 6.89795 26 7.54385 26H15.259C15.9767 26 16.6394 25.6154 16.9955 24.9923L18.8142 21.8096C19.5913 20.4497 20 18.9106 20 17.3444V9C20 8.44771 19.5523 8 19 8C18.4477 8 18 8.44771 18 9V13C18 13.5523 17.5523 14 17 14C16.4477 14 16 13.5523 16 13V5C16 4.44772 15.5523 4 15 4C14.4477 4 14 4.44772 14 5V12C14 12.5523 13.5523 13 13 13C12.4477 13 12 12.5523 12 12V3C12 2.44772 11.5523 2 11 2C10.4477 2 10 2.44772 10 3V12Z" fill="var(--fill-0, #12131A)"/>
</svg>
