<svg preserveAspectRatio="none" width="100%" height="100%" overflow="visible" style="display: block;" viewBox="0 0 8 8" fill="none" xmlns="http://www.w3.org/2000/svg">
<path id="Icon" d="M3.69038 0.75L4.20296 1.79594C4.37644 2.14993 4.46318 2.32692 4.57905 2.4803C4.68187 2.6164 4.80146 2.73841 4.93485 2.84331C5.08518 2.96154 5.25866 3.05003 5.60561 3.22703L6.63077 3.75L5.60561 4.27297C5.25866 4.44996 5.08518 4.53846 4.93485 4.65669C4.80146 4.76159 4.68187 4.8836 4.57905 5.0197C4.46318 5.17308 4.37644 5.35007 4.20296 5.70406L3.69038 6.75L3.1778 5.70406C3.00433 5.35007 2.91759 5.17308 2.80171 5.0197C2.69889 4.8836 2.57931 4.76159 2.44591 4.65669C2.29559 4.53846 2.12211 4.44997 1.77516 4.27297L0.75 3.75L1.77516 3.22703C2.12211 3.05003 2.29559 2.96154 2.44591 2.84331C2.57931 2.73841 2.69889 2.6164 2.80171 2.4803C2.91759 2.32692 3.00433 2.14993 3.1778 1.79594L3.69038 0.75Z" stroke="var(--stroke-0, #BBBBBB)" stroke-width="1.5" stroke-linecap="round" stroke-linejoin="round"/>
</svg>
