<svg preserveAspectRatio="none" width="100%" height="100%" overflow="visible" style="display: block;" viewBox="0 0 17 19" fill="none" xmlns="http://www.w3.org/2000/svg">
<path id="Icon" d="M12.5157 14.0833C14.4686 12.7626 15.75 10.5649 15.75 8.0708C15.75 4.02775 12.392 0.75 8.25 0.75C4.10798 0.75 0.75 4.02775 0.75 8.0708C0.75 10.5649 2.03142 12.7626 3.98427 14.0833M5.21639 10.75C4.51562 10.0417 4.08333 9.09054 4.08333 8.04212C4.08333 5.85592 5.94901 4.08333 8.25 4.08333C10.551 4.08333 12.4167 5.85592 12.4167 8.04212C12.4167 9.09126 11.9844 10.0417 11.2836 10.75M8.25 17.4167C7.32953 17.4167 6.58333 16.6705 6.58333 15.75V14.0833C6.58333 13.1629 7.32953 12.4167 8.25 12.4167C9.17047 12.4167 9.91667 13.1629 9.91667 14.0833V15.75C9.91667 16.6705 9.17047 17.4167 8.25 17.4167ZM9.08333 8.25C9.08333 8.71024 8.71024 9.08333 8.25 9.08333C7.78976 9.08333 7.41667 8.71024 7.41667 8.25C7.41667 7.78976 7.78976 7.41667 8.25 7.41667C8.71024 7.41667 9.08333 7.78976 9.08333 8.25Z" stroke="var(--stroke-0, #FAFAFA)" stroke-width="1.5" stroke-linecap="round" stroke-linejoin="round"/>
</svg>
