<svg preserveAspectRatio="none" width="100%" height="100%" overflow="visible" style="display: block;" viewBox="0 0 16 16" fill="none" xmlns="http://www.w3.org/2000/svg">
<path id="Shape" fill-rule="evenodd" clip-rule="evenodd" d="M4.7115 5.88308L12.5842 13.7558C12.9077 14.0793 13.4323 14.0793 13.7558 13.7558C14.0793 13.4323 14.0793 12.9077 13.7558 12.5842L5.88308 4.7115L8.58882 2H2V8.58882L4.7115 5.88308ZM4.71 8.71L11.17 15.17C12.2746 16.2746 14.0654 16.2746 15.17 15.17C16.2746 14.0654 16.2746 12.2746 15.17 11.17L8.71 4.71L11.7073 1.70636C12.3362 1.07608 11.8898 0 10.9994 0H1C0.447715 0 0 0.447715 0 1V10.9994C0 11.8898 1.07608 12.3362 1.70635 11.7073L4.71 8.71Z" fill="var(--fill-0, white)"/>
</svg>
