<svg preserveAspectRatio="none" width="100%" height="100%" overflow="visible" style="display: block;" viewBox="0 0 28 24" fill="none" xmlns="http://www.w3.org/2000/svg">
<g id="Shape">
<path fill-rule="evenodd" clip-rule="evenodd" d="M19 13C19 15.7614 16.7614 18 14 18C11.2386 18 9 15.7614 9 13C9 10.2386 11.2386 8 14 8C16.7614 8 19 10.2386 19 13ZM17 13C17 14.6569 15.6569 16 14 16C12.3431 16 11 14.6569 11 13C11 11.3431 12.3431 10 14 10C15.6569 10 17 11.3431 17 13Z" fill="var(--fill-0, white)"/>
<path fill-rule="evenodd" clip-rule="evenodd" d="M5 3H7L8.1094 1.3359C8.6658 0.501303 9.60249 0 10.6056 0H17.3944C18.3975 0 19.3342 0.501303 19.8906 1.3359L21 3H23C25.7614 3 28 5.23858 28 8V19C28 21.7614 25.7614 24 23 24H5C2.23858 24 0 21.7614 0 19V8C0 5.23858 2.23858 3 5 3ZM5 5H8.07037L9.7735 2.4453C9.95897 2.1671 10.2712 2 10.6056 2H17.3944C17.7288 2 18.041 2.1671 18.2265 2.4453L19.9296 5H23C24.6569 5 26 6.34315 26 8V19C26 20.6569 24.6569 22 23 22H5C3.34315 22 2 20.6569 2 19V8C2 6.34315 3.34315 5 5 5Z" fill="var(--fill-0, white)"/>
</g>
</svg>
