<svg preserveAspectRatio="none" width="100%" height="100%" overflow="visible" style="display: block;" viewBox="0 0 19 17" fill="none" xmlns="http://www.w3.org/2000/svg">
<path id="Icon" d="M9.91667 4.08348L8.98705 2.22424C8.7195 1.68915 8.58572 1.42159 8.38614 1.22611C8.20965 1.05325 7.99694 0.921789 7.7634 0.841235C7.4993 0.750144 7.20017 0.750144 6.60191 0.750144H3.41667C2.48325 0.750144 2.01654 0.750144 1.66002 0.9318C1.34641 1.09159 1.09145 1.34656 0.931657 1.66016C0.750001 2.01668 0.750001 2.48339 0.750001 3.41681V4.08348M0.750001 4.08348H13.4167C14.8168 4.08348 15.5169 4.08348 16.0516 4.35596C16.522 4.59564 16.9045 4.9781 17.1442 5.4485C17.4167 5.98328 17.4167 6.68335 17.4167 8.08348V11.7501C17.4167 13.1503 17.4167 13.8503 17.1442 14.3851C16.9045 14.8555 16.522 15.238 16.0516 15.4777C15.5169 15.7501 14.8168 15.7501 13.4167 15.7501H4.75C3.34987 15.7501 2.6498 15.7501 2.11502 15.4777C1.64462 15.238 1.26217 14.8555 1.02248 14.3851C0.750001 13.8503 0.750001 13.1503 0.750001 11.7501V4.08348Z" stroke="var(--stroke-0, #2B2B2B)" stroke-width="1.5" stroke-linecap="round" stroke-linejoin="round"/>
</svg>
