<svg preserveAspectRatio="none" width="100%" height="100%" overflow="visible" style="display: block;" viewBox="0 0 24 28" fill="none" xmlns="http://www.w3.org/2000/svg">
<path id="Shape" fill-rule="evenodd" clip-rule="evenodd" d="M11 14.9958V20.9958H7.41481L12 25.5858L16.5852 20.9958H13V14.9958H21C21.5523 14.9958 22 14.5481 22 13.9958C22 13.4435 21.5523 12.9958 21 12.9958H13V6.99579H16.5816L12 2.41421L7.41843 6.99579H11V12.9958H3C2.44772 12.9958 2 13.4435 2 13.9958C2 14.5481 2.44772 14.9958 3 14.9958H11ZM3 16.9958C1.34315 16.9958 0 15.6526 0 13.9958C0 12.3389 1.34315 10.9958 3 10.9958H9V8.99579H5.00421C4.11331 8.99579 3.66714 7.91865 4.29711 7.28868L11.2929 0.292894C11.6834 -0.0976309 12.3166 -0.0976313 12.7071 0.292893L19.7029 7.28868C20.3329 7.91865 19.8867 8.99579 18.9958 8.99579H15V10.9958H21C22.6569 10.9958 24 12.3389 24 13.9958C24 15.6526 22.6569 16.9958 21 16.9958H15V18.9958H18.9976C19.8882 18.9958 20.3345 20.0724 19.7051 20.7025L12.7075 27.7075C12.3169 28.0986 11.6831 28.0986 11.2925 27.7075L4.29493 20.7025C3.66548 20.0724 4.11176 18.9958 5.00241 18.9958H9V16.9958H3Z" fill="var(--fill-0, white)"/>
</svg>
