<svg preserveAspectRatio="none" width="100%" height="100%" overflow="visible" style="display: block;" viewBox="0 0 5 5" fill="none" xmlns="http://www.w3.org/2000/svg">
<path id="Icon" d="M2.39941 1.64648C2.4406 1.71436 2.48332 1.7796 2.53125 1.8418C2.65452 2.00171 2.79809 2.14529 2.95801 2.26855C3.02007 2.31639 3.0856 2.3583 3.15332 2.39941C3.08545 2.4406 3.0202 2.48332 2.95801 2.53125C2.79809 2.65452 2.65452 2.79809 2.53125 2.95801C2.48332 3.0202 2.4406 3.08545 2.39941 3.15332C2.3583 3.0856 2.31639 3.02007 2.26855 2.95801C2.14529 2.79809 2.00171 2.65452 1.8418 2.53125C1.7796 2.48332 1.71436 2.4406 1.64648 2.39941C1.71421 2.35831 1.77973 2.31639 1.8418 2.26855C2.00171 2.14529 2.14529 2.00171 2.26855 1.8418C2.31639 1.77973 2.35831 1.71421 2.39941 1.64648Z" stroke="var(--stroke-0, #FAFAFA)" stroke-width="1.5" stroke-linecap="round" stroke-linejoin="round"/>
</svg>
