<svg preserveAspectRatio="none" width="100%" height="100%" overflow="visible" style="display: block;" viewBox="0 0 16 20" fill="none" xmlns="http://www.w3.org/2000/svg">
<path id="Shape" fill-rule="evenodd" clip-rule="evenodd" d="M6.99782 6.99596V16.996C6.99782 17.5482 7.44554 17.996 7.99782 17.996C8.55011 17.996 8.99782 17.5482 8.99782 16.996V6.99596H12.5795L7.99782 2.41423L3.41619 6.99596H6.99782ZM1.002 8.99596C0.111104 8.99596 -0.335064 7.91882 0.294891 7.28886L7.29071 0.2929C7.68124 -0.0976338 8.31441 -0.0976329 8.70494 0.292901L15.7008 7.28886C16.3307 7.91883 15.8845 8.99596 14.9936 8.99596H10.9978V16.996C10.9978 18.6528 9.65468 19.996 7.99782 19.996C6.34097 19.996 4.99782 18.6528 4.99782 16.996V8.99596H1.002Z" fill="var(--fill-0, white)"/>
</svg>
