<svg preserveAspectRatio="none" width="100%" height="100%" overflow="visible" style="display: block;" viewBox="0 0 17 17" fill="none" xmlns="http://www.w3.org/2000/svg">
<path id="Vector" d="M13.25 0.750003L13.25 3.08976e-06L13.25 0.750003ZM15.75 3.25L16.5 3.25L16.5 3.25L15.75 3.25ZM0.750003 3.25L2.61506e-06 3.25L0.750003 3.25ZM3.25 0.75L3.25 1.5L3.25 0.75ZM3.25 15.75L3.25 16.5L3.25 15.75ZM0.75 13.25L1.5 13.25L0.75 13.25ZM13.25 15.75L13.25 15L13.25 15.75ZM15.75 13.25L15 13.25L15 13.25L15.75 13.25ZM11.053 10.4483C11.3459 10.7412 11.8208 10.7412 12.1137 10.4483C12.4066 10.1554 12.4066 9.68053 12.1137 9.38764L11.5834 9.91797L11.053 10.4483ZM9.91671 8.2513L9.38638 7.72097C9.24573 7.86162 9.16671 8.05239 9.16671 8.2513C9.16671 8.45021 9.24573 8.64098 9.38638 8.78163L9.91671 8.2513ZM12.1137 7.11497C12.4066 6.82207 12.4066 6.3472 12.1137 6.05431C11.8208 5.76141 11.3459 5.76141 11.053 6.05431L11.5834 6.58464L12.1137 7.11497ZM13.25 15.75L13.25 15L3.25 15L3.25 15.75L3.25 16.5L13.25 16.5L13.25 15.75ZM0.75 13.25L1.5 13.25L1.5 3.25L0.750003 3.25L2.61506e-06 3.25L0 13.25L0.75 13.25ZM3.25 0.75L3.25 1.5L13.25 1.5L13.25 0.750003L13.25 3.08976e-06L3.25 0L3.25 0.75ZM15.75 3.25L15 3.25L15 13.25L15.75 13.25L16.5 13.25L16.5 3.25L15.75 3.25ZM13.25 0.750003L13.25 1.5C14.2165 1.5 15 2.28351 15 3.25L15.75 3.25L16.5 3.25C16.5 1.45508 15.0449 3.64435e-06 13.25 3.08976e-06L13.25 0.750003ZM0.750003 3.25L1.5 3.25C1.5 2.2835 2.2835 1.5 3.25 1.5L3.25 0.75L3.25 0C1.45508 -5.54589e-07 3.08445e-06 1.45507 2.61506e-06 3.25L0.750003 3.25ZM3.25 15.75L3.25 15C2.2835 15 1.5 14.2165 1.5 13.25L0.75 13.25L0 13.25C-4.69385e-07 15.0449 1.45507 16.5 3.25 16.5L3.25 15.75ZM13.25 15.75L13.25 16.5C15.0449 16.5 16.5 15.0449 16.5 13.25L15.75 13.25L15 13.25C15 14.2165 14.2165 15 13.25 15L13.25 15.75ZM11.5834 9.91797L12.1137 9.38764L10.447 7.72097L9.91671 8.2513L9.38638 8.78163L11.053 10.4483L11.5834 9.91797ZM9.91671 8.2513L10.447 8.78163L12.1137 7.11497L11.5834 6.58464L11.053 6.05431L9.38638 7.72097L9.91671 8.2513ZM5.75 0.750001L5 0.750001L5 15.75L5.75 15.75L6.5 15.75L6.5 0.750001L5.75 0.750001Z" fill="var(--stroke-0, #888888)"/>
</svg>
