<svg preserveAspectRatio="none" width="100%" height="100%" overflow="visible" style="display: block;" viewBox="0 0 22 28" fill="none" xmlns="http://www.w3.org/2000/svg">
<path id="Shape" fill-rule="evenodd" clip-rule="evenodd" d="M7 0C5.34315 0 4 1.34315 4 3V10.1C1.71776 10.5633 0 12.581 0 15V18.0772C0 19.5362 0.455862 20.9587 1.30387 22.1459L4.28892 26.325C5.03977 27.3761 6.25205 28 7.54385 28H15.259C16.6945 28 18.0198 27.2309 18.732 25.9846L21.0777 21.8796C21.6821 20.8219 22 19.6248 22 18.4066V15C22 12.3194 19.8906 10.1316 17.2412 10.0057C16.6917 9.38865 15.8913 9 15 9C14.4653 9 13.9634 9.13986 13.5286 9.38499C12.9956 8.5521 12.0623 8 11 8C10.6494 8 10.3128 8.06015 10 8.17071V3C10 1.34315 8.65685 0 7 0ZM10 11C10 11.5523 9.55228 12 9 12C8.44772 12 8 11.5523 8 11V3C8 2.44772 7.55228 2 7 2C6.44772 2 6 2.44772 6 3V16C6 16.5523 5.55228 17 5 17C4.44772 17 4 16.5523 4 16V12.1707C2.83481 12.5825 2 13.6938 2 15V18.0772C2 19.1193 2.32562 20.1354 2.93133 20.9834L5.91639 25.1625C6.29181 25.6881 6.89795 26 7.54385 26H15.259C15.9767 26 16.6394 25.6154 16.9955 24.9923L19.3412 20.8873C19.7729 20.1318 20 19.2767 20 18.4066V15C20 13.6938 19.1652 12.5825 18 12.1707V13C18 13.5523 17.5523 14 17 14C16.4477 14 16 13.5523 16 13V12C16 11.4477 15.5523 11 15 11C14.4477 11 14 11.4477 14 12C14 12.5523 13.5523 13 13 13C12.4477 13 12 12.5523 12 12V11C12 10.4477 11.5523 10 11 10C10.4477 10 10 10.4477 10 11Z" fill="var(--fill-0, #12131A)"/>
</svg>
