<svg preserveAspectRatio="none" width="100%" height="100%" overflow="visible" style="display: block;" viewBox="0 0 19 20" fill="none" xmlns="http://www.w3.org/2000/svg">
<path id="Icon" d="M7.98964 3.25H4.75006C3.34993 3.25 2.64987 3.25 2.11509 3.52248C1.64468 3.76217 1.26223 4.14462 1.02255 4.61502C0.750063 5.1498 0.750063 5.84987 0.750063 7.25V12.4167C0.750063 13.1916 0.750063 13.5791 0.835249 13.897C1.06642 14.7598 1.74029 15.4336 2.60302 15.6648C2.92093 15.75 3.30842 15.75 4.0834 15.75V17.6963C4.0834 18.1403 4.0834 18.3623 4.17442 18.4763C4.25358 18.5755 4.37362 18.6332 4.50051 18.6331C4.64642 18.6329 4.81979 18.4942 5.16653 18.2168L7.15441 16.6265C7.56046 16.3017 7.76355 16.1392 7.98964 16.0237C8.19023 15.9212 8.40375 15.8463 8.62441 15.801C8.87312 15.75 9.13314 15.75 9.65319 15.75H11.7501C13.1502 15.75 13.8503 15.75 14.385 15.4775C14.8554 15.2378 15.2379 14.8554 15.4776 14.385C15.7501 13.8502 15.7501 13.1501 15.7501 11.75V11.25M15.2501 0.75L14.7271 1.79594C14.5501 2.14993 14.4616 2.32692 14.3434 2.4803C14.2385 2.6164 14.1165 2.73841 13.9804 2.84331C13.827 2.96154 13.65 3.05003 13.296 3.22703L12.2501 3.75L13.296 4.27297C13.65 4.44997 13.827 4.53846 13.9804 4.65669C14.1165 4.76159 14.2385 4.8836 14.3434 5.0197C14.4616 5.17308 14.5501 5.35007 14.7271 5.70406L15.2501 6.75L15.773 5.70406C15.95 5.35007 16.0385 5.17308 16.1567 5.0197C16.2617 4.8836 16.3837 4.76159 16.5198 4.65669C16.6731 4.53846 16.8501 4.44996 17.2041 4.27297L18.2501 3.75L17.2041 3.22703C16.8501 3.05003 16.6731 2.96154 16.5198 2.84331C16.3837 2.73841 16.2617 2.6164 16.1567 2.4803C16.0385 2.32692 15.95 2.14993 15.773 1.79594L15.2501 0.75Z" stroke="var(--stroke-0, #FAFAFA)" stroke-width="1.5" stroke-linecap="round" stroke-linejoin="round"/>
</svg>
