<svg preserveAspectRatio="none" width="100%" height="100%" overflow="visible" style="display: block;" viewBox="0 0 16 28" fill="none" xmlns="http://www.w3.org/2000/svg">
<g id="Shape">
<path d="M5 22C4.44772 22 4 22.4477 4 23C4 23.5523 4.44772 24 5 24H11C11.5523 24 12 23.5523 12 23C12 22.4477 11.5523 22 11 22H5Z" fill="var(--fill-0, #12131A)"/>
<path fill-rule="evenodd" clip-rule="evenodd" d="M12 0H4C1.79086 0 0 1.79086 0 4V8.75736C0 9.55301 0.31607 10.3161 0.878679 10.8787L3.29289 13.2929C3.68342 13.6834 3.68342 14.3166 3.29289 14.7071L0.878679 17.1213C0.31607 17.6839 0 18.447 0 19.2426V24C0 26.2091 1.79086 28 4 28H12C14.2091 28 16 26.2091 16 24V19.2426C16 18.447 15.6839 17.6839 15.1213 17.1213L12.7071 14.7071C12.3166 14.3166 12.3166 13.6834 12.7071 13.2929L15.1213 10.8787C15.6839 10.3161 16 9.55301 16 8.75736V4C16 1.79086 14.2091 0 12 0ZM4 2H12C13.1046 2 14 2.89543 14 4V8.75736C14 9.02258 13.8946 9.27693 13.7071 9.46447L11.2929 11.8787C10.1213 13.0503 10.1213 14.9497 11.2929 16.1213L13.7071 18.5355C13.8946 18.7231 14 18.9774 14 19.2426V24C14 25.1046 13.1046 26 12 26H4C2.89543 26 2 25.1046 2 24V19.2426C2 18.9774 2.10536 18.7231 2.29289 18.5355L4.70711 16.1213C5.87868 14.9497 5.87868 13.0503 4.70711 11.8787L2.29289 9.46447C2.10536 9.27693 2 9.02258 2 8.75736V4C2 2.89543 2.89543 2 4 2Z" fill="var(--fill-0, #12131A)"/>
</g>
</svg>
