<svg preserveAspectRatio="none" width="100%" height="100%" overflow="visible" style="display: block;" viewBox="0 0 17 17" fill="none" xmlns="http://www.w3.org/2000/svg">
<path id="Icon" d="M4.91667 0.750001H4.75C3.34987 0.750001 2.6498 0.750001 2.11502 1.02248C1.64462 1.26217 1.26217 1.64462 1.02248 2.11502C0.750001 2.6498 0.750001 3.34987 0.750001 4.75V4.91667M4.91667 15.75H4.75C3.34987 15.75 2.6498 15.75 2.11502 15.4775C1.64462 15.2378 1.26217 14.8554 1.02248 14.385C0.750001 13.8502 0.750001 13.1501 0.750001 11.75V11.5833M15.75 4.91667V4.75C15.75 3.34987 15.75 2.6498 15.4775 2.11502C15.2378 1.64462 14.8554 1.26217 14.385 1.02248C13.8502 0.750001 13.1501 0.750001 11.75 0.750001H11.5833M15.75 11.5833V11.75C15.75 13.1501 15.75 13.8502 15.4775 14.385C15.2378 14.8554 14.8554 15.2378 14.385 15.4775C13.8502 15.75 13.1501 15.75 11.75 15.75H11.5833" stroke="var(--stroke-0, #BBBBBB)" stroke-width="1.5" stroke-linecap="round" stroke-linejoin="round"/>
</svg>
