<svg preserveAspectRatio="none" width="100%" height="100%" overflow="visible" style="display: block;" viewBox="0 0 19 19" fill="none" xmlns="http://www.w3.org/2000/svg">
<g id="Icon">
<path d="M0.75 9.08333C0.75 13.6857 4.48096 17.4167 9.08333 17.4167C10.464 17.4167 11.5833 16.2974 11.5833 14.9167V14.5C11.5833 14.113 11.5833 13.9195 11.6047 13.757C11.7524 12.6352 12.6352 11.7524 13.757 11.6047C13.9195 11.5833 14.113 11.5833 14.5 11.5833H14.9167C16.2974 11.5833 17.4167 10.464 17.4167 9.08333C17.4167 4.48096 13.6857 0.75 9.08333 0.75C4.48096 0.75 0.75 4.48096 0.75 9.08333Z" stroke="var(--stroke-0, #FAFAFA)" stroke-width="1.5" stroke-linecap="round" stroke-linejoin="round"/>
<path d="M4.91667 9.91667C5.3769 9.91667 5.75 9.54357 5.75 9.08333C5.75 8.6231 5.3769 8.25 4.91667 8.25C4.45643 8.25 4.08333 8.6231 4.08333 9.08333C4.08333 9.54357 4.45643 9.91667 4.91667 9.91667Z" stroke="var(--stroke-0, #FAFAFA)" stroke-width="1.5" stroke-linecap="round" stroke-linejoin="round"/>
<path d="M12.4167 6.58333C12.8769 6.58333 13.25 6.21024 13.25 5.75C13.25 5.28976 12.8769 4.91667 12.4167 4.91667C11.9564 4.91667 11.5833 5.28976 11.5833 5.75C11.5833 6.21024 11.9564 6.58333 12.4167 6.58333Z" stroke="var(--stroke-0, #FAFAFA)" stroke-width="1.5" stroke-linecap="round" stroke-linejoin="round"/>
<path d="M7.41667 5.75C7.8769 5.75 8.25 5.3769 8.25 4.91667C8.25 4.45643 7.8769 4.08333 7.41667 4.08333C6.95643 4.08333 6.58333 4.45643 6.58333 4.91667C6.58333 5.3769 6.95643 5.75 7.41667 5.75Z" stroke="var(--stroke-0, #FAFAFA)" stroke-width="1.5" stroke-linecap="round" stroke-linejoin="round"/>
</g>
</svg>
