<svg preserveAspectRatio="none" width="100%" height="100%" overflow="visible" style="display: block;" viewBox="0 0 28 28" fill="none" xmlns="http://www.w3.org/2000/svg">
<g id="Shape">
<path fill-rule="evenodd" clip-rule="evenodd" d="M6.04263 15.3914L0.0829237 1.39475C-0.26983 0.566297 0.566291 -0.269829 1.39475 0.0829228L15.3913 6.04259C16.2149 6.39325 16.1982 7.56631 15.3651 7.89347L10.0002 10.0001L7.89351 15.3651C7.56635 16.1983 6.39329 16.2149 6.04263 15.3914ZM12.359 6.9252L8.45732 8.45728L6.92523 12.359L2.89583 2.89583L12.359 6.9252Z" fill="var(--fill-0, white)"/>
<path d="M19.0001 15.0002C18.4478 15.0002 18.0001 15.4479 18.0001 16.0002V18.0002H16.0001C15.4478 18.0002 15.0001 18.4479 15.0001 19.0002C15.0001 19.5525 15.4478 20.0002 16.0001 20.0002H18.0001V22.0002C18.0001 22.5525 18.4478 23.0002 19.0001 23.0002C19.5524 23.0002 20.0001 22.5525 20.0001 22.0002V20.0002H22.0001C22.5524 20.0002 23.0001 19.5525 23.0001 19.0002C23.0001 18.4479 22.5524 18.0002 22.0001 18.0002H20.0001V16.0002C20.0001 15.4479 19.5524 15.0002 19.0001 15.0002Z" fill="var(--fill-0, white)"/>
<path fill-rule="evenodd" clip-rule="evenodd" d="M19.0001 28.0002C23.9707 28.0002 28.0001 23.9707 28.0001 19.0002C28.0001 14.0296 23.9707 10.0002 19.0001 10.0002C14.0296 10.0002 10.0001 14.0296 10.0001 19.0002C10.0001 23.9707 14.0296 28.0002 19.0001 28.0002ZM19.0001 26.0002C22.8661 26.0002 26.0001 22.8662 26.0001 19.0002C26.0001 15.1342 22.8661 12.0002 19.0001 12.0002C15.1341 12.0002 12.0001 15.1342 12.0001 19.0002C12.0001 22.8662 15.1341 26.0002 19.0001 26.0002Z" fill="var(--fill-0, white)"/>
</g>
</svg>
