<svg preserveAspectRatio="none" width="100%" height="100%" overflow="visible" style="display: block;" viewBox="0 0 16 28" fill="none" xmlns="http://www.w3.org/2000/svg">
<path id="Shape" fill-rule="evenodd" clip-rule="evenodd" d="M8 4.31792L6.74906 3.31513C5.72149 2.49139 4.42087 2 3 2C2.44772 2 2 2.44772 2 3C2 3.55228 2.44772 4 3 4C5.20914 4 7 5.79086 7 8V20C7 22.2091 5.20914 24 3 24C2.44772 24 2 24.4477 2 25C2 25.5523 2.44772 26 3 26C4.42087 26 5.72149 25.5086 6.74906 24.6849L8 23.6821L9.25094 24.6849C10.2785 25.5086 11.5791 26 13 26C13.5523 26 14 25.5523 14 25C14 24.4477 13.5523 24 13 24C10.7909 24 9 22.2091 9 20V8C9 5.79086 10.7909 4 13 4C13.5523 4 14 3.55228 14 3C14 2.44772 13.5523 2 13 2C11.5791 2 10.2785 2.49139 9.25094 3.31513L8 4.31792ZM8 1.75463C6.6304 0.656719 4.89189 0 3 0C1.34315 0 0 1.34315 0 3C0 4.65685 1.34315 6 3 6C4.10457 6 5 6.89543 5 8V20C5 21.1046 4.10457 22 3 22C1.34315 22 0 23.3431 0 25C0 26.6569 1.34315 28 3 28C4.89189 28 6.6304 27.3433 8 26.2454C9.3696 27.3433 11.1081 28 13 28C14.6569 28 16 26.6569 16 25C16 23.3431 14.6569 22 13 22C11.8954 22 11 21.1046 11 20V8C11 6.89543 11.8954 6 13 6C14.6569 6 16 4.65685 16 3C16 1.34315 14.6569 0 13 0C11.1081 0 9.3696 0.656719 8 1.75463Z" fill="var(--fill-0, white)"/>
</svg>
