<svg preserveAspectRatio="none" width="100%" height="100%" overflow="visible" style="display: block;" viewBox="0 0 23 30" fill="none" xmlns="http://www.w3.org/2000/svg">
<g id="Shape" filter="url(#filter0_d_1277_20589)">
<path d="M6 25.5C4.34315 25.5 3 24.1569 3 22.5V4.5C3 2.84315 4.34315 1.5 6 1.5C7.65685 1.5 9 2.84315 9 4.5V10.5H11V6.50421C11 5.61331 12.0771 5.16714 12.7071 5.79711L19.7029 12.7929C20.0934 13.1834 20.0934 13.8166 19.7029 14.2071L12.7071 21.2029C12.0771 21.8329 11 21.3867 11 20.4958V16.5H9V22.5C9 24.1569 7.65685 25.5 6 25.5Z" fill="var(--fill-0, #12131A)"/>
</g>
<defs>
<filter id="filter0_d_1277_20589" x="0" y="0" width="22.9958" height="30" filterUnits="userSpaceOnUse" color-interpolation-filters="sRGB">
<feFlood flood-opacity="0" result="BackgroundImageFix"/>
<feColorMatrix in="SourceAlpha" type="matrix" values="0 0 0 0 0 0 0 0 0 0 0 0 0 0 0 0 0 0 127 0" result="hardAlpha"/>
<feOffset dy="1.5"/>
<feGaussianBlur stdDeviation="1.5"/>
<feComposite in2="hardAlpha" operator="out"/>
<feColorMatrix type="matrix" values="0 0 0 0 0.0705882 0 0 0 0 0.0745098 0 0 0 0 0.101961 0 0 0 0.25 0"/>
<feBlend mode="normal" in2="BackgroundImageFix" result="effect1_dropShadow_1277_20589"/>
<feBlend mode="normal" in="SourceGraphic" in2="effect1_dropShadow_1277_20589" result="shape"/>
</filter>
</defs>
</svg>
