<svg preserveAspectRatio="none" width="100%" height="100%" overflow="visible" style="display: block;" viewBox="0 0 16 17" fill="none" xmlns="http://www.w3.org/2000/svg">
<path id="Icon" d="M14.9167 1.58333L5.33333 11.1667M5.33333 5.33333L14.9167 14.9167M3.25 0.75C4.63071 0.75 5.75 1.86929 5.75 3.25C5.75 4.63071 4.63071 5.75 3.25 5.75C1.86929 5.75 0.75 4.63071 0.75 3.25C0.75 1.86929 1.86929 0.75 3.25 0.75ZM3.25 10.75C4.63071 10.75 5.75 11.8693 5.75 13.25C5.75 14.6307 4.63071 15.75 3.25 15.75C1.86929 15.75 0.75 14.6307 0.75 13.25C0.75 11.8693 1.86929 10.75 3.25 10.75Z" stroke="var(--stroke-0, #FAFAFA)" stroke-width="1.5" stroke-linecap="round" stroke-linejoin="round"/>
</svg>
