<svg preserveAspectRatio="none" width="100%" height="100%" overflow="visible" style="display: block;" viewBox="0 0 17 24" fill="none" xmlns="http://www.w3.org/2000/svg">
<path id="Shape" fill-rule="evenodd" clip-rule="evenodd" d="M4 13H10V16.5816L14.5816 12L10 7.41843V11H4V3C4 2.44772 3.55228 2 3 2C2.44772 2 2 2.44772 2 3V21C2 21.5523 2.44772 22 3 22C3.55228 22 4 21.5523 4 21V13ZM6 21C6 22.6569 4.65685 24 3 24C1.34315 24 0 22.6569 0 21V3C0 1.34315 1.34315 0 3 0C4.65685 0 6 1.34315 6 3V9H8V5.00421C8 4.11331 9.07714 3.66714 9.70711 4.29711L16.7029 11.2929C17.0934 11.6834 17.0934 12.3166 16.7029 12.7071L9.70711 19.7029C9.07714 20.3329 8 19.8867 8 18.9958V15H6V21Z" fill="var(--fill-0, white)"/>
</svg>
