<svg preserveAspectRatio="none" width="100%" height="100%" overflow="visible" style="display: block;" viewBox="0 0 17 14" fill="none" xmlns="http://www.w3.org/2000/svg">
<path id="Icon" d="M0.75 3.25L10.75 3.25M10.75 3.25C10.75 4.63071 11.8693 5.75 13.25 5.75C14.6307 5.75 15.75 4.63071 15.75 3.25C15.75 1.86929 14.6307 0.75 13.25 0.75C11.8693 0.75 10.75 1.86929 10.75 3.25ZM5.75 9.91667L15.75 9.91667M5.75 9.91667C5.75 11.2974 4.63071 12.4167 3.25 12.4167C1.86929 12.4167 0.75 11.2974 0.75 9.91667C0.75 8.53595 1.86929 7.41667 3.25 7.41667C4.63071 7.41667 5.75 8.53595 5.75 9.91667Z" stroke="var(--stroke-0, #FAFAFA)" stroke-width="1.5" stroke-linecap="round" stroke-linejoin="round"/>
</svg>
