<svg preserveAspectRatio="none" width="100%" height="100%" overflow="visible" style="display: block;" viewBox="0 0 24 24" fill="none" xmlns="http://www.w3.org/2000/svg">
<path id="Shape" fill-rule="evenodd" clip-rule="evenodd" d="M19.2885 18.1169L5.88307 4.7115L8.58882 2H2V8.58882L4.7115 5.88307L18.1169 19.2885L15.4112 22H22V15.4112L19.2885 18.1169ZM19.29 15.29L8.71 4.71L11.7073 1.70636C12.3362 1.07608 11.8898 0 10.9994 0H0V10.9994C0 11.8898 1.07608 12.3362 1.70635 11.7073L4.70989 8.71011L15.29 19.29L12.2927 22.2936C11.6638 22.9239 12.1102 24 13.0006 24H24V13.0006C24 12.1102 22.9239 11.6638 22.2936 12.2927L19.29 15.29Z" fill="var(--fill-0, white)"/>
</svg>
