<svg preserveAspectRatio="none" width="100%" height="100%" overflow="visible" style="display: block;" viewBox="0 0 16 16" fill="none" xmlns="http://www.w3.org/2000/svg">
<path id="Shape" fill-rule="evenodd" clip-rule="evenodd" d="M11.2869 10.1154L3.41421 2.24264C3.09069 1.91912 2.56616 1.91912 2.24264 2.24264C1.91912 2.56616 1.91912 3.09069 2.24264 3.41422L10.1154 11.2869L7.40961 13.9984H13.9984V7.40961L11.2869 10.1154ZM11.2884 7.28843L4.82843 0.828428C3.72386 -0.276143 1.933 -0.276143 0.828426 0.828428C-0.276144 1.933 -0.276141 3.72386 0.828429 4.82843L7.28843 11.2884L4.29116 14.2921C3.66223 14.9223 4.10862 15.9984 4.99902 15.9984H14.9984C15.5507 15.9984 15.9984 15.5507 15.9984 14.9984V4.99902C15.9984 4.10862 14.9223 3.66223 14.2921 4.29116L11.2884 7.28843Z" fill="var(--fill-0, white)"/>
</svg>
