<svg preserveAspectRatio="none" width="100%" height="100%" overflow="visible" style="display: block;" viewBox="0 0 1062 48" fill="none" xmlns="http://www.w3.org/2000/svg">
<g id="Stephen" clip-path="url(#clip0_16649_31809)">
<rect id="Silence" y="47" width="1062" height="1" fill="var(--fill-0, #C2FF44)"/>
<path id="2" d="M477.97 39.8787L474 46.9479L474 48.1321L478.015 54.2183C478.276 54.6141 478.579 54.9802 478.92 55.31L479.734 56.0975C481.207 57.5238 483.414 57.8782 485.259 56.9847C485.727 56.7584 486.156 56.4589 486.529 56.0975L488.641 54.0527C489.753 52.9765 491.239 52.3747 492.786 52.3747C493.686 52.3747 494.574 52.1712 495.383 51.7793L498.225 50.4035C500.427 49.3378 502.995 49.3378 505.197 50.4035L508.03 51.7748C508.845 52.1696 509.74 52.3747 510.646 52.3747C512.552 52.3747 514.346 53.2802 515.478 54.8145L516.181 55.7681C516.607 56.3446 517.151 56.8226 517.778 57.1694C519.803 58.2897 522.333 57.8677 523.885 56.1507L524.775 55.1664C525.349 54.5308 526.041 54.0121 526.812 53.6388L527.698 53.2098C528.821 52.6663 530.084 52.4813 531.315 52.68C532.544 52.8782 533.682 53.4485 534.575 54.3139L536.649 56.3216C536.87 56.5354 537.111 56.727 537.369 56.8936C539.32 58.1523 541.897 57.7984 543.435 56.0605L544.109 55.2994C544.394 54.978 544.731 54.7076 545.107 54.4998C547.127 53.3821 549.668 54.3272 550.467 56.4933L550.672 57.0497C551.422 59.0807 553.804 59.9668 555.699 58.9189C556.228 58.6261 556.673 58.2023 556.992 57.6882L558.64 55.029C559.663 53.3787 561.466 52.3747 563.407 52.3747C564.254 52.3747 565.089 52.1832 565.851 51.8144L566.028 51.7286C567.572 50.9813 569.373 50.9813 570.917 51.7286C571.791 52.1521 572.541 52.7957 573.093 53.5962L575.37 56.9041C575.808 57.5397 576.335 58.1087 576.936 58.5932L579.096 60.3361C579.57 60.7183 580.086 61.0453 580.634 61.3105L582.609 62.2667C583.252 62.5778 583.807 63.0434 584.226 63.622L584.478 63.9718C586.156 66.2922 589.652 66.1677 591.16 63.7338C591.562 63.0851 592.141 62.564 592.828 62.2315L593.933 61.6966C595.001 61.1796 595.94 60.4314 596.684 59.5063L599.372 56.1597C599.765 55.6706 600.214 55.2294 600.71 54.8453L602.155 53.7264C602.783 53.2396 603.524 52.9181 604.309 52.7915C605.917 52.532 607.546 53.1139 608.626 54.3336L609.849 55.7152C610.39 56.3258 611.062 56.8054 611.815 57.118C613.797 57.9401 616.077 57.5063 617.619 56.0142L618.622 55.0423C619.196 54.487 619.854 54.0268 620.573 53.6789L622.205 52.889C622.904 52.5505 623.671 52.3747 624.447 52.3747C626.082 52.3747 627.619 53.1509 628.589 54.4659L629.216 55.316C629.855 56.1814 630.735 56.8388 631.745 57.2058C633.851 57.9702 636.209 57.3706 637.694 55.6936L638.562 54.7138C638.859 54.3773 639.221 54.1032 639.626 53.9074C641.357 53.0695 643.437 53.8328 644.216 55.5912L645.002 57.3679C645.826 59.2286 648.117 59.9134 649.827 58.8099C650.172 58.5868 650.473 58.3012 650.714 57.9678L653.431 54.2108C654.265 53.0577 655.601 52.3747 657.024 52.3747C657.607 52.3747 658.185 52.2597 658.724 52.0362L660.377 51.35C661.611 50.8383 663.004 50.8783 664.206 51.4601C665.408 52.0419 666.801 52.082 668.034 51.5703L670.504 50.5455L670.625 50.4868C672.782 49.4428 675.371 49.9802 676.934 51.7961C677.264 52.1799 677.648 52.5142 678.074 52.7888L680.55 54.3871C680.99 54.6709 681.4 54.9971 681.776 55.361L684.363 57.8657C684.778 58.267 685.119 58.7378 685.371 59.2567L688.126 64.9243C688.878 66.4705 691.094 66.4309 691.79 64.8589L691.889 64.6355C692.588 63.0576 694.851 63.1293 695.448 64.7483C696.026 66.3153 698.191 66.449 698.957 64.9649L700.846 61.3077C701.185 60.6517 701.71 60.1108 702.356 59.7534L705.123 58.2229C705.551 57.9859 705.919 57.6527 706.196 57.2495C707.63 55.1679 710.805 55.5265 711.738 57.8753L712.702 60.3016L715.564 67.2271C716.101 68.5285 717.463 69.2895 718.854 69.0651C719.745 68.9214 720.526 68.3884 720.985 67.611L723.025 64.154C723.935 62.6121 726.227 62.8188 726.847 64.4985C727.476 66.2022 729.814 66.3828 730.696 64.7958L732.43 61.6781C732.711 61.1737 733.104 60.7406 733.578 60.4123L734.83 59.5468C736.28 58.544 738.213 58.5962 739.607 59.6758L739.647 59.7067C740.151 60.0972 740.55 60.6068 740.808 61.1899L741.438 62.6136C742.52 65.0585 745.972 65.107 747.123 62.6936C747.642 61.6047 748.741 60.9113 749.947 60.9113H750.411C751.621 60.9113 752.73 61.5868 753.286 62.6621L754.308 64.6422C755.085 66.1462 757.236 66.1462 758.012 64.6422C758.803 63.1111 761.005 63.1461 761.746 64.7017L761.829 64.8747C762.604 66.5013 764.906 66.538 765.733 64.937L767.884 60.7722C768.045 60.4595 768.243 60.1668 768.472 59.9001L771.276 56.643L774.757 53.2726C775.738 52.3238 777.108 51.893 778.454 52.1103C779.51 52.2805 780.591 52.054 781.489 51.4744L782.902 50.5623C783.546 50.1467 784.246 49.8258 784.981 49.6094L790 48.1321V46.9479L784.496 43.9601L782.108 42.4219C781.208 41.8419 780.125 41.6153 779.067 41.7855C777.718 42.0029 776.344 41.5717 775.361 40.6217L771.874 37.2528L769.066 33.9966C768.835 33.7293 768.637 33.4359 768.475 33.1224L766.32 28.9587C765.491 27.356 763.186 27.3927 762.408 29.0211L762.325 29.194C761.581 30.7513 759.377 30.7865 758.584 29.2536C757.805 27.748 755.651 27.748 754.872 29.2537L753.848 31.2322C753.291 32.3086 752.181 32.9845 750.969 32.9845H750.501C749.293 32.9845 748.193 32.2906 747.672 31.2007C746.518 28.785 743.063 28.8337 741.977 31.2809L741.346 32.704C741.087 33.2883 740.686 33.7989 740.18 34.1899L740.14 34.2212C738.743 35.3005 736.809 35.3527 735.357 34.3503L734.102 33.4841C733.626 33.1554 733.231 32.7216 732.95 32.2162L731.212 29.099C730.327 27.5106 727.987 27.6916 727.356 29.3973C726.735 31.0789 724.44 31.2861 723.527 29.7429L721.483 26.2868C721.022 25.5081 720.239 24.9745 719.346 24.8306C717.953 24.6063 716.588 25.3684 716.049 26.6721L713.183 33.5943L712.218 36.0195C711.281 38.3712 708.102 38.7306 706.665 36.6473C706.386 36.2435 706.017 35.9099 705.588 35.6727L702.817 34.1428C702.169 33.7851 701.642 33.2435 701.302 32.5863L699.41 28.9302C698.641 27.4447 696.474 27.5786 695.894 29.1476C695.295 30.7686 693.029 30.8405 692.328 29.2607L692.229 29.0369C691.531 27.4631 689.311 27.4234 688.558 28.9713L685.798 34.6372C685.545 35.1574 685.202 35.6292 684.786 36.0313L682.194 38.5356C681.818 38.899 681.407 39.2247 680.967 39.5079L678.485 41.1067C678.059 41.3815 677.674 41.7162 677.342 42.1005C675.776 43.9167 673.185 44.4541 671.025 43.4109L670.9 43.3504L668.425 42.3255C667.189 41.8138 665.794 41.8538 664.589 42.4357C663.385 43.0176 661.989 43.0577 660.753 42.5459L659.096 41.8596C658.556 41.6361 657.978 41.5211 657.393 41.5211C655.967 41.5211 654.627 40.8373 653.79 39.6823L651.071 35.9291C650.829 35.595 650.527 35.3089 650.18 35.0855C648.466 33.9816 646.172 34.6676 645.345 36.531L644.56 38.3009C643.779 40.0622 641.695 40.8268 639.96 39.9887C639.554 39.7927 639.192 39.5183 638.893 39.1812L638.025 38.2037C636.536 36.5253 634.174 35.9253 632.065 36.6896C631.051 37.0569 630.168 37.7153 629.527 38.5823L628.903 39.4268C627.929 40.744 626.388 41.5211 624.75 41.5211C623.972 41.5211 623.204 41.3453 622.504 41.0069L620.869 40.2171C620.149 39.8691 619.489 39.4086 618.913 38.8528L617.909 37.8825C616.364 36.3894 614.08 35.9553 612.094 36.7775C611.339 37.0903 610.664 37.5706 610.122 38.1822L608.899 39.5602C607.816 40.7814 606.184 41.3639 604.572 41.1044C603.785 40.9777 603.043 40.6561 602.413 40.1688L600.965 39.0498C600.469 38.6661 600.019 38.2254 599.626 37.7367L596.93 34.3878C596.186 33.4638 595.246 32.7168 594.178 32.2009L593.068 31.6646C592.379 31.3319 591.8 30.8103 591.396 30.1605C589.884 27.7252 586.385 27.6005 584.703 29.922L584.449 30.2726C584.029 30.852 583.472 31.3181 582.828 31.6293L580.847 32.5863C580.3 32.8509 579.784 33.1771 579.31 33.5586L577.143 35.3034C576.542 35.7874 576.014 36.3559 575.576 36.9912L573.295 40.2971C572.741 41.0993 571.989 41.744 571.111 42.168C569.565 42.9149 567.762 42.9149 566.216 42.168L566.037 42.0814C565.273 41.7126 564.437 41.5211 563.589 41.5211C561.643 41.5211 559.835 40.5156 558.808 38.8624L557.161 36.2093C556.841 35.6941 556.394 35.2696 555.863 34.9765C553.964 33.9283 551.578 34.816 550.826 36.8501L550.624 37.3977C549.822 39.5675 547.276 40.5144 545.251 39.3963C544.875 39.1883 544.536 38.9176 544.251 38.5957L543.577 37.8365C542.034 36.0972 539.453 35.7428 537.498 37.0019C537.239 37.1688 536.997 37.3606 536.776 37.5747L534.7 39.5802C533.803 40.4468 532.662 41.0176 531.431 41.2159C530.197 41.4146 528.933 41.2296 527.807 40.6861L526.92 40.2572C526.147 39.8838 525.453 39.3647 524.877 38.7284L523.987 37.7459C522.431 36.0278 519.898 35.6054 517.869 36.7258C517.24 37.073 516.693 37.5519 516.266 38.1296L515.565 39.0777C514.429 40.6145 512.631 41.5211 510.72 41.5211C509.812 41.5211 508.917 41.7262 508.099 42.121L505.248 43.4985C503.049 44.5605 500.486 44.5605 498.288 43.4985L495.428 42.1166C494.616 41.7247 493.727 41.5211 492.826 41.5211C491.275 41.5211 489.785 40.9188 488.67 39.8413L486.556 37.7992C486.182 37.4372 485.752 37.1373 485.283 36.9108C483.433 36.0172 481.223 36.3719 479.745 37.7992L479.075 38.4472C478.639 38.8682 478.267 39.3504 477.97 39.8787Z" fill="var(--fill-0, #C2FF44)"/>
<path id="3" d="M912.528 39.2745L910 46.9482V48.1414L912.586 54.8138L913.377 56.4021C913.884 57.419 915.239 57.6386 916.04 56.8337C916.166 56.7074 916.271 56.5617 916.35 56.4021L917.87 53.3509C918.168 52.7528 918.778 52.3747 919.447 52.3747C919.915 52.3747 920.364 52.1882 920.695 51.8564L921.245 51.3041C922.667 49.8765 924.978 49.8765 926.4 51.3041L926.911 51.8167C927.267 52.1739 927.75 52.3747 928.254 52.3747C929.057 52.3747 929.772 52.8796 930.041 53.6355L930.995 56.3164C931.072 56.5322 931.188 56.7317 931.339 56.9044C932.22 57.9158 933.855 57.6638 934.391 56.4339L935.136 54.7234C935.286 54.3802 935.498 54.0679 935.762 53.8026L936.372 53.1908C936.87 52.6909 937.608 52.5164 938.277 52.7403C938.744 52.8966 939.13 53.2323 939.35 53.6734L940.762 56.5087C940.806 56.5981 940.859 56.6833 940.919 56.7633C941.688 57.7926 943.283 57.6017 943.787 56.42L944.384 55.023C944.443 54.8844 944.524 54.7559 944.623 54.6423C945.417 53.7305 946.914 54.1454 947.126 55.3362L947.604 58.0251C947.81 59.1856 949.269 59.59 950.043 58.7014C950.175 58.5504 950.273 58.373 950.33 58.1811L951.674 53.6824C951.906 52.9064 952.624 52.3747 953.433 52.3747C953.917 52.3747 954.383 52.1821 954.724 51.8394C955.435 51.1256 956.591 51.1256 957.302 51.8394L957.489 52.027C957.717 52.2557 957.888 52.5342 957.99 52.8406L959.381 57.0312C959.565 57.5838 959.808 58.1147 960.107 58.6144L961.015 60.1343C961.324 60.6504 961.694 61.1267 962.118 61.5527L962.989 62.4265C963.195 62.6333 963.351 62.8837 963.448 63.1592L963.49 63.2813C964.098 65.0253 966.584 64.9692 967.112 63.1997C967.202 62.8983 967.366 62.624 967.588 62.4011L968.243 61.7433C968.789 61.1946 969.216 60.5384 969.496 59.8163L970.983 55.9779C971.126 55.6091 971.303 55.2546 971.512 54.9189L972.431 53.4423C972.615 53.1464 972.897 52.924 973.227 52.8134C973.968 52.5656 974.774 52.9279 975.081 53.6459L976.191 56.2481C976.302 56.5079 976.471 56.7389 976.686 56.9232C977.599 57.709 979.008 57.4247 979.545 56.3464L980.374 54.6819C980.531 54.3654 980.739 54.0763 980.988 53.8257L981.957 52.8531C982.262 52.5469 982.677 52.3747 983.109 52.3747C983.797 52.3747 984.41 52.8075 984.64 53.4554L985.58 56.0973C985.707 56.4533 985.935 56.7642 986.237 56.9915C987.237 57.7446 988.679 57.3596 989.17 56.2081L989.93 54.4282C989.993 54.2801 990.084 54.1454 990.198 54.0313C990.908 53.3183 992.126 53.6772 992.336 54.6614L993.076 58.1287C993.308 59.2135 994.709 59.5205 995.373 58.6319C995.452 58.5261 995.514 58.4089 995.558 58.2842L997.29 53.3166C997.486 52.7526 998.018 52.3747 998.616 52.3747C998.952 52.3747 999.277 52.2542 999.531 52.0349L1000.28 51.3875C1000.84 50.9129 1001.66 50.9445 1002.17 51.4601C1002.69 51.9757 1003.51 52.0074 1004.06 51.5327L1005.21 50.5455C1006.08 49.6749 1007.55 49.966 1008.02 51.1009L1008.43 52.0936C1008.51 52.2803 1008.61 52.4567 1008.73 52.6186L1009.94 54.2369C1010.23 54.6207 1010.48 55.0295 1010.69 55.4583L1012.07 58.2301C1012.15 58.391 1012.22 58.5607 1012.26 58.7357L1013.7 64.8754C1013.92 65.8228 1015.27 65.8093 1015.47 64.8577L1015.5 64.7238C1015.71 63.7742 1017.07 63.7976 1017.24 64.7535C1017.41 65.6932 1018.74 65.7385 1018.97 64.8124L1019.99 60.7186C1020.06 60.4445 1020.19 60.1905 1020.37 59.9776L1022.03 58.0793C1022.15 57.9362 1022.25 57.7698 1022.31 57.5897C1022.77 56.1894 1024.79 56.3224 1025.07 57.7715L1025.56 60.3016L1027.12 68.1613C1027.26 68.844 1027.96 69.2525 1028.62 69.0316C1028.99 68.9105 1029.26 68.6188 1029.37 68.2519L1030.47 64.3975C1030.75 63.3955 1032.19 63.4686 1032.38 64.4943C1032.56 65.5281 1034.02 65.5909 1034.29 64.5767L1035.2 61.2089C1035.25 61.012 1035.33 60.8258 1035.45 60.6587L1035.93 59.9755C1036.62 58.9753 1038.12 59.0142 1038.76 60.0492C1038.87 60.2162 1038.94 60.3999 1038.98 60.5923L1039.3 62.077C1039.64 63.6807 1041.92 63.6985 1042.29 62.1004L1042.32 61.9569C1042.46 61.345 1043.01 60.9113 1043.64 60.9113C1044.26 60.9113 1044.79 61.3327 1044.94 61.9331L1045.62 64.6417C1045.85 65.5724 1047.17 65.5724 1047.4 64.6418C1047.64 63.7023 1048.98 63.7145 1049.19 64.658L1049.24 64.8747C1049.47 65.8728 1050.89 65.8856 1051.14 64.8919L1052.24 60.4518C1052.27 60.3518 1052.3 60.2538 1052.34 60.1586L1053.8 56.643L1055.76 52.7041C1056.03 52.1656 1056.65 51.907 1057.22 52.0979C1057.72 52.2631 1058.26 52.093 1058.57 51.6759L1059.87 49.9357L1062 47.5448V46.3517L1060.17 43.9601L1058.87 42.2206C1058.56 41.803 1058.01 41.6326 1057.52 41.7979C1056.95 41.9889 1056.32 41.7298 1056.05 41.1903L1054.09 37.2528L1052.63 33.7377C1052.59 33.6422 1052.55 33.5439 1052.53 33.4435L1051.42 29.0039C1051.17 28.0086 1049.75 28.0215 1049.52 29.0211L1049.47 29.2378C1049.26 30.1828 1047.91 30.1949 1047.68 29.2541C1047.45 28.322 1046.12 28.322 1045.89 29.2541L1045.21 31.9608C1045.06 32.5624 1044.52 32.9845 1043.9 32.9845C1043.28 32.9845 1042.73 32.5501 1042.59 31.937L1042.56 31.7939C1042.19 30.1936 1039.9 30.2115 1039.56 31.8174L1039.24 33.3025C1039.2 33.4955 1039.12 33.6799 1039.02 33.8474C1038.37 34.883 1036.88 34.9219 1036.18 33.9213L1035.7 33.2378C1035.59 33.0702 1035.5 32.8835 1035.45 32.686L1034.54 29.3188C1034.27 28.3031 1032.81 28.3661 1032.62 29.4015C1032.44 30.4288 1030.99 30.5022 1030.71 29.4987L1029.61 25.6454C1029.5 25.2776 1029.22 24.9852 1028.86 24.8641C1028.2 24.6432 1027.49 25.0524 1027.36 25.7363L1025.79 33.5943L1025.3 36.1244C1025.02 37.5757 1023 37.7091 1022.53 36.3069C1022.47 36.1263 1022.38 35.9594 1022.25 35.8161L1020.6 33.919C1020.41 33.7056 1020.28 33.4509 1020.21 33.176L1019.19 29.0833C1018.95 28.1557 1017.62 28.2012 1017.45 29.1423C1017.28 30.0998 1015.92 30.1233 1015.71 29.1722L1015.69 29.0381C1015.48 28.085 1014.13 28.0715 1013.9 29.0204L1012.46 35.1592C1012.42 35.3348 1012.36 35.5051 1012.28 35.6665L1010.9 38.4372C1010.68 38.8662 1010.43 39.2752 1010.14 39.659L1008.93 41.2767C1008.81 41.439 1008.71 41.6158 1008.63 41.803L1008.22 42.7933C1007.75 43.9299 1006.27 44.2216 1005.4 43.3504L1004.25 42.363C1003.7 41.8882 1002.87 41.9199 1002.36 42.4357C1001.84 42.9516 1001.02 42.9833 1000.46 42.5084L999.711 41.861C999.456 41.6417 999.13 41.5211 998.793 41.5211C998.195 41.5211 997.661 41.1425 997.464 40.5773L995.73 35.6122C995.686 35.4872 995.623 35.3696 995.544 35.2635C994.878 34.3741 993.475 34.6819 993.242 35.7683L992.501 39.2329C992.291 40.2186 991.071 40.5784 990.359 39.8649C990.245 39.7506 990.154 39.6155 990.09 39.4669L989.33 37.6889C988.836 36.5361 987.393 36.1504 986.391 36.9037C986.088 37.1314 985.858 37.4431 985.731 37.8001L984.791 40.4382C984.559 41.0875 983.944 41.5211 983.255 41.5211C982.822 41.5211 982.407 41.3489 982.101 41.0425L981.131 40.0707C980.881 39.8198 980.672 39.5301 980.514 39.2128L979.684 37.5503C979.146 36.4707 977.735 36.186 976.82 36.9721C976.605 37.1568 976.435 37.3883 976.324 37.6489L975.212 40.2483C974.904 40.9675 974.096 41.3304 973.354 41.0826C973.023 40.9719 972.74 40.7491 972.555 40.4527L971.635 38.9776C971.426 38.6415 971.248 38.2864 971.104 37.9171L969.615 34.0803C969.335 33.3576 968.907 32.7012 968.36 32.1526L967.704 31.4953C967.481 31.2721 967.317 30.9971 967.226 30.6949C966.696 28.9233 964.208 28.8671 963.598 30.613L963.555 30.7355C963.458 31.0118 963.301 31.2628 963.094 31.4699L962.222 32.3433C961.797 32.7692 961.426 33.2455 961.117 33.7617L960.207 35.2808C959.908 35.781 959.664 36.3124 959.48 36.8655L958.086 41.0538C957.984 41.3611 957.812 41.6404 957.583 41.8697L957.396 42.0567C956.684 42.7707 955.527 42.7707 954.814 42.0567C954.472 41.7138 954.005 41.5211 953.521 41.5211C952.709 41.5211 951.99 40.9884 951.757 40.2107L950.411 35.7156C950.353 35.5231 950.255 35.3452 950.123 35.1939C949.346 34.3046 947.886 34.71 947.679 35.8723L947.2 38.5578C946.988 39.7505 945.489 40.1664 944.692 39.254C944.593 39.1401 944.512 39.0112 944.452 38.8722L943.855 37.4765C943.349 36.2934 941.752 36.1021 940.981 37.1323C940.921 37.2125 940.868 37.2979 940.823 37.3875L939.409 40.2208C939.189 40.6629 938.801 40.9993 938.333 41.1558C937.663 41.3796 936.923 41.205 936.424 40.7049L935.814 40.0939C935.549 39.8282 935.336 39.5152 935.186 39.1712L934.44 37.4625C933.902 36.2313 932.266 35.9788 931.382 36.9907C931.231 37.1639 931.113 37.364 931.036 37.5805L930.082 40.2578C929.812 41.0153 929.095 41.5211 928.29 41.5211C927.785 41.5211 927.301 41.722 926.944 42.0794L926.432 42.5922C925.007 44.0204 922.693 44.0204 921.267 42.5922L920.716 42.0398C920.385 41.7077 919.935 41.5211 919.466 41.5211C918.796 41.5211 918.184 41.1424 917.885 40.5432L916.363 37.4944C916.283 37.3344 916.178 37.1883 916.052 37.0617C915.248 36.2564 913.891 36.4764 913.383 37.4944L912.681 38.9008C912.621 39.0215 912.57 39.1464 912.528 39.2745Z" fill="var(--fill-0, #C2FF44)"/>
<g id="1">
<path d="M1.86457 39.4065L0.000609657 41.5358L0 52.3609L1.86064 54.4907C2.03624 54.6917 2.18832 54.9199 2.31277 55.1692L2.88338 56.3122C3.44046 57.428 4.7054 57.6827 5.53982 56.847C5.69121 56.6954 5.82013 56.5146 5.9212 56.3122L7.32666 53.4969C7.67826 52.7926 8.31558 52.3609 9.00382 52.3609C9.4634 52.3609 9.90822 52.1678 10.2599 51.8156L10.8171 51.2575C12.2861 49.7862 14.4312 49.7862 15.9002 51.2575L16.4242 51.7823C16.7973 52.156 17.2693 52.3609 17.757 52.3609C18.5877 52.3609 19.338 52.952 19.6626 53.8623L20.4923 56.1892C20.5932 56.4721 20.7412 56.7278 20.9273 56.9408C21.8479 57.9946 23.3609 57.6989 23.9501 56.35L24.621 54.8143C24.8024 54.3991 25.0505 54.0303 25.3513 53.729L25.8932 53.1864C26.4088 52.6699 27.1056 52.4905 27.7544 52.7071C28.258 52.8753 28.688 53.2676 28.9552 53.8029L30.2743 56.4451C30.3317 56.5601 30.3982 56.6683 30.473 56.7681C31.2951 57.8659 32.7874 57.6365 33.3481 56.326L33.8893 55.0612C33.9652 54.884 34.0654 54.7232 34.1858 54.5853C35.0327 53.6159 36.4449 54.132 36.6888 55.5002L37.1058 57.839C37.3418 59.1622 38.7075 59.6614 39.5266 58.7238C39.6882 58.5388 39.8116 58.3116 39.8869 58.0601L41.1236 53.9314C41.4057 52.9897 42.1579 52.3609 42.9978 52.3609C43.4627 52.3609 43.9143 52.1655 44.2701 51.8092C45.0046 51.0736 46.0772 51.0736 46.8117 51.8092L46.9424 51.9402C47.2182 52.2163 47.432 52.5697 47.5648 52.9685L48.8256 56.7568C49.0638 57.4725 49.374 58.1511 49.7494 58.7779L50.5326 60.0852C50.8468 60.6097 51.2153 61.0849 51.6294 61.4997L52.4641 62.3356C52.7029 62.5747 52.89 62.8785 53.0098 63.2214L53.0666 63.3837C53.7324 65.289 56.0198 65.2186 56.602 63.2749C56.7148 62.8981 56.9099 62.5638 57.167 62.3062L57.7737 61.6986C58.3152 61.1562 58.7499 60.4786 59.0468 59.7139L60.4732 56.0404C60.6381 55.6157 60.8393 55.2124 61.0737 54.8368L61.9073 53.501C62.1225 53.1562 62.4277 52.9061 62.7752 52.7901C63.5228 52.5406 64.3145 52.9536 64.6669 53.7772L65.6669 56.1141C65.8086 56.4452 66.0146 56.7314 66.2678 56.9488C67.2028 57.7514 68.5148 57.4269 69.1036 56.2473L69.8481 54.756C70.0367 54.3783 70.2772 54.0409 70.5597 53.758L71.4594 52.8569C71.7793 52.5366 72.1838 52.3609 72.6018 52.3609C73.3139 52.3609 73.9569 52.8676 74.2352 53.6478L75.0451 55.9193C75.2074 56.3742 75.4824 56.7593 75.8336 57.0231C76.8479 57.785 78.1929 57.3447 78.7373 56.0725L79.4228 54.4704C79.5033 54.2823 79.6147 54.1153 79.7504 53.9794C80.4982 53.2305 81.6465 53.6698 81.8876 54.7971L82.5679 57.9768C82.8321 59.2114 84.1477 59.5935 84.8599 58.6425C84.9591 58.5101 85.0389 58.3588 85.0961 58.1951L86.7421 53.4851C86.98 52.8044 87.5384 52.3609 88.1578 52.3609C88.4797 52.3609 88.7935 52.2403 89.0546 52.0161L89.8128 51.3653C90.3804 50.878 91.1535 50.9124 91.689 51.4487C92.2245 51.985 92.9977 52.0194 93.5653 51.5321L94.7251 50.5365C95.6523 49.6078 97.0654 49.9588 97.6032 51.2515L97.9194 52.0114C98.0158 52.2434 98.1381 52.4588 98.2828 52.652L99.3743 54.1097C99.7149 54.5645 100.018 55.0572 100.28 55.581L101.551 58.1269C101.655 58.3364 101.736 58.5613 101.791 58.7959L103.21 64.8358C103.464 65.9149 104.754 65.897 104.986 64.8112L105.018 64.6649C105.25 63.579 106.555 63.6103 106.75 64.7064C106.942 65.7805 108.21 65.8407 108.473 64.7882L109.468 60.8024C109.556 60.4514 109.718 60.1335 109.94 59.8797L111.502 58.092C111.65 57.9222 111.766 57.7164 111.842 57.4886C112.362 55.9253 114.266 56.0985 114.581 57.7377L115.067 60.2669L116.598 67.9346C116.756 68.7284 117.438 69.2058 118.098 68.9855C118.481 68.8575 118.786 68.5129 118.914 68.0643L119.984 64.3154C120.307 63.1844 121.676 63.2809 121.884 64.4493C122.095 65.6284 123.482 65.7115 123.791 64.5635L124.678 61.2632C124.747 61.0068 124.856 60.7687 125.001 60.5618L125.498 59.851C126.216 58.8238 127.552 58.8676 128.221 59.9402C128.356 60.1559 128.454 60.4009 128.51 60.6613L128.833 62.17C129.217 63.9648 131.351 63.9881 131.763 62.202L131.784 62.1083C131.952 61.38 132.508 60.8751 133.143 60.8751C133.766 60.8751 134.316 61.3629 134.493 62.0742L135.123 64.5957C135.387 65.6531 136.644 65.6531 136.908 64.5957C137.175 63.5267 138.452 63.5428 138.7 64.6183L138.748 64.8281C139.01 65.9638 140.358 65.9808 140.64 64.8518L141.733 60.4704C141.767 60.335 141.81 60.2033 141.863 60.0767L143.302 56.618L145.198 52.8198C145.512 52.1903 146.143 51.8902 146.735 52.0879C147.235 52.255 147.772 52.0681 148.118 51.6063L148.237 51.4475C148.858 50.6179 149.934 50.5685 150.607 51.3387L151.5 52.3609V41.5358L150.847 42.4057C150.222 43.2388 149.127 43.2388 148.502 42.4057L148.416 42.291C148.069 41.8287 147.532 41.6417 147.03 41.8087C146.436 42.0066 145.805 41.706 145.49 41.0754L143.59 37.2787L142.149 33.8206C142.096 33.6936 142.052 33.5615 142.018 33.4256L140.923 29.0448C140.64 27.9142 139.29 27.9312 139.027 29.0687L138.979 29.2784C138.73 30.3554 137.452 30.3715 137.184 29.301C136.919 28.2421 135.659 28.2421 135.395 29.301L134.764 31.8203C134.586 32.533 134.036 33.0217 133.411 33.0217C132.775 33.0217 132.218 32.5159 132.049 31.7861L132.028 31.6931C131.615 29.9048 129.477 29.9281 129.092 31.7252L128.769 33.2341C128.713 33.4954 128.614 33.7411 128.479 33.9574C127.808 35.0304 126.471 35.0743 125.751 34.0468L125.253 33.3356C125.108 33.1283 124.998 32.8895 124.928 32.6324L124.04 29.3328C123.73 28.1832 122.341 28.2666 122.13 29.4474C121.921 30.6175 120.549 30.7143 120.226 29.5818L119.154 25.834C119.026 25.3844 118.719 25.0391 118.335 24.9111C117.674 24.6908 116.991 25.1691 116.832 25.9642L115.298 33.6298L114.812 36.159C114.496 37.8005 112.59 37.9742 112.068 36.409C111.991 36.1806 111.875 35.9744 111.726 35.8042L110.162 34.0177C109.939 33.7635 109.776 33.4448 109.688 33.0929L108.692 29.1083C108.428 28.0542 107.157 28.1146 106.965 29.1903C106.769 30.2881 105.462 30.3195 105.229 29.232L105.198 29.0855C104.965 27.9981 103.672 27.9801 103.418 29.0608L101.996 35.0996C101.941 35.335 101.86 35.5607 101.755 35.7707L100.482 38.3156C100.219 38.8395 99.9158 39.3321 99.5746 39.7868L98.4811 41.2441C98.3359 41.4377 98.2132 41.6536 98.1162 41.8861L97.8006 42.6432C97.261 43.9378 95.8457 44.2896 94.9159 43.3603L93.7536 42.3645C93.1848 41.8771 92.4105 41.9115 91.8737 42.448C91.337 42.9846 90.5627 43.019 89.9938 42.5316L89.2341 41.8806C88.9724 41.6564 88.6581 41.5358 88.3357 41.5358C87.7149 41.5358 87.1549 41.0915 86.9161 40.4094L85.2679 35.7024C85.2104 35.5381 85.1301 35.3865 85.0306 35.2538C84.3164 34.302 82.9991 34.6851 82.734 35.9215L82.0531 39.0977C81.8111 40.2267 80.6612 40.667 79.9116 39.9177C79.7753 39.7815 79.6634 39.6141 79.5826 39.4255L78.8966 37.8256C78.3505 36.5519 77.0038 36.111 75.9873 36.873C75.6349 37.1372 75.3588 37.5232 75.1958 37.9793L74.3857 40.2464C74.1064 41.0282 73.4617 41.5358 72.7479 41.5358C72.3292 41.5358 71.924 41.3601 71.6033 41.0396L70.7025 40.1392C70.4191 39.856 70.1778 39.5181 69.9884 39.1396L69.2435 37.6504C68.6528 36.4696 67.3392 36.1446 66.4022 36.9474C66.148 37.1651 65.9411 37.4519 65.7988 37.784L64.7981 40.1177C64.4445 40.9426 63.6513 41.3563 62.9021 41.1067C62.5538 40.9906 62.2477 40.7403 62.0317 40.3949L61.1974 39.0606C60.9623 38.6846 60.7603 38.2806 60.5948 37.8552L59.1663 34.1836C58.8686 33.4184 58.433 32.7405 57.8904 32.1982L57.283 31.5911C57.0249 31.3331 56.8292 30.9981 56.7158 30.6204C56.1319 28.6747 53.8421 28.6042 53.1743 30.5112L53.1173 30.6741C52.997 31.0178 52.8091 31.3222 52.5695 31.5616L51.7336 32.3972C51.3187 32.8119 50.9495 33.2871 50.6346 33.8117L49.8502 35.1185C49.4738 35.7454 49.1628 36.4245 48.9239 37.1407L47.6615 40.9264C47.5281 41.3264 47.3133 41.6807 47.0364 41.9574L46.9061 42.0877C46.1699 42.8236 45.096 42.8236 44.3598 42.0877C44.0032 41.7312 43.5508 41.5358 43.0851 41.5358C42.2432 41.5358 41.4891 40.9058 41.2058 39.962L39.968 35.8378C39.8923 35.5856 39.7684 35.3577 39.606 35.1723C38.7848 34.2342 37.4173 34.7345 37.1806 36.0597L36.7636 38.3941C36.5187 39.7645 35.1046 40.2819 34.2554 39.3118C34.1345 39.1737 34.0339 39.0125 33.9577 38.8348L33.4161 37.5716C32.8535 36.2596 31.3594 36.0297 30.5351 37.1283C30.46 37.2283 30.3931 37.3368 30.3355 37.4521L29.0149 40.0921C28.7465 40.6285 28.3152 41.0215 27.8101 41.1898C27.1603 41.4063 26.4625 41.2268 25.9457 40.7103L25.4034 40.1683C25.1016 39.8666 24.8526 39.4972 24.6705 39.0812L23.9992 37.5474C23.4081 36.1972 21.8934 35.9009 20.9705 36.9552C20.7836 37.1687 20.635 37.425 20.5336 37.7088L19.7037 40.0315C19.3778 40.9436 18.6256 41.5358 17.7929 41.5358C17.3044 41.5358 16.8316 41.7408 16.4576 42.1146L15.9324 42.6396C14.46 44.1113 12.3122 44.1113 10.8398 42.6396L10.2814 42.0814C9.92879 41.729 9.48313 41.5358 9.02274 41.5358C8.33288 41.5358 7.69397 41.1035 7.34103 40.3979L5.93409 37.5854C5.83256 37.3824 5.70309 37.2011 5.55111 37.0492C4.71469 36.2132 3.44817 36.4683 2.88938 37.5854L2.31842 38.7268C2.19346 38.9766 2.0408 39.2052 1.86457 39.4065Z" fill="var(--fill-0, #C2FF44)"/>
<path d="M153.365 39.4065L151.5 41.5358V52.3609L153.361 54.4907C153.536 54.6917 153.688 54.9199 153.813 55.1692L154.383 56.3122C154.94 57.428 156.205 57.6827 157.04 56.847C157.191 56.6954 157.32 56.5146 157.421 56.3122L158.827 53.4969C159.178 52.7926 159.816 52.3609 160.504 52.3609C160.963 52.3609 161.408 52.1678 161.76 51.8156L162.317 51.2575C163.786 49.7862 165.931 49.7862 167.4 51.2575L167.924 51.7823C168.297 52.156 168.769 52.3609 169.257 52.3609C170.088 52.3609 170.838 52.952 171.163 53.8623L171.992 56.1892C172.093 56.4721 172.241 56.7278 172.427 56.9408C173.348 57.9946 174.861 57.6989 175.45 56.35L176.121 54.8143C176.302 54.3991 176.55 54.0303 176.851 53.729L177.393 53.1864C177.909 52.6699 178.606 52.4905 179.254 52.7071C179.758 52.8753 180.188 53.2676 180.455 53.8029L181.774 56.4451C181.832 56.5601 181.898 56.6683 181.973 56.7681C182.795 57.8659 184.287 57.6365 184.848 56.326L185.389 55.0612C185.465 54.884 185.565 54.7232 185.686 54.5853C186.533 53.6159 187.945 54.132 188.189 55.5002L188.606 57.839C188.842 59.1622 190.207 59.6614 191.027 58.7238C191.188 58.5388 191.312 58.3116 191.387 58.0601L192.624 53.9314C192.906 52.9897 193.658 52.3609 194.498 52.3609C194.963 52.3609 195.414 52.1655 195.77 51.8092C196.505 51.0736 197.577 51.0736 198.312 51.8092L198.442 51.9402C198.718 52.2163 198.932 52.5697 199.065 52.9685L200.326 56.7569C200.564 57.4725 200.874 58.1511 201.249 58.7779L202.033 60.0852C202.347 60.6097 202.715 61.0849 203.129 61.4997L203.964 62.3356C204.203 62.5747 204.39 62.8785 204.51 63.2214L204.567 63.3837C205.232 65.289 207.52 65.2186 208.102 63.2749C208.215 62.8981 208.41 62.5638 208.667 62.3062L209.274 61.6986C209.815 61.1562 210.25 60.4786 210.547 59.7139L211.973 56.0404C212.138 55.6157 212.339 55.2124 212.574 54.8368L213.407 53.501C213.622 53.1562 213.928 52.9061 214.275 52.7901C215.023 52.5406 215.814 52.9537 216.167 53.7772L217.167 56.1141C217.309 56.4452 217.515 56.7314 217.768 56.9488C218.703 57.7514 220.015 57.4269 220.604 56.2473L221.348 54.756C221.537 54.3783 221.777 54.0409 222.06 53.758L222.959 52.8569C223.279 52.5366 223.684 52.3609 224.102 52.3609C224.814 52.3609 225.457 52.8676 225.735 53.6478L226.545 55.9193C226.707 56.3742 226.982 56.7593 227.334 57.0231C228.348 57.785 229.693 57.3447 230.237 56.0725L230.923 54.4704C231.003 54.2823 231.115 54.1153 231.25 53.9794C231.998 53.2305 233.146 53.6698 233.388 54.7971L234.068 57.9768C234.332 59.2114 235.648 59.5935 236.36 58.6425C236.459 58.5101 236.539 58.3588 236.596 58.1951L238.242 53.4851C238.48 52.8044 239.038 52.3609 239.658 52.3609C239.98 52.3609 240.293 52.2403 240.555 52.0161L241.313 51.3653C241.88 50.878 242.654 50.9124 243.189 51.4487C243.724 51.985 244.498 52.0194 245.065 51.5321L246.225 50.5365C247.152 49.6078 248.565 49.9588 249.103 51.2515L249.419 52.0114C249.516 52.2434 249.638 52.4588 249.783 52.652L250.874 54.1097C251.215 54.5645 251.518 55.0572 251.779 55.581L253.05 58.1269C253.155 58.3364 253.236 58.5613 253.291 58.7959L254.71 64.8358C254.964 65.9149 256.254 65.897 256.486 64.8112L256.518 64.6649C256.75 63.579 258.055 63.6103 258.25 64.7064C258.442 65.7804 259.71 65.8407 259.973 64.7882L260.968 60.8024C261.056 60.4514 261.218 60.1335 261.44 59.8797L263.002 58.092C263.15 57.9222 263.266 57.7164 263.342 57.4886C263.862 55.9253 265.766 56.0985 266.081 57.7377L266.567 60.2669L268.098 67.9346C268.256 68.7284 268.938 69.2058 269.598 68.9855C269.981 68.8575 270.286 68.5129 270.414 68.0643L271.484 64.3154C271.806 63.1844 273.176 63.2809 273.384 64.4493C273.595 65.6284 274.982 65.7115 275.291 64.5635L276.178 61.2632C276.247 61.0068 276.356 60.7687 276.501 60.5618L276.998 59.851C277.716 58.8238 279.052 58.8676 279.721 59.9402C279.856 60.1559 279.954 60.4009 280.01 60.6613L280.333 62.17C280.716 63.9648 282.851 63.9881 283.263 62.202L283.284 62.1083C283.452 61.38 284.008 60.8751 284.643 60.8751C285.266 60.8751 285.816 61.3629 285.993 62.0742L286.623 64.5957C286.886 65.6531 288.144 65.6531 288.408 64.5957C288.675 63.5267 289.952 63.5428 290.2 64.6183L290.248 64.828C290.51 65.9638 291.858 65.9808 292.14 64.8518L293.233 60.4704C293.267 60.335 293.31 60.2033 293.363 60.0767L294.802 56.618L296.698 52.8198C297.012 52.1903 297.643 51.8902 298.235 52.0879C298.735 52.255 299.272 52.0681 299.618 51.6063L300.593 50.3042C300.78 50.0544 300.99 49.8308 301.22 49.6376L303 48.1387V46.9487L301.175 43.9684L299.916 42.291C299.569 41.8288 299.032 41.6417 298.53 41.8087C297.936 42.0066 297.305 41.706 296.99 41.0754L295.09 37.2787L293.649 33.8206C293.596 33.6936 293.552 33.5615 293.518 33.4256L292.423 29.0448C292.14 27.9142 290.79 27.9312 290.527 29.0687L290.479 29.2784C290.23 30.3554 288.952 30.3715 288.684 29.301C288.419 28.2421 287.159 28.2421 286.895 29.301L286.264 31.8203C286.086 32.533 285.536 33.0217 284.911 33.0217C284.275 33.0217 283.718 32.5159 283.549 31.7861L283.528 31.6931C283.115 29.9048 280.977 29.9281 280.592 31.7252L280.269 33.2341C280.213 33.4954 280.114 33.7411 279.979 33.9574C279.308 35.0304 277.971 35.0743 277.251 34.0468L276.753 33.3356C276.608 33.1283 276.498 32.8895 276.428 32.6324L275.54 29.3328C275.23 28.1832 273.841 28.2666 273.63 29.4474C273.421 30.6175 272.049 30.7143 271.726 29.5818L270.654 25.834C270.526 25.3844 270.219 25.0391 269.835 24.9111C269.174 24.6908 268.491 25.1691 268.332 25.9642L266.798 33.6298L266.312 36.159C265.996 37.8005 264.09 37.9742 263.568 36.409C263.491 36.1806 263.375 35.9744 263.226 35.8042L261.662 34.0177C261.439 33.7635 261.276 33.4448 261.188 33.0929L260.192 29.1083C259.928 28.0542 258.657 28.1146 258.465 29.1903C258.269 30.2881 256.962 30.3195 256.729 29.232L256.698 29.0855C256.465 27.9981 255.172 27.9801 254.918 29.0608L253.496 35.0996C253.441 35.335 253.36 35.5607 253.255 35.7707L251.982 38.3156C251.719 38.8395 251.416 39.3321 251.075 39.7868L249.981 41.2441C249.836 41.4377 249.713 41.6536 249.616 41.8861L249.301 42.6432C248.761 43.9378 247.346 44.2896 246.416 43.3603L245.254 42.3645C244.685 41.8771 243.911 41.9115 243.374 42.448C242.837 42.9846 242.063 43.019 241.494 42.5316L240.734 41.8806C240.472 41.6564 240.158 41.5358 239.836 41.5358C239.215 41.5358 238.655 41.0915 238.416 40.4094L236.768 35.7024C236.71 35.5381 236.63 35.3865 236.531 35.2538C235.816 34.302 234.499 34.6851 234.234 35.9215L233.553 39.0977C233.311 40.2267 232.161 40.667 231.412 39.9177C231.275 39.7815 231.163 39.6141 231.083 39.4255L230.397 37.8256C229.85 36.5519 228.504 36.111 227.487 36.873C227.135 37.1372 226.859 37.5232 226.696 37.9793L225.886 40.2464C225.606 41.0282 224.962 41.5358 224.248 41.5358C223.829 41.5358 223.424 41.3601 223.103 41.0396L222.202 40.1392C221.919 39.856 221.678 39.5181 221.488 39.1396L220.743 37.6504C220.153 36.4696 218.839 36.1446 217.902 36.9474C217.648 37.1651 217.441 37.4519 217.299 37.784L216.298 40.1177C215.944 40.9426 215.151 41.3563 214.402 41.1067C214.054 40.9906 213.748 40.7403 213.532 40.3949L212.697 39.0606C212.462 38.6846 212.26 38.2806 212.095 37.8552L210.666 34.1836C210.369 33.4184 209.933 32.7405 209.39 32.1982L208.783 31.5911C208.525 31.3331 208.329 30.9981 208.216 30.6204C207.632 28.6747 205.342 28.6042 204.674 30.5112L204.617 30.6741C204.497 31.0178 204.309 31.3222 204.07 31.5616L203.234 32.3972C202.819 32.8119 202.449 33.2871 202.135 33.8117L201.35 35.1185C200.974 35.7454 200.663 36.4245 200.424 37.1407L199.161 40.9264C199.028 41.3264 198.813 41.6807 198.536 41.9574L198.406 42.0877C197.67 42.8236 196.596 42.8236 195.86 42.0877C195.503 41.7312 195.051 41.5358 194.585 41.5358C193.743 41.5358 192.989 40.9058 192.706 39.962L191.468 35.8378C191.392 35.5856 191.268 35.3577 191.106 35.1723C190.285 34.2342 188.917 34.7345 188.681 36.0597L188.264 38.3941C188.019 39.7645 186.605 40.2819 185.755 39.3118C185.634 39.1737 185.534 39.0125 185.458 38.8348L184.916 37.5716C184.353 36.2596 182.859 36.0297 182.035 37.1283C181.96 37.2283 181.893 37.3368 181.835 37.4521L180.515 40.0921C180.247 40.6285 179.815 41.0215 179.31 41.1898C178.66 41.4063 177.962 41.2268 177.446 40.7103L176.903 40.1683C176.602 39.8666 176.353 39.4972 176.17 39.0812L175.499 37.5474C174.908 36.1972 173.393 35.9009 172.471 36.9552C172.284 37.1687 172.135 37.425 172.034 37.7088L171.204 40.0315C170.878 40.9436 170.126 41.5358 169.293 41.5358C168.804 41.5358 168.332 41.7408 167.958 42.1146L167.432 42.6396C165.96 44.1113 163.812 44.1113 162.34 42.6396L161.781 42.0814C161.429 41.729 160.983 41.5358 160.523 41.5358C159.833 41.5358 159.194 41.1035 158.841 40.3979L157.434 37.5854C157.333 37.3824 157.203 37.2011 157.051 37.0492C156.215 36.2132 154.948 36.4683 154.389 37.5854L153.818 38.7268C153.693 38.9766 153.541 39.2052 153.365 39.4065Z" fill="var(--fill-0, #C2FF44)"/>
</g>
</g>
<defs>
<clipPath id="clip0_16649_31809">
<rect width="1062" height="48" fill="white"/>
</clipPath>
</defs>
</svg>
