<svg preserveAspectRatio="none" width="100%" height="100%" overflow="visible" style="display: block;" viewBox="0 0 120 69" fill="none" xmlns="http://www.w3.org/2000/svg">
<path id="3" d="M1.68722 21.9455L0 34.0652V35.9036L1.68336 46.184L2.37294 48.8779C2.63555 49.9039 4.02796 50.0595 4.51056 49.1168C4.54948 49.0408 4.57981 48.9606 4.60098 48.8779L6.05233 43.208C6.1701 42.7479 6.58466 42.4261 7.05959 42.4261C7.44985 42.4261 7.80724 42.2075 7.98508 41.8601L8.38336 41.0822C9.30069 39.2903 11.8616 39.2903 12.7789 41.0822L13.1423 41.7921C13.3415 42.1812 13.7419 42.4261 14.1791 42.4261C14.7416 42.4261 15.2237 42.828 15.3249 43.3813L16.3241 48.8462C16.3431 48.9499 16.3744 49.051 16.4176 49.1473C16.9348 50.302 18.6247 50.1318 18.9013 48.8971L19.6512 45.549C19.6964 45.3468 19.7671 45.1512 19.8615 44.9668L20.5815 43.5604C20.892 42.9539 21.6592 42.7497 22.2302 43.1214C22.4713 43.2784 22.6447 43.5202 22.7161 43.799L24.048 49.0024C24.4772 50.1203 26.0969 49.9981 26.3535 48.8284L26.9106 46.2896C26.926 46.2193 26.9486 46.1509 26.978 46.0853C27.4198 45.099 28.8838 45.3428 28.9821 46.419L29.4575 51.6183C29.5551 52.6858 31.0071 52.9276 31.4453 51.9493C31.4835 51.864 31.5101 51.774 31.5243 51.6816L32.7965 43.3976C32.8824 42.8387 33.3632 42.4261 33.9287 42.4261C34.3586 42.4261 34.7524 42.1853 34.9483 41.8026L34.9731 41.7541C35.4318 40.8582 36.7122 40.8582 37.1709 41.7541L37.4099 42.221C37.4795 42.3569 37.5279 42.5026 37.5536 42.6531L38.9578 50.8813L40.1944 54.9073C40.3316 55.3541 40.5077 55.7879 40.7207 56.2039L41.7383 58.1916C41.8081 58.3279 41.8575 58.4751 41.8845 58.6258C42.1913 60.3382 44.6679 60.3629 44.9319 58.6434C44.957 58.4803 45.0081 58.3223 45.0833 58.1754L45.9051 56.57C46.2418 55.9123 46.4858 55.2112 46.6301 54.4865L48.096 47.1234L49.1948 43.6894C49.2618 43.4799 49.399 43.3 49.5833 43.18C50.143 42.8156 50.8943 43.1234 51.0374 43.7757L52.1395 48.7991C52.1691 48.9337 52.2202 49.0627 52.2909 49.1811C52.8745 50.1583 54.3477 49.9448 54.63 48.8422L55.476 45.5368C55.5258 45.3425 55.597 45.1544 55.6884 44.9759L56.7156 42.9695C56.8863 42.6359 57.2295 42.4261 57.6042 42.4261C58.0864 42.4261 58.4996 42.7706 58.5863 43.2449L59.5876 48.7208C59.6215 48.9065 59.694 49.0829 59.8004 49.2388C60.4674 50.2159 61.9793 49.9228 62.2328 48.7673L62.9804 45.3599C62.9972 45.2833 63.0239 45.2091 63.0596 45.1393C63.4727 44.3323 64.6822 44.5549 64.781 45.456L65.4624 51.6674C65.5716 52.6621 66.9432 52.8396 67.3019 51.9054C67.3235 51.8491 67.3397 51.791 67.3504 51.7316L68.8914 43.1313C68.9645 42.7232 69.3196 42.4261 69.7342 42.4261C70.0356 42.4261 70.3148 42.2676 70.4693 42.0089L71.0917 40.9668C71.445 40.3753 72.311 40.4036 72.625 41.0168C72.9389 41.6301 73.8049 41.6583 74.1582 41.0669L75.0298 39.6076C75.5126 38.6645 76.9122 38.8496 77.1332 39.8858L77.6424 42.2732C77.6641 42.375 77.6938 42.4748 77.7311 42.572L79.1179 46.184L80.5608 51.8208L81.7467 61.666C81.8477 62.504 83.0654 62.4975 83.1575 61.6585L83.1762 61.4882C83.2673 60.6577 84.4787 60.6686 84.5548 61.5007C84.6302 62.3252 85.8268 62.3469 85.9319 61.5256L86.7864 54.8493C86.8042 54.71 86.8424 54.5741 86.8998 54.446L88.4379 51.0124C88.4769 50.9254 88.5048 50.8338 88.5208 50.7398C88.7431 49.437 90.6364 49.5041 90.7658 50.8194L91.1419 54.6392L92.4473 67.3886C92.5101 68.0017 93.1995 68.3312 93.716 67.9949C93.9141 67.8658 94.0473 67.6579 94.0815 67.4239L95.0129 61.0561C95.1449 60.1535 96.4589 60.1891 96.5419 61.0974C96.6253 62.0096 97.9467 62.0398 98.0718 61.1325L98.8175 55.7224C98.8306 55.6269 98.8537 55.533 98.8862 55.4421L99.2335 54.4732C99.6506 53.3092 101.307 53.3377 101.683 54.5154C101.71 54.5977 101.728 54.6826 101.737 54.7685L101.948 56.6911C102.113 58.1961 104.299 58.2052 104.476 56.7017L104.51 56.4187C104.566 55.9396 104.972 55.5787 105.455 55.5787C105.933 55.5787 106.338 55.9345 106.398 56.4095L107.028 61.3262C107.134 62.1562 108.336 62.1562 108.442 61.3262C108.549 60.4921 109.759 60.4979 109.858 61.333L109.899 61.6853C110.004 62.5716 111.288 62.5778 111.401 61.6926L112.304 54.6392L113.507 49.0024L115.204 42.3707C115.315 41.9367 115.82 41.7401 116.195 41.9846C116.544 42.2118 117.014 42.0595 117.163 41.6707L118.229 38.8961C118.287 38.7444 118.357 38.5975 118.439 38.457L120 35.7672V33.9214L118.554 29.4613L117.399 26.4596C117.25 26.0701 116.779 25.9175 116.429 26.1448C116.053 26.3895 115.547 26.1924 115.436 25.7575L113.735 19.1271L112.53 13.4902L111.626 6.43683C111.512 5.5501 110.226 5.55635 110.121 6.44414L110.079 6.79638C109.98 7.63296 108.768 7.63885 108.661 6.80327C108.554 5.97177 107.35 5.97177 107.243 6.80327L106.613 11.7183C106.552 12.1942 106.147 12.5507 105.667 12.5507C105.183 12.5507 104.777 12.1891 104.72 11.7091L104.686 11.426C104.508 9.92002 102.319 9.92915 102.154 11.4365L101.942 13.3604C101.933 13.4467 101.914 13.5319 101.888 13.6145C101.51 14.7937 99.8519 14.8223 99.4334 13.6569L99.0854 12.6878C99.0527 12.5967 99.0296 12.5024 99.0163 12.4065L98.2692 6.99682C98.1437 6.08787 96.82 6.11825 96.7363 7.03201C96.6529 7.94196 95.3367 7.97762 95.2042 7.07352L94.2711 0.706667C94.2367 0.472005 94.103 0.263476 93.9041 0.134248C93.3865 -0.20212 92.6963 0.128017 92.6333 0.742124L91.3254 13.4902L90.9486 17.3103C90.8186 18.6278 88.9223 18.6952 88.6991 17.3902C88.683 17.2958 88.655 17.2039 88.6158 17.1166L87.0751 13.6841C87.0174 13.5555 86.979 13.4192 86.9611 13.2794L86.1049 6.60376C85.9994 5.78102 84.8007 5.80272 84.7251 6.62874C84.6487 7.46229 83.4351 7.4733 83.3437 6.64127L83.325 6.47089C83.2326 5.63041 82.0127 5.62392 81.9114 6.46337L80.7231 16.3086L79.2773 21.9455L77.8878 25.557C77.8503 25.6544 77.8205 25.7547 77.7987 25.8568L77.2888 28.2426C77.0669 29.2805 75.6653 29.4661 75.1809 28.5218L74.3075 27.0624C73.9532 26.4704 73.0862 26.4987 72.7713 27.1126C72.4564 27.7265 71.5893 27.7548 71.2351 27.1628L70.6116 26.121C70.4566 25.862 70.1768 25.7034 69.8749 25.7034C69.4593 25.7034 69.1034 25.4057 69.0299 24.9966L67.4862 16.3981C67.4755 16.3386 67.4592 16.2802 67.4374 16.2237C67.0775 15.2882 65.7038 15.4663 65.5943 16.4626L64.9117 22.6726C64.8125 23.5752 63.6013 23.7984 63.1869 22.9905C63.151 22.9204 63.1242 22.846 63.1073 22.7691L62.3585 19.363C62.1041 18.2059 60.5903 17.912 59.9215 18.8899C59.8145 19.0463 59.7416 19.2233 59.7075 19.4097L58.7048 24.8828C58.6177 25.3581 58.2035 25.7034 57.7202 25.7034C57.3448 25.7034 57.0009 25.4933 56.8296 25.1593L55.8011 23.1544C55.7093 22.9753 55.6377 22.7866 55.5877 22.5917L54.7403 19.2879C54.4571 18.1837 52.9821 17.9696 52.3967 18.9478C52.3257 19.0665 52.2743 19.196 52.2446 19.3311L51.1406 24.3524C50.997 25.0058 50.2447 25.3142 49.6838 24.9497C49.4989 24.8295 49.3611 24.6492 49.2938 24.4392L48.1931 21.006L46.7245 13.6446C46.5798 12.9188 46.335 12.2167 45.9972 11.5583L45.1746 9.95472C45.0991 9.80739 45.0477 9.64887 45.0225 9.48522C44.7575 7.76296 42.2771 7.78773 41.9692 9.50284C41.9421 9.65404 41.8924 9.80177 41.8223 9.93846L40.8033 11.9249C40.5897 12.3413 40.413 12.7757 40.2753 13.223L39.0365 17.2481L37.6297 25.4755C37.6038 25.6265 37.5551 25.7728 37.4852 25.9091L37.2457 26.3759C36.7857 27.2726 35.5041 27.2726 35.0441 26.3759L35.0194 26.3276C34.8228 25.9444 34.4283 25.7034 33.9976 25.7034C33.4308 25.7034 32.9488 25.2899 32.8626 24.7297L31.5881 16.4483C31.5739 16.3556 31.5471 16.2652 31.5087 16.1797C31.0691 15.2002 29.615 15.4427 29.517 16.5119L29.0409 21.7095C28.9422 22.7875 27.476 23.0321 27.0328 22.0445C27.0032 21.9787 26.9805 21.91 26.965 21.8395L26.4071 19.3017C26.1495 18.1301 24.5275 18.0075 24.0968 19.1271L22.7625 24.3292C22.6908 24.6087 22.5167 24.8512 22.2747 25.0085C21.7026 25.3802 20.9345 25.1756 20.6231 24.5686L19.9023 23.1635C19.8075 22.9786 19.7364 22.7823 19.6909 22.5795L18.9398 19.2327C18.6623 17.9963 16.9702 17.8255 16.4512 18.9816C16.4079 19.0782 16.3763 19.1797 16.3572 19.2838L15.3565 24.746C15.2549 25.3006 14.7716 25.7034 14.2078 25.7034C13.7699 25.7034 13.3687 25.9485 13.1688 26.3382L12.8045 27.0484C11.8845 28.8417 9.32119 28.8417 8.40125 27.0484L8.00199 26.2701C7.82353 25.9222 7.4654 25.7034 7.07439 25.7034C6.59838 25.7034 6.18282 25.381 6.06456 24.9199L4.61082 19.252C4.58953 19.169 4.55903 19.0886 4.51991 19.0123C4.0358 18.0686 2.64158 18.2246 2.37807 19.252L1.68722 21.9455Z" fill="var(--fill-0, #E961FF)"/>
</svg>
