<svg preserveAspectRatio="none" width="100%" height="100%" overflow="visible" style="display: block;" viewBox="0 0 17 17" fill="none" xmlns="http://www.w3.org/2000/svg">
<path id="Vector" d="M13.125 0.625003L13.125 3.08976e-06L13.125 0.625003ZM15.625 3.125L16.25 3.125V3.125L15.625 3.125ZM0.625003 3.125L2.61506e-06 3.125L0.625003 3.125ZM3.125 0.625L3.125 1.25L3.125 0.625ZM3.125 15.625L3.125 16.25L3.125 16.25L3.125 15.625ZM0.625 13.125L1.25 13.125L0.625 13.125ZM13.125 15.625L13.125 15L13.125 15L13.125 15.625ZM15.625 13.125L15 13.125L15 13.125L15.625 13.125ZM5.6835 10.2354C5.92782 10.4792 6.32355 10.4788 6.56738 10.2345C6.81122 9.99015 6.81082 9.59442 6.5665 9.35058L6.125 9.79297L5.6835 10.2354ZM4.455 8.1263L4.0135 7.68392C3.89602 7.80116 3.83 7.96033 3.83 8.1263C3.83 8.29228 3.89602 8.45144 4.0135 8.56868L4.455 8.1263ZM6.5665 6.90202C6.81082 6.65818 6.81122 6.26246 6.56738 6.01814C6.32355 5.77381 5.92782 5.77342 5.6835 6.01725L6.125 6.45964L6.5665 6.90202ZM13.125 15.625L13.125 15L3.125 15L3.125 15.625L3.125 16.25L13.125 16.25L13.125 15.625ZM0.625 13.125L1.25 13.125L1.25 3.125L0.625003 3.125L2.61506e-06 3.125L0 13.125L0.625 13.125ZM3.125 0.625L3.125 1.25L13.125 1.25L13.125 0.625003L13.125 3.08976e-06L3.125 0L3.125 0.625ZM15.625 3.125L15 3.125L15 13.125L15.625 13.125L16.25 13.125L16.25 3.125L15.625 3.125ZM13.125 0.625003L13.125 1.25C14.1605 1.25 15 2.08947 15 3.125L15.625 3.125L16.25 3.125C16.25 1.39911 14.8509 3.62302e-06 13.125 3.08976e-06L13.125 0.625003ZM0.625003 3.125L1.25 3.125C1.25 2.08947 2.08947 1.25 3.125 1.25L3.125 0.625L3.125 0C1.39911 -5.33258e-07 3.0664e-06 1.39911 2.61506e-06 3.125L0.625003 3.125ZM3.125 15.625L3.125 15C2.08947 15 1.25 14.1605 1.25 13.125L0.625 13.125L0 13.125C-4.51331e-07 14.8509 1.39911 16.25 3.125 16.25L3.125 15.625ZM13.125 15.625L13.125 16.25C14.8509 16.25 16.25 14.8509 16.25 13.125L15.625 13.125L15 13.125C15 14.1605 14.1605 15 13.125 15L13.125 15.625ZM6.125 9.79297L6.5665 9.35058L4.8965 7.68392L4.455 8.1263L4.0135 8.56868L5.6835 10.2354L6.125 9.79297ZM4.455 8.1263L4.8965 8.56868L6.5665 6.90202L6.125 6.45964L5.6835 6.01725L4.0135 7.68392L4.455 8.1263ZM10.125 0.625001L9.50002 0.625001L9.50002 15.625L10.125 15.625L10.75 15.625L10.75 0.625001L10.125 0.625001Z" fill="var(--stroke-0, #888888)"/>
</svg>
