<svg preserveAspectRatio="none" width="100%" height="100%" overflow="visible" style="display: block;" viewBox="0 0 20 21" fill="none" xmlns="http://www.w3.org/2000/svg">
<path id="Icon" d="M10.7324 1.24715C10.3811 0.9739 10.2054 0.837274 10.0114 0.784755C9.84027 0.738415 9.65988 0.738415 9.48873 0.784755C9.29476 0.837274 9.1191 0.9739 8.76777 1.24715L1.98547 6.52228C1.5321 6.8749 1.30541 7.05121 1.1421 7.27201C0.997441 7.4676 0.889677 7.68794 0.824103 7.92221C0.750075 8.18667 0.750075 8.47385 0.750075 9.04821V16.2831C0.750075 17.4032 0.750075 17.9633 0.968062 18.3911C1.15981 18.7674 1.46577 19.0734 1.84209 19.2652C2.26992 19.4831 2.82997 19.4831 3.95008 19.4831H5.95007C6.2301 19.4831 6.37011 19.4831 6.47707 19.4286C6.57115 19.3807 6.64764 19.3042 6.69558 19.2101C6.75008 19.1032 6.75008 18.9632 6.75008 18.6831V12.0831C6.75008 11.5231 6.75008 11.2431 6.85907 11.0291C6.95494 10.841 7.10792 10.688 7.29608 10.5921C7.51 10.4831 7.79002 10.4831 8.35008 10.4831H11.1501C11.7101 10.4831 11.9902 10.4831 12.2041 10.5921C12.3922 10.688 12.5452 10.841 12.6411 11.0291C12.7501 11.2431 12.7501 11.5231 12.7501 12.0831V18.6831C12.7501 18.9632 12.7501 19.1032 12.8046 19.2101C12.8525 19.3042 12.929 19.3807 13.0231 19.4286C13.13 19.4831 13.27 19.4831 13.5501 19.4831H15.5501C16.6702 19.4831 17.2302 19.4831 17.6581 19.2652C18.0344 19.0734 18.3403 18.7674 18.5321 18.3911C18.7501 17.9633 18.7501 17.4032 18.7501 16.2831V9.04821C18.7501 8.47385 18.7501 8.18667 18.676 7.92221C18.6105 7.68794 18.5027 7.4676 18.358 7.27201C18.1947 7.05121 17.9681 6.8749 17.5147 6.52228L10.7324 1.24715Z" stroke="var(--stroke-0, #FAFAFA)" stroke-width="1.5" stroke-linecap="round" stroke-linejoin="round"/>
</svg>
