<svg preserveAspectRatio="none" width="100%" height="100%" overflow="visible" style="display: block;" viewBox="0 0 17 19" fill="none" xmlns="http://www.w3.org/2000/svg">
<path id="Icon" d="M15.75 7.41667H0.750001M11.5833 0.75V4.08333M4.91667 0.75V4.08333M4.75 17.4167H11.75C13.1501 17.4167 13.8502 17.4167 14.385 17.1442C14.8554 16.9045 15.2378 16.522 15.4775 16.0516C15.75 15.5169 15.75 14.8168 15.75 13.4167V6.41667C15.75 5.01654 15.75 4.31647 15.4775 3.78169C15.2378 3.31129 14.8554 2.92883 14.385 2.68915C13.8502 2.41667 13.1501 2.41667 11.75 2.41667H4.75C3.34987 2.41667 2.6498 2.41667 2.11502 2.68915C1.64462 2.92883 1.26217 3.31129 1.02248 3.78169C0.750001 4.31647 0.750001 5.01654 0.750001 6.41667V13.4167C0.750001 14.8168 0.750001 15.5169 1.02248 16.0516C1.26217 16.522 1.64462 16.9045 2.11502 17.1442C2.6498 17.4167 3.34987 17.4167 4.75 17.4167Z" stroke="var(--stroke-0, #FAFAFA)" stroke-width="1.5" stroke-linecap="round" stroke-linejoin="round"/>
</svg>
