<svg preserveAspectRatio="none" width="100%" height="100%" overflow="visible" style="display: block;" viewBox="0 0 17 17" fill="none" xmlns="http://www.w3.org/2000/svg">
<path id="Vector" d="M13.125 0.625003L13.125 3.08976e-06L13.125 0.625003ZM15.625 3.125L16.25 3.125V3.125L15.625 3.125ZM0.625003 3.125L2.61506e-06 3.125L0.625003 3.125ZM3.125 0.625L3.125 1.25L3.125 0.625ZM3.125 15.625L3.125 16.25L3.125 16.25L3.125 15.625ZM0.625 13.125L1.25 13.125L0.625 13.125ZM13.125 15.625L13.125 15L13.125 15L13.125 15.625ZM15.625 13.125L15 13.125L15 13.125L15.625 13.125ZM5.68308 10.2349C5.92716 10.479 6.32289 10.479 6.56696 10.2349C6.81104 9.99083 6.81104 9.5951 6.56696 9.35103L6.12502 9.79297L5.68308 10.2349ZM4.45835 8.1263L4.01641 7.68436C3.8992 7.80157 3.83335 7.96054 3.83335 8.1263C3.83335 8.29206 3.8992 8.45103 4.01641 8.56824L4.45835 8.1263ZM6.56696 6.90158C6.81104 6.6575 6.81104 6.26177 6.56696 6.01769C6.32289 5.77362 5.92716 5.77362 5.68308 6.01769L6.12502 6.45964L6.56696 6.90158ZM13.125 15.625L13.125 15L3.125 15L3.125 15.625L3.125 16.25L13.125 16.25L13.125 15.625ZM0.625 13.125L1.25 13.125L1.25 3.125L0.625003 3.125L2.61506e-06 3.125L0 13.125L0.625 13.125ZM3.125 0.625L3.125 1.25L13.125 1.25L13.125 0.625003L13.125 3.08976e-06L3.125 0L3.125 0.625ZM15.625 3.125L15 3.125L15 13.125L15.625 13.125L16.25 13.125L16.25 3.125L15.625 3.125ZM13.125 0.625003L13.125 1.25C14.1605 1.25 15 2.08947 15 3.125L15.625 3.125L16.25 3.125C16.25 1.39911 14.8509 3.62302e-06 13.125 3.08976e-06L13.125 0.625003ZM0.625003 3.125L1.25 3.125C1.25 2.08947 2.08947 1.25 3.125 1.25L3.125 0.625L3.125 0C1.39911 -5.33258e-07 3.0664e-06 1.39911 2.61506e-06 3.125L0.625003 3.125ZM3.125 15.625L3.125 15C2.08947 15 1.25 14.1605 1.25 13.125L0.625 13.125L0 13.125C-4.51331e-07 14.8509 1.39911 16.25 3.125 16.25L3.125 15.625ZM13.125 15.625L13.125 16.25C14.8509 16.25 16.25 14.8509 16.25 13.125L15.625 13.125L15 13.125C15 14.1605 14.1605 15 13.125 15L13.125 15.625ZM6.12502 9.79297L6.56696 9.35103L4.9003 7.68436L4.45835 8.1263L4.01641 8.56824L5.68308 10.2349L6.12502 9.79297ZM4.45835 8.1263L4.9003 8.56824L6.56696 6.90158L6.12502 6.45964L5.68308 6.01769L4.01641 7.68436L4.45835 8.1263ZM10.125 0.625002L9.50002 0.625001L9.50002 15.625L10.125 15.625L10.75 15.625L10.75 0.625002L10.125 0.625002Z" fill="var(--stroke-0, #888888)"/>
</svg>
