<svg preserveAspectRatio="none" width="100%" height="100%" overflow="visible" style="display: block;" viewBox="0 0 22 20" fill="none" xmlns="http://www.w3.org/2000/svg">
<path id="Icon" d="M11.75 4.75012L10.6345 2.51903C10.3134 1.87692 10.1529 1.55585 9.91337 1.32128C9.70158 1.11385 9.44633 0.95609 9.16608 0.859426C8.84917 0.750116 8.49021 0.750116 7.77229 0.750116H3.95C2.8299 0.750116 2.26984 0.750116 1.84202 0.968103C1.4657 1.15985 1.15973 1.46581 0.967988 1.84214C0.750001 2.26996 0.750001 2.83001 0.750001 3.95012V4.75012M0.750001 4.75012H15.95C17.6302 4.75012 18.4702 4.75012 19.112 5.0771C19.6765 5.36472 20.1354 5.82366 20.423 6.38814C20.75 7.02988 20.75 7.86996 20.75 9.55012V13.9501C20.75 15.6303 20.75 16.4704 20.423 17.1121C20.1354 17.6766 19.6765 18.1355 19.112 18.4231C18.4702 18.7501 17.6302 18.7501 15.95 18.7501H5.55C3.86984 18.7501 3.02976 18.7501 2.38803 18.4231C1.82354 18.1355 1.3646 17.6766 1.07698 17.1121C0.750001 16.4704 0.750001 15.6303 0.750001 13.9501V4.75012Z" stroke="var(--stroke-0, #FAFAFA)" stroke-width="1.5" stroke-linecap="round" stroke-linejoin="round"/>
</svg>
