<svg preserveAspectRatio="none" width="100%" height="100%" overflow="visible" style="display: block;" viewBox="0 0 55 32" fill="none" xmlns="http://www.w3.org/2000/svg">
<path id="1" d="M1.19627 13.2343L0 15.753V17.5307L1.28123 19.161C1.51724 19.4613 1.77446 19.7443 2.0509 20.0079L2.87681 20.7953C3.26126 21.1618 3.60825 21.5657 3.91264 22.001L5.07747 23.6668C5.20788 23.8533 5.31028 24.0579 5.38141 24.2741L6.7762 28.5128C7.06026 29.376 8.28706 29.3596 8.54794 28.4891L8.5826 28.3734C8.84395 27.5013 10.0887 27.5302 10.3093 28.4135C10.5247 29.2763 11.73 29.3315 12.0235 28.4921L12.9925 25.7206C13.1003 25.4121 13.2913 25.1395 13.5443 24.9327L15.0235 23.724C15.1922 23.5861 15.3277 23.4119 15.4197 23.2144C15.9908 21.9893 17.7802 22.1449 18.1313 23.4502L18.6151 25.2489L20.1069 30.5827C20.2897 31.2362 20.9562 31.6285 21.6164 31.4712C22.0159 31.376 22.3441 31.0925 22.4965 30.7111L23.5385 28.1036C23.896 27.2087 25.1905 27.2964 25.424 28.2314C25.6599 29.1762 26.9735 29.2521 27.3167 28.3407L28.1868 26.0296C28.273 25.8007 28.4059 25.5922 28.577 25.4174L29.0978 24.8855C29.8216 24.1462 31.0217 24.18 31.7026 24.959C31.8696 25.1501 31.9937 25.3746 32.0665 25.6177L32.3889 26.6935C32.8123 28.1063 34.8103 28.1122 35.2633 26.7086C35.46 26.099 36.0286 25.6825 36.6692 25.6825C37.2966 25.6825 37.8555 26.0792 38.0626 26.6715L38.6443 28.3353C38.9394 29.1792 40.1327 29.1792 40.4277 28.3353C40.7266 27.4807 41.9403 27.4953 42.2184 28.357L42.2649 28.5009C42.5579 29.4089 43.837 29.4244 44.1519 28.5237L45.2306 25.4385C45.2747 25.3124 45.3308 25.1908 45.398 25.0753L46.8129 22.6473L48.6428 20.0304C49.0023 19.5162 49.6395 19.274 50.2498 19.4195C50.7536 19.5396 51.284 19.3963 51.6589 19.0389L52.2174 18.5065C52.6471 18.0968 53.1905 17.8264 53.7764 17.7307L55 17.5307V15.753L53.1771 13.6283L51.9571 12.4674C51.5811 12.1097 51.0497 11.9663 50.5448 12.0864C49.9331 12.2319 49.2945 11.9893 48.9337 11.4744L47.1009 8.85864L45.6835 6.43108C45.6159 6.31531 45.5595 6.19332 45.5152 6.06679L44.4345 2.98211C44.1186 2.08024 42.8378 2.09574 42.5437 3.00499L42.4972 3.14885C42.2182 4.01169 41.0027 4.0264 40.7029 3.17056C40.4069 2.32561 39.2119 2.32561 38.9159 3.17056L38.3336 4.83269C38.1257 5.42612 37.5656 5.82341 36.9368 5.82341C36.2948 5.82341 35.725 5.40635 35.5275 4.79552C35.073 3.39031 33.073 3.39687 32.6482 4.81134L32.3252 5.88706C32.252 6.13086 32.1273 6.35611 31.9596 6.5476C31.2773 7.3267 30.0763 7.36062 29.351 6.62128L28.8289 6.089C28.6571 5.91386 28.5237 5.70487 28.4371 5.47534L27.5653 3.16479C27.221 2.25224 25.9058 2.32833 25.669 3.27449C25.4347 4.21074 24.1386 4.29877 23.7799 3.40279L22.7362 0.796036C22.5832 0.413863 22.254 0.129898 21.8535 0.0346324C21.192 -0.122712 20.5243 0.270302 20.3408 0.925003L18.8464 6.25702L18.3617 8.05558C18.0095 9.36265 16.2179 9.5187 15.645 8.29221C15.5525 8.09425 15.4166 7.91972 15.2472 7.78163L13.7661 6.57369C13.5122 6.36661 13.3205 6.09337 13.2121 5.78415L12.2415 3.01355C11.947 2.17301 10.7402 2.22842 10.524 3.09241C10.3026 3.97699 9.05611 4.00598 8.79387 3.13266L8.75909 3.01684C8.49732 2.1451 7.26884 2.12864 6.98382 2.99306L5.58652 7.23084C5.51503 7.44766 5.41214 7.65284 5.28113 7.83981L4.11431 9.50512C3.80941 9.94026 3.46193 10.3439 3.077 10.7102L2.90807 10.8709C2.19739 11.5471 1.61715 12.3483 1.19627 13.2343Z" fill="var(--fill-0, #E961FF)"/>
</svg>
