<svg preserveAspectRatio="none" width="100%" height="100%" overflow="visible" style="display: block;" viewBox="0 0 304 67" fill="none" xmlns="http://www.w3.org/2000/svg">
<g id="2">
<path d="M2.03387 22.0233L0 33.2357V34.9892L2.03681 44.7499C2.09528 45.0301 2.16748 45.3004 2.25256 45.5576L2.88262 47.4624C3.43956 49.1462 4.70417 49.5305 5.53836 48.2695C5.68971 48.0407 5.8186 47.7679 5.91964 47.4624L7.32474 43.2144C7.67624 42.1517 8.3134 41.5004 9.00146 41.5004C9.46091 41.5004 9.90561 41.209 10.2572 40.6776L10.8143 39.8354C12.2829 37.6155 14.4274 37.6155 15.896 39.8354L16.4199 40.6273C16.7929 41.1912 17.2648 41.5004 17.7523 41.5004C18.5828 41.5004 19.3329 42.3923 19.6574 43.7658L20.4869 47.277C20.5878 47.7038 20.7357 48.0896 20.9218 48.411C21.8421 50.0011 23.3548 49.5549 23.9438 47.5196L24.6145 45.2023C24.7958 44.5758 25.0439 44.0194 25.3447 43.5647L25.8864 42.7459C26.4018 41.9667 27.0985 41.696 27.7471 42.0228C28.2506 42.2765 28.6805 42.8686 28.9476 43.6762L30.2663 47.6631C30.3237 47.8366 30.3903 47.9998 30.465 48.1504C31.2869 49.8069 32.7787 49.4607 33.3393 47.4834L33.8804 45.5749C33.9562 45.3075 34.0564 45.0648 34.1768 44.8568C35.0235 43.394 36.4353 44.1728 36.6792 46.2373L37.0961 49.7663C37.3319 51.7629 38.6973 52.5161 39.5162 51.1014C39.6778 50.8222 39.8011 50.4793 39.8764 50.0999L41.1128 43.8701C41.3948 42.4492 42.1468 41.5004 42.9865 41.5004C43.4513 41.5004 43.9028 41.2056 44.2585 40.6679C44.9928 39.5579 46.0651 39.5579 46.7994 40.6679L46.9301 40.8655C47.2058 41.2822 47.4195 41.8154 47.5523 42.4172L48.8127 48.1334C49.0509 49.2133 49.361 50.2373 49.7364 51.183L50.5193 53.1555C50.8334 53.947 51.2019 54.6641 51.6159 55.2899L52.4503 56.5513C52.689 56.9121 52.8761 57.3704 52.9959 57.8878L53.0526 58.1328C53.7182 61.0076 56.005 60.9014 56.5871 57.9686C56.6999 57.4 56.8949 56.8955 57.152 56.5069L57.7585 55.59C58.2999 54.7717 58.7344 53.7493 59.0313 52.5954L60.4573 47.0524C60.6221 46.4116 60.8233 45.803 61.0576 45.2363L61.891 43.2207C62.1061 42.7004 62.4113 42.3231 62.7587 42.1481C63.5061 41.7714 64.2976 42.3948 64.6499 43.6375L65.6496 47.1636C65.7913 47.6633 65.9972 48.095 66.2504 48.423C67.1851 49.6341 68.4967 49.1444 69.0855 47.3645L69.8297 45.1144C70.0183 44.5444 70.2587 44.0354 70.5411 43.6085L71.4406 42.2488C71.7604 41.7654 72.1648 41.5004 72.5827 41.5004C73.2946 41.5004 73.9375 42.2649 74.2156 43.4422L75.0254 46.8696C75.1876 47.5561 75.4626 48.1372 75.8136 48.5351C76.8277 49.6848 78.1723 49.0204 78.7166 47.1008L79.4019 44.6835C79.4824 44.3996 79.5938 44.1477 79.7295 43.9426C80.477 42.8125 81.625 43.4754 81.8661 45.1763L82.5462 49.9742C82.8103 51.8371 84.1256 52.4137 84.8376 50.9786C84.9367 50.7788 85.0165 50.5507 85.0738 50.3036L86.7193 43.1966C86.9571 42.1696 87.5154 41.5004 88.1346 41.5004C88.4564 41.5004 88.7701 41.3184 89.0312 40.9801L89.7891 39.9981C90.3566 39.2628 91.1296 39.3147 91.6649 40.1239C92.2002 40.9332 92.9733 40.985 93.5407 40.2498L94.7002 38.7475C95.6272 37.3462 97.0399 37.8759 97.5775 39.8264L97.8936 40.9731C97.9901 41.323 98.1123 41.6481 98.2569 41.9397L99.3482 44.1392C99.6887 44.8254 99.9917 45.5689 100.253 46.3592L101.524 50.2007C101.628 50.5168 101.709 50.8562 101.764 51.2102L103.183 60.3239C103.436 61.9521 104.726 61.9251 104.959 60.2867L104.99 60.0659C105.222 58.4274 106.527 58.4746 106.722 60.1285C106.913 61.7492 108.182 61.84 108.445 60.2519L109.439 54.2378C109.527 53.7082 109.689 53.2285 109.911 52.8455L111.473 50.1481C111.621 49.8918 111.737 49.5813 111.813 49.2376C112.333 46.8788 114.236 47.14 114.551 49.6134L115.036 53.4298L116.567 64.9996C116.726 66.1973 117.407 66.9176 118.067 66.5852C118.45 66.3922 118.755 65.8722 118.883 65.1953L119.952 59.5385C120.275 57.8321 121.644 57.9777 121.852 59.7406C122.063 61.5197 123.45 61.6451 123.758 59.9128L124.645 54.933C124.714 54.5462 124.824 54.1869 124.968 53.8747L125.465 52.8022C126.183 51.2522 127.519 51.3183 128.188 52.9368C128.322 53.2623 128.42 53.6319 128.476 54.0248L128.799 56.3014C129.183 59.0095 131.317 59.0446 131.728 56.3496L131.75 56.2083C131.918 55.1093 132.474 54.3474 133.108 54.3474C133.731 54.3474 134.28 55.0835 134.458 56.1569L135.087 59.9616C135.351 61.557 136.609 61.557 136.872 59.9616C137.139 58.3485 138.415 58.3727 138.663 59.9955L138.711 60.3121C138.973 62.0258 140.321 62.0514 140.603 60.348L141.696 53.7368C141.73 53.5325 141.773 53.3337 141.826 53.1428L143.264 47.9239L145.16 42.1928C145.474 41.2429 146.104 40.7901 146.696 41.0885C147.197 41.3406 147.733 41.0586 148.079 40.3618L148.198 40.1222C148.819 38.8703 149.894 38.7958 150.567 39.958L151.46 41.5004V25.1663L150.808 26.479C150.183 27.736 149.088 27.7359 148.463 26.479L148.377 26.3059C148.03 25.6084 147.493 25.3261 146.992 25.5782C146.398 25.8767 145.767 25.4232 145.451 24.4716L143.553 18.7428L142.111 13.5249C142.059 13.3333 142.015 13.1339 141.981 12.9289L140.886 6.31862C140.603 4.61273 139.253 4.63839 138.991 6.35465L138.942 6.67106C138.694 8.29627 137.416 8.32057 137.148 6.70517C136.883 5.10749 135.624 5.10749 135.359 6.70518L134.729 10.5066C134.551 11.582 134 12.3193 133.376 12.3193C132.74 12.3193 132.183 11.5562 132.014 10.455L131.993 10.3147C131.58 7.6163 129.443 7.65152 129.058 10.363L128.735 12.6399C128.679 13.0341 128.58 13.4049 128.445 13.7313C127.774 15.3504 126.437 15.4165 125.718 13.8662L125.22 12.7931C125.075 12.4802 124.965 12.1199 124.896 11.732L124.007 6.75324C123.697 5.01862 122.309 5.1444 122.098 6.92615C121.889 8.69164 120.518 8.83769 120.194 7.12892L119.123 1.47388C118.994 0.795475 118.688 0.274504 118.304 0.0813511C117.643 -0.251089 116.961 0.470559 116.801 1.67035L115.268 13.237L114.782 17.0533C114.466 19.5302 112.56 19.7922 112.038 17.4305C111.962 17.0859 111.845 16.7747 111.697 16.518L110.133 13.8223C109.911 13.4387 109.747 12.9578 109.659 12.4268L108.663 6.4144C108.399 4.82398 107.129 4.91513 106.937 6.53824C106.741 8.19469 105.434 8.24201 105.201 6.60111L105.17 6.38006C104.937 4.73923 103.645 4.71214 103.391 6.34274L101.97 15.4548C101.914 15.81 101.833 16.1505 101.728 16.4674L100.455 20.3074C100.193 21.0978 99.8895 21.8412 99.5484 22.5273L98.4552 24.7263C98.31 25.0183 98.1873 25.3441 98.0905 25.6949L97.7749 26.8374C97.2354 28.7907 95.8205 29.3216 94.8909 27.9193L93.729 26.4168C93.1602 25.6813 92.3862 25.7332 91.8496 26.5428C91.313 27.3524 90.5389 27.4043 89.9702 26.6689L89.2106 25.6867C88.949 25.3484 88.6348 25.1663 88.3124 25.1663C87.6918 25.1663 87.132 24.496 86.8932 23.4667L85.2455 16.3643C85.188 16.1165 85.1078 15.8876 85.0082 15.6874C84.2943 14.2513 82.9773 14.8293 82.7123 16.695L82.0315 21.4874C81.7895 23.191 80.64 23.8554 79.8905 22.7248C79.7543 22.5193 79.6425 22.2668 79.5616 21.9821L78.8758 19.568C78.3299 17.6462 76.9835 16.9809 75.9673 18.1306C75.615 18.5292 75.3389 19.1117 75.176 19.8L74.3662 23.2207C74.0869 24.4005 73.4423 25.1663 72.7288 25.1663C72.3102 25.1663 71.905 24.9013 71.5845 24.4177L70.6839 23.059C70.4006 22.6317 70.1593 22.1218 69.97 21.5508L69.2253 19.3036C68.6348 17.5219 67.3215 17.0315 66.3847 18.2428C66.1306 18.5714 65.9238 19.0042 65.7815 19.5052L64.7811 23.0266C64.4275 24.2712 63.6346 24.8955 62.8856 24.5188C62.5373 24.3437 62.2313 23.966 62.0154 23.4448L61.1813 21.4316C60.9462 20.8641 60.7443 20.2546 60.5789 19.6127L59.1508 14.0726C58.8531 12.9179 58.4176 11.8951 57.8752 11.0768L57.2679 10.1607C57.01 9.77153 56.8142 9.26601 56.7009 8.69605C56.1171 5.76025 53.828 5.65375 53.1604 8.53133L53.1033 8.77709C52.983 9.29573 52.7952 9.75497 52.5557 10.1163L51.7199 11.3771C51.3052 12.0028 50.9361 12.7199 50.6213 13.5115L49.8371 15.4832C49.4608 16.4293 49.1499 17.4539 48.9111 18.5346L47.6489 24.2468C47.5156 24.8504 47.3009 25.385 47.0241 25.8025L46.8938 25.9991C46.1578 27.1094 45.0842 27.1094 44.3482 25.9991C43.9916 25.4612 43.5394 25.1663 43.0738 25.1663C42.2321 25.1663 41.4782 24.2158 41.195 22.7917L39.9575 16.5686C39.8818 16.188 39.7579 15.8442 39.5956 15.5644C38.7746 14.1489 37.4075 14.9039 37.1708 16.9035L36.7539 20.4258C36.5091 22.4936 35.0954 23.2744 34.2464 21.8106C34.1255 21.6022 34.0249 21.3589 33.9488 21.0908L33.4073 19.1847C32.8449 17.205 31.3512 16.8581 30.5271 18.5158C30.452 18.6668 30.3852 18.8304 30.3275 19.0044L29.0072 22.9879C28.739 23.7973 28.3078 24.3903 27.8028 24.6442C27.1531 24.9709 26.4555 24.7002 25.9389 23.9207L25.3968 23.1029C25.095 22.6477 24.846 22.0903 24.664 21.4625L23.9928 19.1483C23.402 17.1109 21.8876 16.6639 20.965 18.2546C20.7782 18.5767 20.6296 18.9636 20.5282 19.3917L19.6985 22.8965C19.3727 24.2728 18.6207 25.1663 17.7882 25.1663C17.2999 25.1663 16.8272 25.4756 16.4533 26.0398L15.9282 26.8319C14.4562 29.0526 12.309 29.0526 10.837 26.8319L10.2787 25.9896C9.92618 25.4578 9.48064 25.1663 9.02036 25.1663C8.33069 25.1663 7.69195 24.5141 7.3391 23.4494L5.93254 19.2055C5.83102 18.8992 5.7016 18.6258 5.54965 18.3966C4.71345 17.1351 3.44726 17.52 2.88862 19.2055L2.28755 21.0191C2.18255 21.3359 2.09747 21.6727 2.03387 22.0233Z" fill="var(--fill-0, #E961FF)"/>
<path d="M153.196 21.9564L151.319 25.1663L151.318 41.5004L153.192 44.7111C153.37 45.0163 153.524 45.3632 153.651 45.7426L154.223 47.4576C154.786 49.1484 156.057 49.5352 156.9 48.2722C157.053 48.0416 157.184 47.7663 157.287 47.4576L158.698 43.226C159.055 42.1556 159.699 41.5004 160.393 41.5004C160.856 41.5004 161.304 41.2086 161.659 40.6759L162.221 39.8333C163.704 37.6104 165.859 37.6104 167.341 39.8333L167.87 40.6261C168.247 41.191 168.722 41.5004 169.212 41.5004C170.051 41.5004 170.809 42.3987 171.139 43.7837L171.969 47.2692C172.072 47.7012 172.222 48.0911 172.411 48.4155C173.341 50.0081 174.86 49.5589 175.457 47.5152L176.129 45.21C176.313 44.5784 176.565 44.0182 176.87 43.5612L177.413 42.7465C177.933 41.9663 178.634 41.6953 179.287 42.0216C179.796 42.2761 180.231 42.8722 180.503 43.6867L181.828 47.6602C181.886 47.8356 181.954 48.0005 182.03 48.1526C182.861 49.8136 184.36 49.4647 184.928 47.4781L185.471 45.5792C185.548 45.309 185.65 45.0639 185.772 44.8542C186.628 43.3875 188.048 44.174 188.295 46.2519L188.712 49.754C188.951 51.7628 190.324 52.523 191.151 51.1051C191.315 50.8235 191.441 50.4769 191.518 50.0929L192.759 43.8899C193.046 42.4564 193.805 41.5004 194.653 41.5004C195.121 41.5004 195.575 41.2054 195.935 40.6668C196.676 39.5554 197.753 39.5554 198.494 40.6668L198.623 40.8603C198.904 41.2804 199.121 41.8192 199.257 42.4281L200.524 48.1282C200.764 49.2115 201.078 50.2381 201.457 51.1853L202.245 53.1545C202.562 53.9466 202.933 54.6637 203.35 55.2888L204.19 56.548C204.432 56.9109 204.621 57.373 204.743 57.8953L204.801 58.1434C205.475 61.0292 207.771 60.9219 208.36 57.9771C208.475 57.403 208.673 56.8943 208.934 56.5033L209.543 55.5896C210.089 54.7715 210.527 53.7475 210.827 52.5903L212.262 47.0588C212.429 46.4138 212.633 45.8015 212.87 45.2319L213.706 43.2258C213.925 42.7021 214.233 42.3229 214.584 42.1476C215.338 41.7708 216.135 42.3977 216.493 43.6482L217.495 47.1554C217.639 47.6604 217.849 48.0962 218.106 48.4265C219.049 49.6386 220.367 49.1462 220.963 47.3591L221.709 45.1208C221.901 44.5466 222.144 44.0343 222.43 43.6053L223.334 42.2498C223.657 41.7656 224.065 41.5004 224.485 41.5004C225.204 41.5004 225.853 42.2703 226.136 43.4575L226.946 46.8581C227.111 47.552 227.391 48.1385 227.747 48.539C228.77 49.6892 230.121 49.021 230.672 47.0927L231.359 44.688C231.441 44.4011 231.555 44.1469 231.692 43.9403C232.448 42.8078 233.602 43.4767 233.846 45.1884L234.529 49.9645C234.797 51.8386 236.119 52.4208 236.839 50.9816C236.94 50.7799 237.021 50.5491 237.079 50.299L238.734 43.2102C238.976 42.1744 239.54 41.5004 240.165 41.5004C240.489 41.5004 240.804 41.3184 241.068 40.9799L241.832 39.9973C242.405 39.2613 243.182 39.3133 243.723 40.1239C244.263 40.9345 245.04 40.9866 245.613 40.2505L246.782 38.7475C247.719 37.3422 249.141 37.8763 249.686 39.8384L250 40.9681C250.098 41.3214 250.222 41.6492 250.369 41.9429L251.468 44.1404C251.811 44.8259 252.117 45.569 252.38 46.3596L253.659 50.1952C253.766 50.5149 253.848 50.8585 253.904 51.2172L255.333 60.3244C255.59 61.9622 256.888 61.9348 257.123 60.2867L257.155 60.0649C257.391 58.4165 258.703 58.4643 258.901 60.1285C259.095 61.7589 260.371 61.8509 260.637 60.2537L261.639 54.2466C261.728 53.7113 261.893 53.2269 262.118 52.8412L263.688 50.1509C263.839 49.8928 263.957 49.5795 264.034 49.2322C264.561 46.8618 266.474 47.1262 266.793 49.6134L267.283 53.4298L268.824 64.9867C268.985 66.1929 269.671 66.9184 270.336 66.5859C270.723 66.3924 271.032 65.8686 271.162 65.1856L272.239 59.5356C272.566 57.8199 273.942 57.9674 274.154 59.7406C274.367 61.5303 275.761 61.6573 276.074 59.9155L276.967 54.9399C277.038 54.5486 277.149 54.1854 277.296 53.8704L277.798 52.7955C278.522 51.2442 279.862 51.3106 280.538 52.9312C280.675 53.2604 280.775 53.6347 280.832 54.033L281.157 56.3106C281.546 59.0324 283.691 59.0679 284.107 56.3594L284.129 56.2223C284.299 55.1146 284.86 54.3474 285.5 54.3474C286.128 54.3474 286.682 55.0884 286.863 56.1701L287.495 59.9616C287.762 61.5661 289.027 61.5661 289.295 59.9616C289.565 58.3391 290.849 58.3636 291.1 59.9961L291.148 60.3121C291.414 62.0359 292.769 62.0618 293.055 60.3485L294.156 53.741C294.191 53.5339 294.235 53.3325 294.289 53.1391L295.738 47.9239L297.646 42.2021C297.965 41.2456 298.6 40.7899 299.198 41.0887C299.703 41.3409 300.243 41.0578 300.593 40.358L301.614 38.3175C301.776 37.9931 301.955 37.6971 302.148 37.4334L304 34.908V33.3339L302.16 28.8369L300.894 26.3097C300.543 25.6092 300.001 25.3258 299.496 25.578C298.896 25.8769 298.26 25.4205 297.94 24.4623L296.029 18.7428L294.577 13.5286C294.523 13.3345 294.478 13.1325 294.444 12.9247L293.34 6.3181C293.053 4.60242 291.696 4.6284 291.43 6.35466L291.381 6.67054C291.129 8.30538 289.844 8.32998 289.572 6.70517C289.304 5.0983 288.037 5.09831 287.769 6.70517L287.136 10.4933C286.955 11.5771 286.4 12.3193 285.77 12.3193C285.129 12.3193 284.566 11.5509 284.395 10.4409L284.374 10.3048C283.956 7.593 281.809 7.62864 281.419 10.3539L281.093 12.6316C281.035 13.0313 280.935 13.4068 280.797 13.7369C280.12 15.3581 278.779 15.4245 278.054 13.8729L277.55 12.7974C277.403 12.4817 277.291 12.1175 277.22 11.7251L276.325 6.7506C276.011 5.00639 274.615 5.13376 274.401 6.92609C274.189 8.70196 272.81 8.84982 272.482 7.13186L271.404 1.48356C271.273 0.799062 270.963 0.27425 270.575 0.0806465C269.909 -0.251805 269.222 0.474987 269.06 1.68327L267.516 13.237L267.026 17.0533C266.706 19.544 264.79 19.8091 264.261 17.4359C264.184 17.0878 264.065 16.7737 263.914 16.5152L262.342 13.8266C262.116 13.4402 261.95 12.9547 261.861 12.4179L260.857 6.41259C260.59 4.81305 259.312 4.90537 259.118 6.5383C258.919 8.20502 257.605 8.25298 257.368 6.60214L257.337 6.38004C257.1 4.72944 255.801 4.702 255.543 6.34217L254.111 15.4478C254.055 15.8076 253.972 16.1523 253.865 16.4729L252.584 20.3071C252.32 21.0977 252.014 21.8408 251.67 22.526L250.569 24.723C250.422 25.0172 250.297 25.3458 250.199 25.6999L249.885 26.8253C249.338 28.7903 247.914 29.3255 246.975 27.9193L245.803 26.416C245.229 25.6798 244.451 25.7319 243.909 26.5428C243.367 27.3537 242.589 27.4058 242.015 26.6696L241.249 25.6869C240.985 25.3483 240.668 25.1663 240.344 25.1663C239.718 25.1663 239.152 24.4912 238.909 23.4532L237.252 16.3689C237.194 16.118 237.112 15.8866 237.011 15.6844C236.289 14.2442 234.965 14.8278 234.696 16.7047L234.013 21.4753C233.768 23.1897 232.612 23.8601 231.855 22.7271C231.716 22.5201 231.603 22.2652 231.52 21.9776L230.833 19.5761C230.28 17.6457 228.927 16.9765 227.902 18.1268C227.544 18.5279 227.264 19.1157 227.098 19.8115L226.288 23.2054C226.004 24.395 225.353 25.1663 224.632 25.1663C224.211 25.1663 223.803 24.9011 223.479 24.4167L222.574 23.0622C222.287 22.6327 222.043 22.1196 221.851 21.5443L221.104 19.309C220.506 17.5201 219.186 17.027 218.241 18.2393C217.983 18.5702 217.773 19.007 217.628 19.5133L216.625 23.0158C216.266 24.2682 215.467 24.8961 214.712 24.5193C214.36 24.3438 214.051 23.9642 213.832 23.4397L212.995 21.436C212.757 20.8656 212.552 20.2525 212.384 19.6063L210.947 14.0777C210.647 12.9197 210.207 11.8952 209.661 11.0773L209.051 10.1643C208.789 9.77279 208.59 9.26301 208.475 8.68751C207.884 5.73968 205.585 5.63211 204.91 8.52067L204.852 8.76956C204.729 9.29311 204.539 9.75612 204.296 10.1196L203.455 11.3782C203.037 12.0031 202.665 12.7202 202.347 13.5124L201.558 15.4809C201.178 16.4285 200.864 17.4557 200.623 18.5399L199.354 24.236C199.218 24.8466 198.999 25.3868 198.718 25.8077L198.59 26.0002C197.847 27.112 196.768 27.112 196.025 26.0002C195.665 25.4614 195.21 25.1663 194.741 25.1663C193.891 25.1663 193.13 24.2086 192.842 22.7719L191.599 16.5756C191.522 16.1904 191.396 15.8429 191.231 15.5607C190.402 14.142 189.028 14.904 188.787 16.9159L188.37 20.4112C188.122 22.4925 186.701 23.2808 185.842 21.8132C185.72 21.6031 185.617 21.3574 185.54 21.0864L184.997 19.19C184.427 17.2011 182.926 16.8514 182.093 18.5136C182.016 18.6661 181.948 18.8314 181.889 19.0073L180.563 22.9774C180.29 23.7936 179.854 24.3907 179.343 24.6454C178.689 24.9717 177.988 24.7006 177.466 23.9201L176.922 23.1064C176.617 22.6489 176.364 22.0877 176.179 21.4548L175.506 19.1527C174.908 17.1069 173.387 16.6568 172.455 18.2502C172.265 18.5752 172.114 18.9663 172.01 19.3995L171.18 22.8785C170.849 24.2665 170.089 25.1663 169.249 25.1663C168.757 25.1663 168.281 25.4758 167.904 26.0409L167.374 26.834C165.888 29.0576 163.73 29.0576 162.244 26.834L161.681 25.9913C161.325 25.4582 160.876 25.1663 160.412 25.1663C159.716 25.1663 159.071 24.5102 158.713 23.4379L157.3 19.2103C157.197 18.9009 157.065 18.6249 156.911 18.3939C156.067 17.1304 154.794 17.5178 154.229 19.2103L153.656 20.923C153.529 21.3031 153.375 21.6507 153.196 21.9564Z" fill="var(--fill-0, #E961FF)"/>
</g>
</svg>
