<svg preserveAspectRatio="none" width="100%" height="100%" overflow="visible" style="display: block;" viewBox="0 0 20 22" fill="none" xmlns="http://www.w3.org/2000/svg">
<path id="Icon" d="M14.8689 16.75C17.2123 15.1651 18.75 12.5279 18.75 9.53496C18.75 4.6833 14.7204 0.75 9.75 0.75C4.77958 0.75 0.75 4.6833 0.75 9.53496C0.75 12.5279 2.28771 15.1651 4.63113 16.75M6.10967 12.75C5.26875 11.9 4.75 10.7586 4.75 9.50054C4.75 6.87711 6.98881 4.75 9.75 4.75C12.5112 4.75 14.75 6.87711 14.75 9.50054C14.75 10.7595 14.2313 11.9 13.3903 12.75M9.75 20.75C8.64543 20.75 7.75 19.8546 7.75 18.75V16.75C7.75 15.6454 8.64543 14.75 9.75 14.75C10.8546 14.75 11.75 15.6454 11.75 16.75V18.75C11.75 19.8546 10.8546 20.75 9.75 20.75ZM10.75 9.75C10.75 10.3023 10.3023 10.75 9.75 10.75C9.19772 10.75 8.75 10.3023 8.75 9.75C8.75 9.19772 9.19772 8.75 9.75 8.75C10.3023 8.75 10.75 9.19772 10.75 9.75Z" stroke="var(--stroke-0, #FAFAFA)" stroke-width="1.5" stroke-linecap="round" stroke-linejoin="round"/>
</svg>
