<svg preserveAspectRatio="none" width="100%" height="100%" overflow="visible" style="display: block;" viewBox="0 0 16 6" fill="none" xmlns="http://www.w3.org/2000/svg">
<path id="Ellipse 1" d="M7.81543 0.75C9.90972 0.75 11.7732 1.05976 13.0859 1.53711C13.7454 1.77691 14.2263 2.04504 14.5283 2.30469C14.8323 2.56611 14.8817 2.75014 14.8818 2.8418C14.8818 2.93338 14.8328 3.11815 14.5283 3.37988C14.2263 3.63948 13.7452 3.90672 13.0859 4.14648C11.7732 4.62384 9.90973 4.93457 7.81543 4.93457C5.72137 4.93454 3.85855 4.62376 2.5459 4.14648C1.88671 3.90678 1.40554 3.63943 1.10352 3.37988C0.799076 3.11815 0.75 2.93338 0.75 2.8418C0.750097 2.75012 0.799378 2.56616 1.10352 2.30469C1.40553 2.04508 1.88655 1.77687 2.5459 1.53711C3.85854 1.05987 5.72146 0.750026 7.81543 0.75Z" stroke="var(--stroke-0, #FAFAFA)" stroke-width="1.5"/>
</svg>
