<svg preserveAspectRatio="none" width="100%" height="100%" overflow="visible" style="display: block;" viewBox="0 0 122 20" fill="none" xmlns="http://www.w3.org/2000/svg">
<g id="logo">
<path id="Vector" d="M18.1487 0H2.45918C1.09843 0 0 1.06603 0 2.38663V17.6134C0 18.934 1.09843 20 2.45918 20H18.1487C19.5095 20 20.6079 18.934 20.6079 17.6134V2.38663C20.6079 1.06603 19.5095 0 18.1487 0ZM15.5748 10.175C15.4109 10.6364 15.1321 11.3206 14.7223 11.965C14.2878 12.6571 13.8042 13.1344 13.296 13.3731C13.0337 13.5004 12.7631 13.564 12.4926 13.564C12.3861 13.564 12.2795 13.5561 12.1811 13.5322C11.8041 13.4606 11.4434 13.2776 11.1155 12.9674C10.5417 12.4264 10.0498 11.5115 9.599 10.1591C9.14815 8.79872 8.73828 8.22593 8.47597 7.97931C8.34482 7.85998 8.26284 7.82816 8.22186 7.8202C8.19726 7.8202 8.15628 7.8202 8.07431 7.85202C7.84478 7.95544 7.55788 8.25775 7.27917 8.68735C7.00866 9.10103 6.74635 9.62609 6.54142 10.183C6.39387 10.5807 5.94302 10.7876 5.52496 10.6444C5.32002 10.5728 5.15608 10.4375 5.06591 10.2466C4.97574 10.0636 4.96754 9.8568 5.03312 9.66587C5.20526 9.20445 5.50036 8.52028 5.91842 7.87589C6.36927 7.18377 6.86111 6.7144 7.37754 6.47573C7.74642 6.30867 8.12349 6.25298 8.50056 6.31662C8.88583 6.38027 9.24651 6.5712 9.57441 6.8735C10.1564 7.41448 10.6564 8.33731 11.1073 9.68973C11.5581 11.0501 11.9598 11.6309 12.2221 11.8695C12.3533 11.9968 12.4353 12.0207 12.4598 12.0207C12.4762 12.0207 12.509 12.0286 12.5828 11.9889C12.8041 11.8854 13.0828 11.5831 13.3451 11.1615C13.6075 10.7478 13.8534 10.2148 14.0501 9.66587C14.1895 9.26809 14.6403 9.0533 15.0584 9.18854C15.2633 9.25218 15.4273 9.39538 15.5256 9.57836C15.6158 9.76133 15.6322 9.96817 15.5666 10.1591L15.5748 10.175Z" fill="var(--fill-0, #FAFAFA)"/>
<path id="Vector_2" d="M37.3961 10.2623C37.724 9.75314 37.8879 9.13261 37.8879 8.40867C37.8879 7.68472 37.724 7.07215 37.4043 6.5471C37.0846 6.02204 36.6255 5.61631 36.0353 5.33787C35.4451 5.05147 34.7484 4.91623 33.9368 4.91623H29.4693V15.4015H32.0842V11.8136H33.4204L35.3959 15.4015H38.2486L36.0107 11.4079C36.6091 11.1453 37.0682 10.7555 37.3879 10.2543L37.3961 10.2623ZM32.0924 6.96078H33.3794C33.7729 6.96078 34.1008 7.01647 34.3631 7.12784C34.6336 7.23126 34.8303 7.39037 34.9697 7.60517C35.109 7.81997 35.1746 8.0825 35.1746 8.40867C35.1746 8.73484 35.109 8.99737 34.9697 9.20421C34.8303 9.41106 34.6336 9.56221 34.3631 9.66563C34.1008 9.76109 33.7729 9.81678 33.3794 9.81678H32.0924V6.96078Z" fill="var(--fill-0, #FAFAFA)"/>
<path id="Vector_3" d="M43.8798 4.91623H41.2649V15.4015H43.8798V4.91623Z" fill="var(--fill-0, #FAFAFA)"/>
<path id="Vector_4" d="M52.4134 12.5932H52.3232L49.905 4.91623H46.9786L50.6264 15.4015H54.102L57.7498 4.91623H54.8234L52.4134 12.5932Z" fill="var(--fill-0, #FAFAFA)"/>
<path id="Vector_5" d="M60.8483 15.4015H68.3898V13.341H63.4632V11.1851H68.0045V9.12466H63.4632V6.97669H68.3898V4.91623H60.8483V15.4015Z" fill="var(--fill-0, #FAFAFA)"/>
<path id="Vector_6" d="M79.8742 10.2623C80.2021 9.75314 80.366 9.13261 80.366 8.40867C80.366 7.68472 80.202 7.07215 79.8824 6.5471C79.5627 6.02204 79.1036 5.61631 78.5134 5.33787C77.9232 5.05147 77.2264 4.91623 76.4149 4.91623H71.9474V15.4015H74.5623V11.8136H75.8985L77.874 15.4015H80.7267L78.4888 11.4079C79.0872 11.1453 79.5463 10.7555 79.866 10.2543L79.8742 10.2623ZM74.5705 6.96078H75.8575C76.251 6.96078 76.5789 7.01647 76.8412 7.12784C77.1117 7.23126 77.3084 7.39037 77.4478 7.60517C77.5871 7.81997 77.6527 8.0825 77.6527 8.40867C77.6527 8.73484 77.5871 8.99737 77.4478 9.20421C77.3084 9.41106 77.1117 9.56221 76.8412 9.66563C76.5789 9.76109 76.251 9.81678 75.8575 9.81678H74.5705V6.96078Z" fill="var(--fill-0, #FAFAFA)"/>
<path id="Vector_7" d="M91.3667 10.3264C91.088 10.0638 90.7437 9.84108 90.3339 9.6581C89.924 9.46717 89.4568 9.32397 88.924 9.20464L87.9977 8.9978C87.7517 8.95007 87.5304 8.88642 87.3337 8.81482C87.1369 8.74323 86.9648 8.67163 86.8255 8.57616C86.6861 8.4807 86.5795 8.37728 86.5058 8.25794C86.432 8.13861 86.4074 8.00337 86.4074 7.84426C86.4074 7.65333 86.473 7.48627 86.5795 7.33511C86.6943 7.18396 86.8582 7.06463 87.0878 6.98507C87.3173 6.89756 87.596 6.85779 87.9321 6.85779C88.4403 6.85779 88.8338 6.96121 89.1125 7.176C89.3912 7.38284 89.5469 7.6772 89.5797 8.0511H92.0799C92.0799 7.39876 91.8996 6.82596 91.5553 6.33273C91.211 5.83949 90.7355 5.45763 90.1126 5.17919C89.4978 4.90075 88.7682 4.7655 87.9321 4.7655C87.096 4.7655 86.3828 4.90075 85.7434 5.17123C85.104 5.44172 84.604 5.82358 84.2351 6.31681C83.8744 6.8021 83.6941 7.37489 83.6941 8.01928C83.6941 8.81482 83.9564 9.4433 84.4974 9.91268C85.0384 10.3741 85.768 10.7162 86.7107 10.923L87.8419 11.1776C88.2354 11.2651 88.5633 11.3606 88.8092 11.4719C89.0633 11.5754 89.2518 11.6947 89.383 11.8379C89.506 11.9811 89.5715 12.1482 89.5715 12.347C89.5715 12.5618 89.4978 12.7448 89.3666 12.9119C89.2354 13.0789 89.0387 13.2062 88.7928 13.2937C88.5469 13.3892 88.2518 13.429 87.8993 13.429C87.514 13.429 87.1779 13.3733 86.8828 13.254C86.5959 13.1346 86.3664 12.9676 86.2025 12.7448C86.0385 12.5221 85.9401 12.2357 85.9238 11.9015H83.4236C83.4318 12.7209 83.6285 13.3972 83.9974 13.9381C84.3745 14.4711 84.8909 14.8769 85.5631 15.1394C86.2352 15.4019 87.0222 15.5372 87.9239 15.5372C88.8256 15.5372 89.5961 15.4099 90.2273 15.1553C90.8667 14.9007 91.3585 14.5427 91.7028 14.0654C92.0471 13.5881 92.2193 13.0233 92.2193 12.363C92.2193 11.9413 92.1455 11.5674 91.9979 11.2253C91.8504 10.8912 91.6454 10.5889 91.3585 10.3264H91.3667Z" fill="var(--fill-0, #FAFAFA)"/>
<path id="Vector_8" d="M98.0967 4.91623H95.4817V15.4015H98.0967V4.91623Z" fill="var(--fill-0, #FAFAFA)"/>
<path id="Vector_9" d="M108.507 5.54471C107.712 5.12307 106.761 4.91623 105.663 4.91623H101.67V15.4015H105.663C106.761 15.4015 107.704 15.1947 108.507 14.773C109.302 14.3514 109.917 13.7468 110.351 12.9671C110.786 12.1795 110.999 11.2408 110.999 10.1509C110.999 9.06102 110.786 8.13023 110.351 7.34264C109.917 6.55505 109.302 5.95839 108.507 5.53675V5.54471ZM108.056 11.9648C107.843 12.4182 107.523 12.7444 107.105 12.9433C106.687 13.1422 106.171 13.2376 105.572 13.2376H104.294V7.07216H105.54C106.163 7.07216 106.679 7.17558 107.105 7.37446C107.532 7.57335 107.851 7.89952 108.073 8.34503C108.294 8.79053 108.4 9.39514 108.4 10.1509C108.4 10.9067 108.294 11.5113 108.073 11.9648H108.056Z" fill="var(--fill-0, #FAFAFA)"/>
<path id="Vector_10" d="M114.467 15.4015H122V13.341H117.082V11.1851H121.615V9.12466H117.082V6.97669H122V4.91623H114.467V15.4015Z" fill="var(--fill-0, #FAFAFA)"/>
</g>
</svg>
