<svg preserveAspectRatio="none" width="100%" height="100%" overflow="visible" style="display: block;" viewBox="0 0 20 22" fill="none" xmlns="http://www.w3.org/2000/svg">
<g id="Icon">
<path d="M7.25012 18.2711L7.83457 19.5856C8.0083 19.9768 8.29184 20.3093 8.65079 20.5426C9.00974 20.7759 9.42867 20.9001 9.85679 20.9C10.2849 20.9001 10.7038 20.7759 11.0628 20.5426C11.4217 20.3093 11.7053 19.9768 11.879 19.5856L12.4635 18.2711C12.6715 17.8047 13.0215 17.4159 13.4635 17.16C13.9082 16.9034 14.4228 16.7942 14.9335 16.8478L16.3635 17C16.7891 17.045 17.2187 16.9656 17.6001 16.7713C17.9816 16.5771 18.2984 16.2763 18.5123 15.9056C18.7265 15.535 18.8286 15.1103 18.8061 14.6829C18.7836 14.2555 18.6376 13.8438 18.3857 13.4978L17.539 12.3344C17.2375 11.9171 17.0764 11.4148 17.079 10.9C17.0789 10.3866 17.2415 9.88635 17.5435 9.47111L18.3901 8.30778C18.642 7.96176 18.788 7.55007 18.8105 7.12267C18.833 6.69528 18.731 6.27054 18.5168 5.9C18.3029 5.52924 17.986 5.22849 17.6046 5.03423C17.2232 4.83997 16.7936 4.76053 16.3679 4.80556L14.9379 4.95778C14.4272 5.01141 13.9127 4.90212 13.4679 4.64556C13.025 4.38825 12.675 3.99736 12.4679 3.52889L11.879 2.21444C11.7053 1.82317 11.4217 1.49072 11.0628 1.2574C10.7038 1.02408 10.2849 0.89993 9.85679 0.9C9.42867 0.89993 9.00974 1.02408 8.65079 1.2574C8.29184 1.49072 8.0083 1.82317 7.83457 2.21444L7.25012 3.52889C7.04305 3.99736 6.69299 4.38825 6.25012 4.64556C5.80534 4.90212 5.29079 5.01141 4.78012 4.95778L3.34568 4.80556C2.92001 4.76053 2.49042 4.83997 2.10899 5.03423C1.72757 5.22849 1.41069 5.52924 1.19679 5.9C0.982608 6.27054 0.88057 6.69528 0.903054 7.12267C0.925539 7.55007 1.07158 7.96176 1.32345 8.30778L2.17012 9.47111C2.47206 9.88635 2.63466 10.3866 2.63456 10.9C2.63466 11.4134 2.47206 11.9137 2.17012 12.3289L1.32345 13.4922C1.07158 13.8382 0.925539 14.2499 0.903054 14.6773C0.88057 15.1047 0.982608 15.5295 1.19679 15.9C1.4109 16.2706 1.72782 16.5712 2.10919 16.7654C2.49055 16.9596 2.92004 17.0392 3.34568 16.9944L4.77568 16.8422C5.28635 16.7886 5.80089 16.8979 6.24568 17.1544C6.6902 17.411 7.04189 17.802 7.25012 18.2711Z" stroke="var(--stroke-0, #FAFAFA)" stroke-width="1.8" stroke-linecap="round" stroke-linejoin="round"/>
<path d="M9.855 13.9C11.5119 13.9 12.855 12.5569 12.855 10.9C12.855 9.24315 11.5119 7.9 9.855 7.9C8.19815 7.9 6.855 9.24315 6.855 10.9C6.855 12.5569 8.19815 13.9 9.855 13.9Z" stroke="var(--stroke-0, #FAFAFA)" stroke-width="1.8" stroke-linecap="round" stroke-linejoin="round"/>
</g>
</svg>
