<svg preserveAspectRatio="none" width="100%" height="100%" overflow="visible" style="display: block;" viewBox="0 0 28 28" fill="none" xmlns="http://www.w3.org/2000/svg">
<g id="Shape">
<path fill-rule="evenodd" clip-rule="evenodd" d="M5.13177 9.37447C4.40882 10.7577 4 12.3311 4 14C4 19.5228 8.47715 24 14 24C15.6689 24 17.2423 23.5912 18.6256 22.8683C19.2326 22.551 19.803 22.1732 20.3287 21.743L6.25704 7.6713C5.82679 8.19707 5.44904 8.76746 5.13177 9.37447ZM17.1243 21.367C16.1644 21.7745 15.1085 22 14 22C9.58172 22 6 18.4183 6 14C6 12.8915 6.22547 11.8356 6.63305 10.8757L17.1243 21.367Z" fill="var(--fill-0, white)"/>
<path fill-rule="evenodd" clip-rule="evenodd" d="M22.8682 18.6255C23.5912 17.2423 24 15.6689 24 14C24 8.47713 19.5228 3.99998 14 3.99998C12.3311 3.99998 10.7577 4.40877 9.37444 5.13173C8.76743 5.44899 8.19704 5.82675 7.67128 6.25699L21.743 20.3287C22.1732 19.8029 22.551 19.2325 22.8682 18.6255ZM10.8757 6.63302C11.8356 6.22545 12.8915 5.99998 14 5.99998C18.4183 5.99998 22 9.5817 22 14C22 15.1085 21.7745 16.1644 21.367 17.1242L10.8757 6.63302Z" fill="var(--fill-0, white)"/>
<path fill-rule="evenodd" clip-rule="evenodd" d="M14 28C21.732 28 28 21.732 28 14C28 6.26801 21.732 0 14 0C6.26801 0 0 6.26801 0 14C0 21.732 6.26801 28 14 28ZM14 26C20.6274 26 26 20.6274 26 14C26 7.37258 20.6274 2 14 2C7.37258 2 2 7.37258 2 14C2 20.6274 7.37258 26 14 26Z" fill="var(--fill-0, white)"/>
</g>
</svg>
