<svg preserveAspectRatio="none" width="100%" height="100%" overflow="visible" style="display: block;" viewBox="0 0 14 11" fill="none" xmlns="http://www.w3.org/2000/svg">
<path id="Icon" d="M0.75 2.75L8.75 2.75M8.75 2.75C8.75 3.85457 9.64543 4.75 10.75 4.75C11.8546 4.75 12.75 3.85457 12.75 2.75C12.75 1.64543 11.8546 0.75 10.75 0.75C9.64543 0.75 8.75 1.64543 8.75 2.75ZM4.75 8.08333L12.75 8.08333M4.75 8.08333C4.75 9.1879 3.85457 10.0833 2.75 10.0833C1.64543 10.0833 0.75 9.1879 0.75 8.08333C0.75 6.97876 1.64543 6.08333 2.75 6.08333C3.85457 6.08333 4.75 6.97876 4.75 8.08333Z" stroke="var(--stroke-0, #FAFAFA)" stroke-width="1.5" stroke-linecap="round" stroke-linejoin="round"/>
</svg>
