<svg preserveAspectRatio="none" width="100%" height="100%" overflow="visible" style="display: block;" viewBox="0 0 18 19" fill="none" xmlns="http://www.w3.org/2000/svg">
<path id="Icon" d="M4.91667 17.4167V8.25M0.75 9.91667V15.75C0.75 16.6705 1.49619 17.4167 2.41667 17.4167H13.6052C14.8391 17.4167 15.8885 16.5164 16.0761 15.2968L16.9736 9.46348C17.2066 7.94908 16.0349 6.58333 14.5026 6.58333H11.5833C11.1231 6.58333 10.75 6.21024 10.75 5.75V2.80487C10.75 1.66999 9.83 0.75 8.69513 0.75C8.42445 0.75 8.17915 0.909413 8.06921 1.15677L5.13662 7.75512C5.00286 8.05606 4.70443 8.25 4.37511 8.25H2.41667C1.49619 8.25 0.75 8.99619 0.75 9.91667Z" stroke="var(--stroke-0, #FAFAFA)" stroke-width="1.5" stroke-linecap="round" stroke-linejoin="round"/>
</svg>
