<svg preserveAspectRatio="none" width="100%" height="100%" overflow="visible" style="display: block;" viewBox="0 0 18 19" fill="none" xmlns="http://www.w3.org/2000/svg">
<path id="Icon" d="M2.79193 17.4167V13.25M2.79193 4.91667V0.75M0.75 2.83333H4.83387M0.75 15.3333H4.83387M9.7345 1.58333L8.31807 5.34072C8.08773 5.95174 7.97256 6.25726 7.79347 6.51424C7.63474 6.742 7.4397 6.94099 7.21646 7.10294C6.96459 7.28567 6.66515 7.40318 6.06626 7.63819L2.38355 9.08333L6.06626 10.5285C6.66515 10.7635 6.96459 10.881 7.21646 11.0637C7.4397 11.2257 7.63474 11.4247 7.79347 11.6524C7.97257 11.9094 8.08773 12.2149 8.31807 12.8259L9.73451 16.5833L11.1509 12.8259C11.3813 12.2149 11.4964 11.9094 11.6755 11.6524C11.8343 11.4247 12.0293 11.2257 12.2525 11.0637C12.5044 10.881 12.8039 10.7635 13.4027 10.5285L17.0855 9.08333L13.4027 7.63818C12.8039 7.40318 12.5044 7.28567 12.2525 7.10294C12.0293 6.94099 11.8343 6.742 11.6755 6.51424C11.4964 6.25726 11.3813 5.95174 11.1509 5.34072L9.7345 1.58333Z" stroke="var(--stroke-0, #BBBBBB)" stroke-width="1.5" stroke-linecap="round" stroke-linejoin="round"/>
</svg>
