<svg preserveAspectRatio="none" width="100%" height="100%" overflow="visible" style="display: block;" viewBox="0 0 20 16" fill="none" xmlns="http://www.w3.org/2000/svg">
<path id="Shape" fill-rule="evenodd" clip-rule="evenodd" d="M13 6.99782H3C2.44772 6.99782 2 7.44554 2 7.99782C2 8.55011 2.44772 8.99782 3 8.99782H13V12.5795L17.5817 7.99782L13 3.41619V6.99782ZM11 1.002C11 0.111104 12.0771 -0.335064 12.7071 0.294891L19.7031 7.29071C20.0936 7.68124 20.0936 8.31441 19.7031 8.70494L12.7071 15.7008C12.0771 16.3307 11 15.8845 11 14.9936V10.9978H3C1.34315 10.9978 0 9.65468 0 7.99782C0 6.34097 1.34315 4.99782 3 4.99782H11V1.002Z" fill="var(--fill-0, white)"/>
</svg>
