<svg preserveAspectRatio="none" width="100%" height="100%" overflow="visible" style="display: block;" viewBox="0 0 18 18" fill="none" xmlns="http://www.w3.org/2000/svg">
<g id="Vector">
<path d="M6.69361 3.18561C6.78319 2.84898 7.49374 2.84898 7.58331 3.18561C7.9685 4.63317 8.63256 6.47453 9.68405 7.52602C10.7355 8.5775 12.5769 9.24157 14.0245 9.62675C14.3611 9.71632 14.3611 10.4269 14.0245 10.5165C12.5769 10.9016 10.7355 11.5657 9.68405 12.6172C8.63256 13.6687 7.9685 15.51 7.58331 16.9576C7.49374 17.2942 6.78319 17.2942 6.69361 16.9576C6.30843 15.51 5.64437 13.6687 4.59288 12.6172C3.54139 11.5657 1.70003 10.9016 0.252468 10.5165C-0.0841562 10.4269 -0.0841559 9.71632 0.252468 9.62675C1.70003 9.24157 3.54139 8.5775 4.59288 7.52602C5.64437 6.47453 6.30843 4.63317 6.69361 3.18561Z" fill="var(--fill-0, #FAFAFA)"/>
<path d="M14.3999 0.125077C14.4502 -0.0416923 14.8268 -0.0416925 14.877 0.125077C15.0325 0.641478 15.2738 1.22706 15.6284 1.58165C15.983 1.93625 16.5686 2.17754 17.085 2.33307C17.2518 2.3833 17.2518 2.75991 17.085 2.81013C16.5686 2.96566 15.983 3.20696 15.6284 3.56155C15.2738 3.91615 15.0325 4.50173 14.877 5.01813C14.8268 5.1849 14.4502 5.1849 14.3999 5.01813C14.2444 4.50173 14.0031 3.91615 13.6485 3.56155C13.2939 3.20696 12.7083 2.96566 12.1919 2.81013C12.0252 2.75991 12.0252 2.3833 12.1919 2.33307C12.7083 2.17754 13.2939 1.93625 13.6485 1.58165C14.0031 1.22706 14.2444 0.641478 14.3999 0.125077Z" fill="var(--fill-0, #FAFAFA)"/>
</g>
</svg>
