<svg preserveAspectRatio="none" width="100%" height="100%" overflow="visible" style="display: block;" viewBox="0 0 24 17" fill="none" xmlns="http://www.w3.org/2000/svg">
<path id="Shape" fill-rule="evenodd" clip-rule="evenodd" d="M11 4V10H7.41843L12 14.5816L16.5816 10H13V4H21C21.5523 4 22 3.55228 22 3C22 2.44772 21.5523 2 21 2H3C2.44772 2 2 2.44772 2 3C2 3.55228 2.44772 4 3 4H11ZM3 6C1.34315 6 0 4.65685 0 3C0 1.34315 1.34315 0 3 0H21C22.6569 0 24 1.34315 24 3C24 4.65685 22.6569 6 21 6H15V8H18.9958C19.8867 8 20.3329 9.07714 19.7029 9.70711L12.7071 16.7029C12.3166 17.0934 11.6834 17.0934 11.2929 16.7029L4.29711 9.70711C3.66714 9.07714 4.11331 8 5.00421 8H9V6H3Z" fill="var(--fill-0, white)"/>
</svg>
