<svg preserveAspectRatio="none" width="100%" height="100%" overflow="visible" style="display: block;" viewBox="0 0 21 21" fill="none" xmlns="http://www.w3.org/2000/svg">
<path id="Icon" d="M7.125 15.9297V4.28512C7.125 3.80358 7.125 3.56281 7.2126 3.36754C7.28982 3.1954 7.41417 3.04862 7.57127 2.94415C7.74949 2.82564 7.98698 2.78605 8.46196 2.70689L17.262 1.24022C17.9029 1.13339 18.2234 1.07998 18.4732 1.17275C18.6924 1.25416 18.8761 1.4098 18.9924 1.61262C19.125 1.84374 19.125 2.16864 19.125 2.81845V13.9297M7.125 15.9297C7.125 17.5866 5.78185 18.9297 4.125 18.9297C2.46815 18.9297 1.125 17.5866 1.125 15.9297C1.125 14.2729 2.46815 12.9297 4.125 12.9297C5.78185 12.9297 7.125 14.2729 7.125 15.9297ZM19.125 13.9297C19.125 15.5866 17.7819 16.9297 16.125 16.9297C14.4681 16.9297 13.125 15.5866 13.125 13.9297C13.125 12.2729 14.4681 10.9297 16.125 10.9297C17.7819 10.9297 19.125 12.2729 19.125 13.9297Z" stroke="var(--stroke-0, #FAFAFA)" stroke-width="2.25" stroke-linecap="round" stroke-linejoin="round"/>
</svg>
