<svg preserveAspectRatio="none" width="100%" height="100%" overflow="visible" style="display: block;" viewBox="0 0 17 18" fill="none" xmlns="http://www.w3.org/2000/svg">
<path id="Icon" d="M9.06868 1.16429C8.77591 0.936584 8.62952 0.822728 8.46788 0.778963C8.32526 0.740346 8.17493 0.740346 8.0323 0.778963C7.87066 0.822728 7.72428 0.936583 7.43151 1.16429L1.77958 5.56023C1.40178 5.85408 1.21287 6.00101 1.07678 6.18501C0.956231 6.348 0.866428 6.53161 0.811783 6.72684C0.750093 6.94723 0.750093 7.18654 0.750093 7.66517V13.6943C0.750093 14.6277 0.750093 15.0944 0.931749 15.4509C1.09154 15.7645 1.34651 16.0195 1.66011 16.1793C2.01663 16.3609 2.48334 16.3609 3.41676 16.3609H5.08343C5.31678 16.3609 5.43346 16.3609 5.52259 16.3155C5.60099 16.2756 5.66473 16.2118 5.70468 16.1334C5.75009 16.0443 5.75009 15.9276 5.75009 15.6943V10.1943C5.75009 9.72757 5.75009 9.49422 5.84092 9.31596C5.92082 9.15915 6.0483 9.03167 6.2051 8.95178C6.38336 8.86095 6.61672 8.86095 7.08343 8.86095H9.41676C9.88347 8.86095 10.1168 8.86095 10.2951 8.95178C10.4519 9.03167 10.5794 9.15915 10.6593 9.31596C10.7501 9.49422 10.7501 9.72757 10.7501 10.1943V15.6943C10.7501 15.9276 10.7501 16.0443 10.7955 16.1334C10.8355 16.2118 10.8992 16.2756 10.9776 16.3155C11.0667 16.3609 11.1834 16.3609 11.4168 16.3609H13.0834C14.0168 16.3609 14.4836 16.3609 14.8401 16.1793C15.1537 16.0195 15.4086 15.7645 15.5684 15.4509C15.7501 15.0944 15.7501 14.6277 15.7501 13.6943V7.66517C15.7501 7.18654 15.7501 6.94723 15.6884 6.72684C15.6338 6.53161 15.544 6.348 15.4234 6.18501C15.2873 6.00101 15.0984 5.85408 14.7206 5.56023L9.06868 1.16429Z" stroke="var(--stroke-0, #FAFAFA)" stroke-width="1.5" stroke-linecap="round" stroke-linejoin="round"/>
</svg>
