<svg preserveAspectRatio="none" width="100%" height="100%" overflow="visible" style="display: block;" viewBox="0 0 21 21" fill="none" xmlns="http://www.w3.org/2000/svg">
<path id="Icon" d="M14.325 19.125H5.05637C4.45056 19.125 4.14765 19.125 4.00738 19.0052C3.88568 18.9013 3.82109 18.7453 3.83365 18.5858C3.84812 18.4019 4.06231 18.1877 4.49069 17.7593L12.9936 9.25637C13.3896 8.86036 13.5877 8.66235 13.816 8.58816C14.0168 8.5229 14.2332 8.5229 14.434 8.58816C14.6623 8.66235 14.8604 8.86035 15.2564 9.25637L19.125 13.125V14.325M14.325 19.125C16.0052 19.125 16.8452 19.125 17.487 18.798C18.0515 18.5104 18.5104 18.0515 18.798 17.487C19.125 16.8452 19.125 16.0052 19.125 14.325M14.325 19.125H5.925C4.24484 19.125 3.40476 19.125 2.76303 18.798C2.19854 18.5104 1.7396 18.0515 1.45198 17.487C1.125 16.8452 1.125 16.0052 1.125 14.325V5.925C1.125 4.24484 1.125 3.40476 1.45198 2.76303C1.7396 2.19854 2.19854 1.7396 2.76303 1.45198C3.40476 1.125 4.24484 1.125 5.925 1.125H14.325C16.0052 1.125 16.8452 1.125 17.487 1.45198C18.0515 1.7396 18.5104 2.19854 18.798 2.76303C19.125 3.40476 19.125 4.24484 19.125 5.925V14.325M8.625 6.625C8.625 7.72957 7.72957 8.625 6.625 8.625C5.52043 8.625 4.625 7.72957 4.625 6.625C4.625 5.52043 5.52043 4.625 6.625 4.625C7.72957 4.625 8.625 5.52043 8.625 6.625Z" stroke="var(--stroke-0, #FAFAFA)" stroke-width="2.25" stroke-linecap="round" stroke-linejoin="round"/>
</svg>
