<svg preserveAspectRatio="none" width="100%" height="100%" overflow="visible" style="display: block;" viewBox="0 0 20 16" fill="none" xmlns="http://www.w3.org/2000/svg">
<path id="Shape" fill-rule="evenodd" clip-rule="evenodd" d="M6.99596 6.99782H16.996C17.5482 6.99782 17.996 7.44554 17.996 7.99782C17.996 8.55011 17.5482 8.99782 16.996 8.99782H6.99596V12.5795L2.41423 7.99782L6.99596 3.41619V6.99782ZM8.99596 1.002C8.99596 0.111104 7.91882 -0.335064 7.28886 0.294891L0.2929 7.29071C-0.0976338 7.68124 -0.0976329 8.31441 0.292901 8.70494L7.28886 15.7008C7.91883 16.3307 8.99596 15.8845 8.99596 14.9936V10.9978H16.996C18.6528 10.9978 19.996 9.65468 19.996 7.99782C19.996 6.34097 18.6528 4.99782 16.996 4.99782H8.99596V1.002Z" fill="var(--fill-0, white)"/>
</svg>
