<svg preserveAspectRatio="none" width="100%" height="100%" overflow="visible" style="display: block;" viewBox="0 0 20 19" fill="none" xmlns="http://www.w3.org/2000/svg">
<g id="Group 672972436">
<path id="Rectangle 15128110" d="M16.8846 6.00198L16.1516 4.26793C15.6054 3.03319 15.3323 2.41582 14.8914 2.06452C14.5038 1.75572 14.0293 1.58592 13.5398 1.58087C12.9831 1.57512 12.3989 1.88567 11.2304 2.50679L5.2493 6.00151M9.97639 2.56245L9.23419 2.00245C8.23611 1.24938 7.73707 0.872847 7.21187 0.78195C6.74975 0.701972 6.275 0.773042 5.85386 0.985242C5.37523 1.22641 5.00015 1.7338 4.25 2.74857L2.06224 6.00198M7.5 14.1382C6.25736 14.1382 5.25 13.0974 5.25 11.8136C5.25 10.5297 6.25736 9.48894 7.5 9.48894M14.25 11.8136C14.25 13.0974 13.2426 14.1382 12 14.1382C10.7574 14.1382 9.75 13.0974 9.75 11.8136C9.75 10.5297 10.7574 9.48894 12 9.48894C13.2426 9.48894 14.25 10.5297 14.25 11.8136ZM3.95 17.625H15.55C16.6701 17.625 17.2302 17.625 17.658 17.4071C18.0343 17.2153 18.3403 16.9093 18.532 16.533C18.75 16.1052 18.75 15.5452 18.75 14.425V9.20198C18.75 8.08188 18.75 7.52182 18.532 7.094C18.3403 6.71768 18.0343 6.41172 17.658 6.21997C17.2302 6.00198 16.6701 6.00198 15.55 6.00198H3.95C2.8299 6.00198 2.26984 6.00198 1.84202 6.21997C1.4657 6.41172 1.15973 6.71768 0.967988 7.094C0.750001 7.52182 0.750001 8.08188 0.750001 9.20198V14.425C0.750001 15.5451 0.750001 16.1052 0.967988 16.533C1.15973 16.9093 1.4657 17.2153 1.84202 17.4071C2.26984 17.625 2.8299 17.625 3.95 17.625Z" stroke="var(--stroke-0, #FAFAFA)" stroke-width="1.5" stroke-linecap="round" stroke-linejoin="round"/>
</g>
</svg>
