<svg preserveAspectRatio="none" width="100%" height="100%" overflow="visible" style="display: block;" viewBox="0 0 16 16" fill="none" xmlns="http://www.w3.org/2000/svg">
<g id="Icon">
<path d="M4.95 0.750004H1.99445C1.55885 0.750004 1.34105 0.750004 1.17468 0.834776C1.02833 0.909344 0.909344 1.02833 0.834776 1.17468C0.750004 1.34105 0.750004 1.55885 0.750004 1.99445V4.95C0.750004 5.3856 0.750004 5.6034 0.834776 5.76977C0.909344 5.91612 1.02833 6.03511 1.17468 6.10968C1.34105 6.19445 1.55885 6.19445 1.99445 6.19445H4.95C5.3856 6.19445 5.6034 6.19445 5.76977 6.10968C5.91612 6.03511 6.03511 5.91612 6.10968 5.76977C6.19445 5.6034 6.19445 5.3856 6.19445 4.95V1.99445C6.19445 1.55885 6.19445 1.34105 6.10968 1.17468C6.03511 1.02833 5.91612 0.909344 5.76977 0.834776C5.6034 0.750004 5.3856 0.750004 4.95 0.750004Z" stroke="var(--stroke-0, #FAFAFA)" stroke-width="1.5" stroke-linecap="round" stroke-linejoin="round"/>
<path d="M13.5056 0.750004H10.55C10.1144 0.750004 9.89661 0.750004 9.73023 0.834776C9.58388 0.909344 9.4649 1.02833 9.39033 1.17468C9.30556 1.34105 9.30556 1.55885 9.30556 1.99445V4.95C9.30556 5.3856 9.30556 5.6034 9.39033 5.76977C9.4649 5.91612 9.58388 6.03511 9.73023 6.10968C9.89661 6.19445 10.1144 6.19445 10.55 6.19445H13.5056C13.9412 6.19445 14.159 6.19445 14.3253 6.10968C14.4717 6.03511 14.5907 5.91612 14.6652 5.76977C14.75 5.6034 14.75 5.3856 14.75 4.95V1.99445C14.75 1.55885 14.75 1.34105 14.6652 1.17468C14.5907 1.02833 14.4717 0.909344 14.3253 0.834776C14.159 0.750004 13.9412 0.750004 13.5056 0.750004Z" stroke="var(--stroke-0, #FAFAFA)" stroke-width="1.5" stroke-linecap="round" stroke-linejoin="round"/>
<path d="M13.5056 9.30556H10.55C10.1144 9.30556 9.89661 9.30556 9.73023 9.39033C9.58388 9.4649 9.4649 9.58388 9.39033 9.73023C9.30556 9.89661 9.30556 10.1144 9.30556 10.55V13.5056C9.30556 13.9412 9.30556 14.159 9.39033 14.3253C9.4649 14.4717 9.58388 14.5907 9.73023 14.6652C9.89661 14.75 10.1144 14.75 10.55 14.75H13.5056C13.9412 14.75 14.159 14.75 14.3253 14.6652C14.4717 14.5907 14.5907 14.4717 14.6652 14.3253C14.75 14.159 14.75 13.9412 14.75 13.5056V10.55C14.75 10.1144 14.75 9.89661 14.6652 9.73023C14.5907 9.58388 14.4717 9.4649 14.3253 9.39033C14.159 9.30556 13.9412 9.30556 13.5056 9.30556Z" stroke="var(--stroke-0, #FAFAFA)" stroke-width="1.5" stroke-linecap="round" stroke-linejoin="round"/>
<path d="M4.95 9.30556H1.99445C1.55885 9.30556 1.34105 9.30556 1.17468 9.39033C1.02833 9.4649 0.909344 9.58388 0.834776 9.73023C0.750004 9.89661 0.750004 10.1144 0.750004 10.55V13.5056C0.750004 13.9412 0.750004 14.159 0.834776 14.3253C0.909344 14.4717 1.02833 14.5907 1.17468 14.6652C1.34105 14.75 1.55885 14.75 1.99445 14.75H4.95C5.3856 14.75 5.6034 14.75 5.76977 14.6652C5.91612 14.5907 6.03511 14.4717 6.10968 14.3253C6.19445 14.159 6.19445 13.9412 6.19445 13.5056V10.55C6.19445 10.1144 6.19445 9.89661 6.10968 9.73023C6.03511 9.58388 5.91612 9.4649 5.76977 9.39033C5.6034 9.30556 5.3856 9.30556 4.95 9.30556Z" stroke="var(--stroke-0, #FAFAFA)" stroke-width="1.5" stroke-linecap="round" stroke-linejoin="round"/>
</g>
</svg>
