<svg preserveAspectRatio="none" width="100%" height="100%" overflow="visible" style="display: block;" viewBox="0 0 14 18" fill="none" xmlns="http://www.w3.org/2000/svg">
<path id="Ellipse 44" d="M10.75 0.75C10.75 0.75 10.75 1.52498 10.75 2.75M3.25 11.75L0.75 9.25V11.75C0.75 14.5114 2.98858 16.75 5.75 16.75C8.51142 16.75 10.75 14.5114 10.75 11.75C10.75 10.1086 10.75 8.35933 10.75 6.75M10.75 6.75C11.8546 6.75 12.75 5.85457 12.75 4.75C12.75 3.64543 11.8546 2.75 10.75 2.75M10.75 6.75C9.64543 6.75 8.75 5.85457 8.75 4.75C8.75 3.64543 9.64543 2.75 10.75 2.75" stroke="var(--stroke-0, #FAFAFA)" stroke-width="1.5" stroke-linecap="round" stroke-linejoin="round"/>
</svg>
