<svg preserveAspectRatio="none" width="100%" height="100%" overflow="visible" style="display: block;" viewBox="0 0 22 20" fill="none" xmlns="http://www.w3.org/2000/svg">
<path id="Shape" fill-rule="evenodd" clip-rule="evenodd" d="M9 0.763896C9.53075 0.288854 10.2316 0 11 0C12.0623 0 12.9956 0.552095 13.5286 1.38499C13.9634 1.13986 14.4653 1 15 1C15.8913 1 16.6917 1.38865 17.2412 2.00572C19.8906 2.13156 22 4.31944 22 7V9.34436C22 11.2587 21.5004 13.1398 20.5507 14.8019L18.732 17.9846C18.0198 19.2309 16.6945 20 15.259 20H7.54385C6.25205 20 5.03977 19.3761 4.28892 18.325L1.30387 14.1459C0.455862 12.9587 0 11.5362 0 10.0772V7C0 4.5297 1.79146 2.47781 4.14608 2.07263C4.53671 0.869654 5.6668 0 7 0C7.76836 0 8.46924 0.288854 9 0.763896ZM8 3V4C8 4.55228 8.44772 5 9 5C9.55228 5 10 4.55228 10 4V3C10 2.44772 10.4477 2 11 2C11.5523 2 12 2.44772 12 3V4C12 4.55228 12.4477 5 13 5C13.5523 5 14 4.55228 14 4C14 3.44772 14.4477 3 15 3C15.5523 3 16 3.44772 16 4V5C16 5.55228 16.4477 6 17 6C17.5523 6 18 5.55228 18 5V4.17071C19.1652 4.58254 20 5.69378 20 7V9.34436C20 10.9106 19.5913 12.4497 18.8142 13.8096L16.9955 16.9923C16.6394 17.6154 15.9767 18 15.259 18H7.54385C6.89795 18 6.29181 17.6881 5.91639 17.1625L2.93133 12.9834C2.32562 12.1354 2 11.1193 2 10.0772V7C2 5.69378 2.83481 4.58254 4 4.17071V8C4 8.55228 4.44772 9 5 9C5.55228 9 6 8.55228 6 8V3C6 2.44772 6.44772 2 7 2C7.55228 2 8 2.44772 8 3Z" fill="var(--fill-0, #12131A)"/>
</svg>
