<svg preserveAspectRatio="none" width="100%" height="100%" overflow="visible" style="display: block;" viewBox="0 0 19 14" fill="none" xmlns="http://www.w3.org/2000/svg">
<g id="Icon">
<path d="M17.4167 4.02614C17.4167 3.5213 17.4167 3.26887 17.3168 3.15199C17.2302 3.05057 17.1003 2.99674 16.9673 3.00721C16.8141 3.01927 16.6356 3.19776 16.2786 3.55474L13.25 6.58333L16.2786 9.61193C16.6356 9.96891 16.8141 10.1474 16.9673 10.1595C17.1003 10.1699 17.2302 10.1161 17.3168 10.0147C17.4167 9.89779 17.4167 9.64537 17.4167 9.14052V4.02614Z" stroke="var(--stroke-0, #FAFAFA)" stroke-width="1.5" stroke-linecap="round" stroke-linejoin="round"/>
<path d="M0.750001 4.75C0.750001 3.34987 0.750001 2.6498 1.02248 2.11502C1.26217 1.64462 1.64462 1.26217 2.11502 1.02248C2.6498 0.750001 3.34987 0.750001 4.75 0.750001H9.25C10.6501 0.750001 11.3502 0.750001 11.885 1.02248C12.3554 1.26217 12.7378 1.64462 12.9775 2.11502C13.25 2.6498 13.25 3.34987 13.25 4.75V8.41667C13.25 9.8168 13.25 10.5169 12.9775 11.0516C12.7378 11.522 12.3554 11.9045 11.885 12.1442C11.3502 12.4167 10.6501 12.4167 9.25 12.4167H4.75C3.34987 12.4167 2.6498 12.4167 2.11502 12.1442C1.64462 11.9045 1.26217 11.522 1.02248 11.0516C0.750001 10.5169 0.750001 9.8168 0.750001 8.41667V4.75Z" stroke="var(--stroke-0, #FAFAFA)" stroke-width="1.5" stroke-linecap="round" stroke-linejoin="round"/>
</g>
</svg>
