<svg preserveAspectRatio="none" width="100%" height="100%" overflow="visible" style="display: block;" viewBox="0 0 22 22" fill="none" xmlns="http://www.w3.org/2000/svg">
<g id="Shape">
<path d="M12 8C12 7.44772 11.5523 7 11 7L5 7C4.44772 7 4 7.44771 4 8C4 8.55228 4.44772 9 5 9H11C11.5523 9 12 8.55229 12 8Z" fill="var(--fill-0, #12131A)"/>
<path fill-rule="evenodd" clip-rule="evenodd" d="M12.9056 14.3199C11.551 15.3729 9.84871 16 8 16C3.58172 16 0 12.4183 0 8C0 3.58172 3.58172 0 8 0C12.4183 0 16 3.58172 16 8C16 9.84871 15.3729 11.551 14.3199 12.9056L21.7071 20.2929C22.0976 20.6834 22.0976 21.3166 21.7071 21.7071C21.3166 22.0976 20.6834 22.0976 20.2929 21.7071L12.9056 14.3199ZM14 8C14 11.3137 11.3137 14 8 14C4.68629 14 2 11.3137 2 8C2 4.68629 4.68629 2 8 2C11.3137 2 14 4.68629 14 8Z" fill="var(--fill-0, #12131A)"/>
</g>
</svg>
