<svg preserveAspectRatio="none" width="100%" height="100%" overflow="visible" style="display: block;" viewBox="0 0 13 11" fill="none" xmlns="http://www.w3.org/2000/svg">
<g id="Group">
<path id="Vector" d="M0 6.0952C0 7.30762 0.655554 8.47038 1.82245 9.32769C2.98934 10.185 4.57199 10.6666 6.22222 10.6666C7.87246 10.6666 9.45511 10.185 10.622 9.32769C11.7889 8.47038 12.4444 7.30762 12.4444 6.0952" fill="var(--fill-0, black)"/>
<path id="Vector_2" d="M1.86667 1.21905C1.86667 0.545786 1.4488 0 0.933333 0C0.417868 0 0 0.545786 0 1.21905C0 1.89231 0.417868 2.4381 0.933333 2.4381C1.4488 2.4381 1.86667 1.89231 1.86667 1.21905Z" fill="var(--fill-0, black)"/>
<path id="Vector_3" d="M11.8223 1.21905C11.8223 0.545786 11.4044 0 10.889 0C10.3735 0 9.95563 0.545786 9.95563 1.21905C9.95563 1.89231 10.3735 2.4381 10.889 2.4381C11.4044 2.4381 11.8223 1.89231 11.8223 1.21905Z" fill="var(--fill-0, black)"/>
</g>
</svg>
