<svg preserveAspectRatio="none" width="100%" height="100%" overflow="visible" style="display: block;" viewBox="0 0 21 21" fill="none" xmlns="http://www.w3.org/2000/svg">
<path id="Shape" fill-rule="evenodd" clip-rule="evenodd" d="M11.0546 12.4689L17.2929 18.7072C17.6835 19.0977 18.3166 19.0977 18.7072 18.7072C19.0977 18.3166 19.0977 17.6835 18.7072 17.293L12.4688 11.0546L17.4137 8.9921L2.87574 2.87573L8.99211 17.4137L11.0546 12.4689ZM20.3868 9.91901C21.2055 9.57753 21.2073 8.41832 20.3897 8.07433L1.39071 0.081165C0.564587 -0.266396 -0.266397 0.564585 0.0811649 1.3907L8.07434 20.3897C8.41834 21.2073 9.57755 21.2055 9.91902 20.3869L11.7513 15.994L15.8787 20.1214C17.0503 21.293 18.9498 21.293 20.1214 20.1214C21.2929 18.9498 21.2929 17.0503 20.1214 15.8787L15.9939 11.7513L20.3868 9.91901Z" fill="var(--fill-0, white)"/>
</svg>
