<svg preserveAspectRatio="none" width="100%" height="100%" overflow="visible" style="display: block;" viewBox="0 0 16 28" fill="none" xmlns="http://www.w3.org/2000/svg">
<g id="Shape">
<path fill-rule="evenodd" clip-rule="evenodd" d="M6.84862 12.165C7.50224 11.3252 8.33926 10.4903 8.9639 9.8673C9.14095 9.6907 9.30095 9.53111 9.43486 9.39326C9.78763 9.03012 10 8.54292 10 8C10 6.89543 9.10457 6 8 6C6.89543 6 6 6.89543 6 8C6 9.65685 4.65685 11 3 11C1.34315 11 0 9.65685 0 8C0 3.58172 3.58172 0 8 0C12.4183 0 16 3.58172 16 8C16 10.1661 15.1352 12.1363 13.7385 13.574C13.464 13.8566 13.2138 14.1065 12.9829 14.3372C12.4289 14.8908 11.9856 15.3336 11.5836 15.8502C11.0596 16.5235 11 16.8593 11 17C11 18.6569 9.65685 20 8 20C6.34315 20 5 18.6569 5 17C5 14.9315 5.96412 13.3015 6.84862 12.165ZM8.42694 13.3934C8.99031 12.6696 9.73557 11.9224 10.3763 11.2833L10.3781 11.2815L10.384 11.2756C10.555 11.1051 10.7244 10.9361 10.8694 10.7869C11.5715 10.0642 12 9.08217 12 8C12 5.79086 10.2091 4 8 4C5.79086 4 4 5.79086 4 8C4 8.55229 3.55228 9 3 9C2.44772 9 2 8.55229 2 8C2 4.68629 4.68629 2 8 2C11.3137 2 14 4.68629 14 8C14 9.62459 13.353 11.1006 12.3039 12.1804C12.0413 12.4509 11.801 12.691 11.5694 12.9224L11.5276 12.9641C11.0048 13.4862 10.4846 14.0059 10.0053 14.6218C9.3579 15.4536 9 16.22 9 17C9 17.5523 8.55229 18 8 18C7.44772 18 7 17.5523 7 17C7 15.5749 7.66187 14.3764 8.42694 13.3934Z" fill="var(--fill-0, white)"/>
<path fill-rule="evenodd" clip-rule="evenodd" d="M11 25C11 26.6569 9.65685 28 8 28C6.34315 28 5 26.6569 5 25C5 23.3431 6.34315 22 8 22C9.65685 22 11 23.3431 11 25ZM9 25C9 25.5523 8.55228 26 8 26C7.44772 26 7 25.5523 7 25C7 24.4477 7.44772 24 8 24C8.55228 24 9 24.4477 9 25Z" fill="var(--fill-0, white)"/>
</g>
</svg>
