<svg preserveAspectRatio="none" width="100%" height="100%" overflow="visible" style="display: block;" viewBox="0 0 36 36" fill="none" xmlns="http://www.w3.org/2000/svg">
<g id="stars-08">
<path id="Vector" d="M17.0485 5.45435C17.2097 4.84843 18.4887 4.84843 18.65 5.45435C19.3433 8.05997 20.5386 11.3744 22.4313 13.2671C24.324 15.1598 27.6384 16.3551 30.244 17.0484C30.85 17.2096 30.85 18.4886 30.244 18.6499C27.6384 19.3432 24.324 20.5385 22.4313 22.4312C20.5386 24.3239 19.3433 27.6383 18.65 30.2439C18.4887 30.8499 17.2097 30.8499 17.0485 30.2439C16.3552 27.6383 15.1599 24.3239 13.2672 22.4312C11.3745 20.5385 8.06007 19.3432 5.45446 18.6499C4.84853 18.4886 4.84853 17.2096 5.45446 17.0484C8.06007 16.3551 11.3745 15.1598 13.2672 13.2671C15.1599 11.3744 16.3552 8.05996 17.0485 5.45435Z" fill="var(--fill-0, #444444)"/>
</g>
</svg>
