<svg preserveAspectRatio="none" width="100%" height="100%" overflow="visible" style="display: block;" viewBox="0 0 17 24" fill="none" xmlns="http://www.w3.org/2000/svg">
<path id="Shape" fill-rule="evenodd" clip-rule="evenodd" d="M12.9958 13H6.99579V16.5816L2.41421 12L6.99579 7.41843V11H12.9958V3C12.9958 2.44772 13.4435 2 13.9958 2C14.5481 2 14.9958 2.44772 14.9958 3V21C14.9958 21.5523 14.5481 22 13.9958 22C13.4435 22 12.9958 21.5523 12.9958 21V13ZM10.9958 21C10.9958 22.6569 12.3389 24 13.9958 24C15.6526 24 16.9958 22.6569 16.9958 21V3C16.9958 1.34315 15.6526 0 13.9958 0C12.3389 0 10.9958 1.34315 10.9958 3V9H8.99579V5.00421C8.99579 4.11331 7.91864 3.66714 7.28868 4.29711L0.292894 11.2929C-0.0976303 11.6834 -0.0976322 12.3166 0.292894 12.7071L7.28868 19.7029C7.91864 20.3329 8.99579 19.8867 8.99579 18.9958V15H10.9958V21Z" fill="var(--fill-0, white)"/>
</svg>
