<svg preserveAspectRatio="none" width="100%" height="100%" overflow="visible" style="display: block;" viewBox="0 0 21 21" fill="none" xmlns="http://www.w3.org/2000/svg">
<g id="magic icons set/Set pace">
<path id="Icon" d="M9.73957 3.25H6.5C5.09987 3.25 4.3998 3.25 3.86502 3.52248C3.39462 3.76217 3.01217 4.14462 2.77248 4.61502C2.5 5.1498 2.5 5.84987 2.5 7.25V12.4167C2.5 13.1916 2.5 13.5791 2.58519 13.897C2.81635 14.7598 3.49022 15.4336 4.35295 15.6648C4.67087 15.75 5.05836 15.75 5.83333 15.75V17.6963C5.83333 18.1403 5.83333 18.3623 5.92436 18.4763C6.00352 18.5755 6.12356 18.6332 6.25045 18.6331C6.39636 18.6329 6.56973 18.4942 6.91646 18.2168L8.90434 16.6265C9.31043 16.3017 9.51347 16.1392 9.73957 16.0237C9.94017 15.9212 10.1537 15.8463 10.3743 15.801C10.6231 15.75 10.8831 15.75 11.4031 15.75H13.5C14.9001 15.75 15.6002 15.75 16.135 15.4775C16.6054 15.2378 16.9878 14.8554 17.2275 14.385C17.5 13.8502 17.5 13.1501 17.5 11.75V11.25" stroke="var(--stroke-0, #BBBBBB)" stroke-width="1.5" stroke-linecap="round" stroke-linejoin="round"/>
<path id="Icon_2" d="M17 0.75L17.523 1.79594C17.7 2.14993 17.7885 2.32692 17.9067 2.4803C18.0116 2.6164 18.1336 2.73841 18.2697 2.84331C18.4231 2.96154 18.6001 3.05003 18.9541 3.22703L20 3.75L18.9541 4.27297C18.6001 4.44996 18.4231 4.53846 18.2697 4.65669C18.1336 4.76159 18.0116 4.8836 17.9067 5.0197C17.7885 5.17308 17.7 5.35007 17.523 5.70406L17 6.75L16.477 5.70406C16.3 5.35007 16.2115 5.17308 16.0933 5.0197C15.9884 4.8836 15.8664 4.76159 15.7303 4.65669C15.5769 4.53846 15.3999 4.44997 15.0459 4.27297L14 3.75L15.0459 3.22703C15.3999 3.05003 15.5769 2.96154 15.7303 2.84331C15.8664 2.73841 15.9884 2.6164 16.0933 2.4803C16.2115 2.32692 16.3 2.14993 16.477 1.79594L17 0.75Z" stroke="var(--stroke-0, #BBBBBB)" stroke-width="1.5" stroke-linecap="round" stroke-linejoin="round"/>
</g>
</svg>
