<svg preserveAspectRatio="none" width="100%" height="100%" overflow="visible" style="display: block;" viewBox="0 0 17 17" fill="none" xmlns="http://www.w3.org/2000/svg">
<path id="Icon" d="M4.0834 7.41667C3.30842 7.41667 2.92093 7.41667 2.60302 7.50185C1.74029 7.73302 1.06642 8.40689 0.835249 9.26962C0.750063 9.58754 0.750063 9.97502 0.750063 10.75V11.75C0.750063 13.1501 0.750063 13.8502 1.02255 14.385C1.26223 14.8554 1.64468 15.2378 2.11509 15.4775C2.64987 15.75 3.34993 15.75 4.75006 15.75H11.7501C13.1502 15.75 13.8503 15.75 14.385 15.4775C14.8554 15.2378 15.2379 14.8554 15.4776 14.385C15.7501 13.8502 15.7501 13.1501 15.7501 11.75V10.75C15.7501 9.97502 15.7501 9.58754 15.6649 9.26962C15.4337 8.40689 14.7598 7.73302 13.8971 7.50185C13.5792 7.41667 13.1917 7.41667 12.4167 7.41667M11.5834 4.08333L8.25006 0.75M8.25006 0.75L4.91673 4.08333M8.25006 0.75V10.75" stroke="var(--stroke-0, #FAFAFA)" stroke-width="1.5" stroke-linecap="round" stroke-linejoin="round"/>
</svg>
