<svg preserveAspectRatio="none" width="100%" height="100%" overflow="visible" style="display: block;" viewBox="0 0 15 15" fill="none" xmlns="http://www.w3.org/2000/svg">
<g id="Icon">
<path d="M3.75 8.08333L4.27297 9.12928C4.44997 9.48326 4.53846 9.66026 4.65669 9.81363C4.7616 9.94973 4.88361 10.0717 5.0197 10.1766C5.17308 10.2949 5.35007 10.3834 5.70406 10.5604L6.75 11.0833L5.70406 11.6063C5.35007 11.7833 5.17308 11.8718 5.0197 11.99C4.88361 12.0949 4.7616 12.2169 4.65669 12.353C4.53846 12.5064 4.44997 12.6834 4.27297 13.0374L3.75 14.0833L3.22703 13.0374C3.05004 12.6834 2.96154 12.5064 2.84331 12.353C2.73841 12.2169 2.6164 12.0949 2.4803 11.99C2.32692 11.8718 2.14993 11.7833 1.79594 11.6063L0.75 11.0833L1.79594 10.5604C2.14993 10.3834 2.32692 10.2949 2.4803 10.1766C2.6164 10.0717 2.73841 9.94973 2.84331 9.81363C2.96154 9.66026 3.05004 9.48326 3.22703 9.12928L3.75 8.08333Z" stroke="var(--stroke-0, #FAFAFA)" stroke-width="1.5" stroke-linecap="round" stroke-linejoin="round"/>
<path d="M9.41667 0.75L10.2024 2.79295C10.3904 3.28177 10.4844 3.52618 10.6306 3.73176C10.7602 3.91397 10.9194 4.07316 11.1016 4.20272C11.3072 4.34891 11.5516 4.44291 12.0404 4.63092L14.0833 5.41667L12.0404 6.20242C11.5516 6.39042 11.3072 6.48443 11.1016 6.63061C10.9194 6.76017 10.7602 6.91937 10.6306 7.10157C10.4844 7.30716 10.3904 7.55157 10.2024 8.04039L9.41667 10.0833L8.63092 8.04039C8.44291 7.55157 8.34891 7.30716 8.20272 7.10157C8.07316 6.91937 7.91397 6.76017 7.73176 6.63061C7.52618 6.48443 7.28177 6.39042 6.79295 6.20242L4.75 5.41667L6.79295 4.63092C7.28177 4.44291 7.52618 4.34891 7.73176 4.20272C7.91397 4.07316 8.07316 3.91397 8.20272 3.73176C8.34891 3.52618 8.44291 3.28177 8.63092 2.79295L9.41667 0.75Z" stroke="var(--stroke-0, #FAFAFA)" stroke-width="1.5" stroke-linecap="round" stroke-linejoin="round"/>
</g>
</svg>
