<svg preserveAspectRatio="none" width="100%" height="100%" overflow="visible" style="display: block;" viewBox="0 0 28 34" fill="none" xmlns="http://www.w3.org/2000/svg">
<g id="Shape" filter="url(#filter0_d_1277_20619)">
<path fill-rule="evenodd" clip-rule="evenodd" d="M11.1051 3.71009C11.4518 2.43647 12.6165 1.5 14 1.5C15.3835 1.5 16.5482 2.43647 16.8949 3.71009C17.2369 3.57452 17.6098 3.5 18 3.5C19.6569 3.5 21 4.84315 21 6.5V7.67071C21.3128 7.56015 21.6494 7.5 22 7.5C23.6569 7.5 25 8.84315 25 10.5V18.8444C25 20.7587 24.5004 22.6398 23.5507 24.3019L21.732 27.4846C21.0198 28.7309 19.6945 29.5 18.259 29.5H10.5439C9.25205 29.5 8.03977 28.8761 7.28892 27.825L4.30387 23.6459C3.45586 22.4587 3 21.0362 3 19.5772V13.5C3 11.8431 4.34315 10.5 6 10.5C6.35064 10.5 6.68722 10.5602 7 10.6707V6.5C7 4.84315 8.34315 3.5 10 3.5C10.3902 3.5 10.7631 3.57452 11.1051 3.71009Z" fill="var(--fill-0, white)"/>
</g>
<defs>
<filter id="filter0_d_1277_20619" x="0" y="0" width="28" height="34" filterUnits="userSpaceOnUse" color-interpolation-filters="sRGB">
<feFlood flood-opacity="0" result="BackgroundImageFix"/>
<feColorMatrix in="SourceAlpha" type="matrix" values="0 0 0 0 0 0 0 0 0 0 0 0 0 0 0 0 0 0 127 0" result="hardAlpha"/>
<feOffset dy="1.5"/>
<feGaussianBlur stdDeviation="1.5"/>
<feComposite in2="hardAlpha" operator="out"/>
<feColorMatrix type="matrix" values="0 0 0 0 0.0705882 0 0 0 0 0.0745098 0 0 0 0 0.101961 0 0 0 0.25 0"/>
<feBlend mode="normal" in2="BackgroundImageFix" result="effect1_dropShadow_1277_20619"/>
<feBlend mode="normal" in="SourceGraphic" in2="effect1_dropShadow_1277_20619" result="shape"/>
</filter>
</defs>
</svg>
