<svg preserveAspectRatio="none" width="100%" height="100%" overflow="visible" style="display: block;" viewBox="0 0 28 16" fill="none" xmlns="http://www.w3.org/2000/svg">
<path id="Shape" fill-rule="evenodd" clip-rule="evenodd" d="M20.9958 8.9996V12.5848L25.5859 7.9996L20.9958 3.41441V6.9996H6.99579V3.41803L2.41421 7.9996L6.99579 12.5812V8.9996H20.9958ZM18.9958 1.002C18.9958 0.111355 20.0724 -0.334927 20.7025 0.294523L27.7076 7.29212C28.0986 7.68273 28.0986 8.31648 27.7076 8.70709L20.7025 15.7047C20.0724 16.3341 18.9958 15.8879 18.9958 14.9972V10.9996H8.99579V14.9954C8.99579 15.8863 7.91865 16.3325 7.28868 15.7025L0.292893 8.70671C-0.097631 8.31619 -0.0976312 7.68302 0.292893 7.2925L7.28868 0.296711C7.91864 -0.333253 8.99579 0.112911 8.99579 1.00382V4.9996H18.9958V1.002Z" fill="var(--fill-0, white)"/>
</svg>
