<svg preserveAspectRatio="none" width="100%" height="100%" overflow="visible" style="display: block;" viewBox="0 0 23 30" fill="none" xmlns="http://www.w3.org/2000/svg">
<g id="Shape" filter="url(#filter0_d_1277_20575)">
<path d="M16.9958 25.5C18.6526 25.5 19.9958 24.1569 19.9958 22.5V4.5C19.9958 2.84315 18.6526 1.5 16.9958 1.5C15.3389 1.5 13.9958 2.84315 13.9958 4.5V10.5H11.9958V6.50421C11.9958 5.61331 10.9186 5.16714 10.2887 5.79711L3.29289 12.7929C2.90237 13.1834 2.90237 13.8166 3.29289 14.2071L10.2887 21.2029C10.9186 21.8329 11.9958 21.3867 11.9958 20.4958V16.5H13.9958V22.5C13.9958 24.1569 15.3389 25.5 16.9958 25.5Z" fill="var(--fill-0, #12131A)"/>
</g>
<defs>
<filter id="filter0_d_1277_20575" x="0" y="0" width="22.9958" height="30" filterUnits="userSpaceOnUse" color-interpolation-filters="sRGB">
<feFlood flood-opacity="0" result="BackgroundImageFix"/>
<feColorMatrix in="SourceAlpha" type="matrix" values="0 0 0 0 0 0 0 0 0 0 0 0 0 0 0 0 0 0 127 0" result="hardAlpha"/>
<feOffset dy="1.5"/>
<feGaussianBlur stdDeviation="1.5"/>
<feComposite in2="hardAlpha" operator="out"/>
<feColorMatrix type="matrix" values="0 0 0 0 0.0705882 0 0 0 0 0.0745098 0 0 0 0 0.101961 0 0 0 0.25 0"/>
<feBlend mode="normal" in2="BackgroundImageFix" result="effect1_dropShadow_1277_20575"/>
<feBlend mode="normal" in="SourceGraphic" in2="effect1_dropShadow_1277_20575" result="shape"/>
</filter>
</defs>
</svg>
