<svg preserveAspectRatio="none" width="100%" height="100%" overflow="visible" style="display: block;" viewBox="0 0 18 19" fill="none" xmlns="http://www.w3.org/2000/svg">
<path id="Icon" d="M12.7984 0.750001V9.91667M16.9651 7.25V3.41667C16.9651 2.48325 16.9651 2.01654 16.7834 1.66002C16.6236 1.34641 16.3687 1.09145 16.0551 0.931657C15.6986 0.750001 15.2318 0.750001 14.2984 0.750001H5.39677C4.17887 0.750001 3.56992 0.750001 3.07808 0.972862C2.64459 1.16928 2.27618 1.48535 2.01613 1.88393C1.72107 2.33616 1.62847 2.93803 1.44328 4.14177L1.00738 6.9751C0.76313 8.56276 0.641002 9.35659 0.876596 9.97427C1.08338 10.5164 1.4723 10.9697 1.9767 11.2566C2.55137 11.5833 3.35454 11.5833 4.96087 11.5833H5.63176C6.09847 11.5833 6.33183 11.5833 6.51009 11.6742C6.66689 11.7541 6.79437 11.8815 6.87427 12.0383C6.96509 12.2166 6.96509 12.45 6.96509 12.9167V15.3618C6.96509 16.4967 7.88509 17.4167 9.01996 17.4167C9.29065 17.4167 9.53594 17.2573 9.64588 17.0099L12.4465 10.7085C12.5739 10.4219 12.6376 10.2786 12.7383 10.1735C12.8272 10.0806 12.9365 10.0096 13.0576 9.96599C13.1945 9.91667 13.3513 9.91667 13.6649 9.91667H14.2984C15.2318 9.91667 15.6986 9.91667 16.0551 9.73501C16.3687 9.57522 16.6236 9.32026 16.7834 9.00665C16.9651 8.65013 16.9651 8.18342 16.9651 7.25Z" stroke="var(--stroke-0, #FAFAFA)" stroke-width="1.5" stroke-linecap="round" stroke-linejoin="round"/>
</svg>
