<svg preserveAspectRatio="none" width="100%" height="100%" overflow="visible" style="display: block;" viewBox="0 0 28 24" fill="none" xmlns="http://www.w3.org/2000/svg">
<path id="Shape" fill-rule="evenodd" clip-rule="evenodd" d="M14.9958 13H20.9958V16.5852L25.5858 12L20.9958 7.41481V11H14.9958V3C14.9958 2.44772 14.5481 2 13.9958 2C13.4435 2 12.9958 2.44772 12.9958 3V11H6.99579V7.41843L2.41421 12L6.99579 16.5816V13H12.9958V21C12.9958 21.5523 13.4435 22 13.9958 22C14.5481 22 14.9958 21.5523 14.9958 21V13ZM16.9958 21C16.9958 22.6569 15.6526 24 13.9958 24C12.3389 24 10.9958 22.6569 10.9958 21V15H8.99579V18.9958C8.99579 19.8867 7.91865 20.3329 7.28868 19.7029L0.292894 12.7071C-0.0976309 12.3166 -0.0976313 11.6834 0.292893 11.2929L7.28868 4.29711C7.91865 3.66714 8.99579 4.11331 8.99579 5.00421V9H10.9958V3C10.9958 1.34315 12.3389 0 13.9958 0C15.6526 0 16.9958 1.34315 16.9958 3V9H18.9958V5.00241C18.9958 4.11176 20.0724 3.66548 20.7025 4.29493L27.7075 11.2925C28.0986 11.6831 28.0986 12.3169 27.7075 12.7075L20.7025 19.7051C20.0724 20.3345 18.9958 19.8882 18.9958 18.9976V15H16.9958V21Z" fill="var(--fill-0, white)"/>
</svg>
