<svg preserveAspectRatio="none" width="100%" height="100%" overflow="visible" style="display: block;" viewBox="0 0 28 28" fill="none" xmlns="http://www.w3.org/2000/svg">
<path id="Shape" fill-rule="evenodd" clip-rule="evenodd" d="M13 13H3C2.44772 13 2 13.4477 2 14C2 14.5523 2.44772 15 3 15H13V25C13 25.5523 13.4477 26 14 26C14.5523 26 15 25.5523 15 25V15H25C25.5523 15 26 14.5523 26 14C26 13.4477 25.5523 13 25 13H15V3C15 2.44771 14.5523 2 14 2C13.4477 2 13 2.44772 13 3V13ZM11 3C11 1.34315 12.3431 0 14 0C15.6569 0 17 1.34315 17 3V11H25C26.6569 11 28 12.3431 28 14C28 15.6569 26.6569 17 25 17H17V25C17 26.6569 15.6569 28 14 28C12.3431 28 11 26.6569 11 25V17H3C1.34315 17 0 15.6569 0 14C0 12.3431 1.34315 11 3 11H11V3Z" fill="var(--fill-0, white)"/>
</svg>
