<svg preserveAspectRatio="none" width="100%" height="100%" overflow="visible" style="display: block;" viewBox="0 0 16 28" fill="none" xmlns="http://www.w3.org/2000/svg">
<path id="Shape" fill-rule="evenodd" clip-rule="evenodd" d="M6.9996 20.9958H3.41441L7.9996 25.5858L12.5848 20.9958H8.9996V6.99579H12.5812L7.9996 2.41421L3.41802 6.99579H6.9996V20.9958ZM14.9972 18.9958C15.8878 18.9958 16.3341 20.0724 15.7047 20.7025L8.70708 27.7075C8.31647 28.0986 7.68272 28.0986 7.29211 27.7075L0.294524 20.7025C-0.334927 20.0724 0.111354 18.9958 1.002 18.9958H4.9996V8.99579H1.00381C0.112903 8.99579 -0.333262 7.91865 0.296703 7.28868L7.29249 0.292893C7.68301 -0.097631 8.31618 -0.0976312 8.7067 0.292893L15.7025 7.28868C16.3325 7.91864 15.8863 8.99579 14.9954 8.99579H10.9996V18.9958H14.9972Z" fill="var(--fill-0, white)"/>
</svg>
