<svg preserveAspectRatio="none" width="100%" height="100%" overflow="visible" style="display: block;" viewBox="0 0 56 56" fill="none" xmlns="http://www.w3.org/2000/svg">
<path id="BG" d="M28 55C24.4543 55 20.9433 54.3016 17.6675 52.9448C14.3918 51.5879 11.4153 49.5991 8.90812 47.0919C6.40093 44.5847 4.41213 41.6082 3.05525 38.3325C1.69837 35.0567 1 31.5457 1 28C1 24.4543 1.69838 20.9433 3.05525 17.6675C4.41213 14.3918 6.40094 11.4153 8.90812 8.90812C11.4153 6.40093 14.3918 4.41213 17.6676 3.05525C20.9433 1.69837 24.4543 0.999999 28 1C31.5457 1 35.0567 1.69838 38.3325 3.05526C41.6083 4.41213 44.5847 6.40094 47.0919 8.90812C49.5991 11.4153 51.5879 14.3918 52.9448 17.6676C54.3016 20.9433 55 24.4543 55 28C55 31.5457 54.3016 35.0567 52.9448 38.3325C51.5879 41.6083 49.5991 44.5847 47.0919 47.0919C44.5847 49.5991 41.6082 51.5879 38.3324 52.9448C35.0567 54.3016 31.5457 55 28 55L28 55Z" stroke="var(--stroke-0, #555555)" stroke-width="2" stroke-linecap="round"/>
</svg>
