<svg preserveAspectRatio="none" width="100%" height="100%" overflow="visible" style="display: block;" viewBox="0 0 20 20" fill="none" xmlns="http://www.w3.org/2000/svg">
<g id="Icon">
<path id="Icon_2" d="M9.99783 11.8754C7.5211 11.8754 5.31857 13.0712 3.91633 14.927C3.61453 15.3265 3.46362 15.5262 3.46856 15.7961C3.47237 16.0046 3.60332 16.2677 3.76739 16.3964C3.97976 16.5631 4.27406 16.5631 4.86264 16.5631H9.09367M13.5136 6.01577C13.5136 7.95747 11.9395 9.53154 9.99783 9.53154C8.05612 9.53154 6.48206 7.95747 6.48206 6.01577C6.48206 4.07406 8.05612 2.5 9.99783 2.5C11.9395 2.5 13.5136 4.07406 13.5136 6.01577Z" stroke="var(--stroke-0, #FAFAFA)" stroke-width="1.51" stroke-linecap="round" stroke-linejoin="round"/>
<path id="Icon_3" d="M15.1877 17.5V12.8123M12.8438 15.1562H17.5315" stroke="var(--stroke-0, #FAFAFA)" stroke-width="1.51" stroke-linecap="round" stroke-linejoin="round"/>
</g>
</svg>
