<svg preserveAspectRatio="none" width="100%" height="100%" overflow="visible" style="display: block;" viewBox="0 0 15 11" fill="none" xmlns="http://www.w3.org/2000/svg">
<g id="Icon">
<path d="M14.0833 3.37091C14.0833 2.96704 14.0833 2.7651 14.0035 2.67159C13.9342 2.59045 13.8302 2.54739 13.7238 2.55577C13.6013 2.56541 13.4585 2.70821 13.1729 2.99379L10.75 5.41667L13.1729 7.83954C13.4585 8.12513 13.6013 8.26792 13.7238 8.27757C13.8302 8.28594 13.9342 8.24288 14.0035 8.16175C14.0833 8.06824 14.0833 7.8663 14.0833 7.46242V3.37091Z" stroke="var(--stroke-0, #F2EEFF)" stroke-width="1.5" stroke-linecap="round" stroke-linejoin="round"/>
<path d="M0.750001 3.95C0.750001 2.8299 0.750001 2.26984 0.967988 1.84202C1.15973 1.4657 1.4657 1.15973 1.84202 0.967988C2.26984 0.750001 2.8299 0.750001 3.95 0.750001H7.55C8.67011 0.750001 9.23016 0.750001 9.65798 0.967988C10.0343 1.15973 10.3403 1.4657 10.532 1.84202C10.75 2.26984 10.75 2.8299 10.75 3.95V6.88333C10.75 8.00344 10.75 8.56349 10.532 8.99131C10.3403 9.36764 10.0343 9.6736 9.65798 9.86535C9.23016 10.0833 8.67011 10.0833 7.55 10.0833H3.95C2.8299 10.0833 2.26984 10.0833 1.84202 9.86535C1.4657 9.6736 1.15973 9.36764 0.967988 8.99131C0.750001 8.56349 0.750001 8.00344 0.750001 6.88333V3.95Z" stroke="var(--stroke-0, #F2EEFF)" stroke-width="1.5" stroke-linecap="round" stroke-linejoin="round"/>
</g>
</svg>
