<svg preserveAspectRatio="none" width="100%" height="100%" overflow="visible" style="display: block;" viewBox="0 0 16 15" fill="none" xmlns="http://www.w3.org/2000/svg">
<g id="Group 672972436">
<path id="Rectangle 15128110" d="M13.2991 4.75707L12.7291 3.43405C12.3042 2.49198 12.0918 2.02095 11.7488 1.75293C11.4474 1.51733 11.0783 1.38777 10.6977 1.38392C10.2646 1.37953 9.81022 1.61648 8.90143 2.09036L4.24946 4.75671M7.92608 2.13283L7.34881 1.70557C6.57253 1.13101 6.18439 0.843727 5.7759 0.774376C5.41647 0.713356 5.04722 0.76758 4.71967 0.92948C4.3474 1.11348 4.05567 1.5006 3.47222 2.27483L1.77063 4.75707M6 10.9647C5.0335 10.9647 4.25 10.1706 4.25 9.19108C4.25 8.21155 5.0335 7.41749 6 7.41749M11.25 9.19108C11.25 10.1706 10.4665 10.9647 9.5 10.9647C8.5335 10.9647 7.75 10.1706 7.75 9.19108C7.75 8.21155 8.5335 7.41749 9.5 7.41749C10.4665 7.41749 11.25 8.21155 11.25 9.19108ZM3.95 13.625H11.55C12.6701 13.625 13.2302 13.625 13.658 13.407C14.0343 13.2153 14.3403 12.9093 14.532 12.533C14.75 12.1052 14.75 11.5451 14.75 10.425V7.95707C14.75 6.83696 14.75 6.27691 14.532 5.84909C14.3403 5.47276 14.0343 5.1668 13.658 4.97505C13.2302 4.75707 12.6701 4.75707 11.55 4.75707H3.95C2.8299 4.75707 2.26984 4.75707 1.84202 4.97505C1.4657 5.1668 1.15973 5.47276 0.967988 5.84909C0.750001 6.27691 0.750001 6.83696 0.750001 7.95706V10.425C0.750001 11.5451 0.750001 12.1052 0.967988 12.533C1.15973 12.9093 1.4657 13.2153 1.84202 13.407C2.26984 13.625 2.8299 13.625 3.95 13.625Z" stroke="var(--stroke-0, #F2EEFF)" stroke-width="1.5" stroke-linecap="round" stroke-linejoin="round"/>
</g>
</svg>
