<svg preserveAspectRatio="none" width="100%" height="100%" overflow="visible" style="display: block;" viewBox="0 0 14 15" fill="none" xmlns="http://www.w3.org/2000/svg">
<g id="Icon">
<path d="M4.98341 12.3307L5.37304 13.207C5.48887 13.4679 5.67789 13.6895 5.91719 13.8451C6.15649 14.0006 6.43578 14.0834 6.72119 14.0833C7.0066 14.0834 7.28589 14.0006 7.52519 13.8451C7.76449 13.6895 7.95351 13.4679 8.06934 13.207L8.45897 12.3307C8.59767 12.0198 8.83097 11.7606 9.12564 11.59C9.42216 11.419 9.76519 11.3461 10.1056 11.3819L11.059 11.4833C11.3427 11.5134 11.6291 11.4604 11.8834 11.3309C12.1377 11.2014 12.349 11.0009 12.4916 10.7537C12.6343 10.5067 12.7024 10.2235 12.6874 9.93859C12.6724 9.65366 12.575 9.3792 12.4071 9.14852L11.8427 8.37296C11.6417 8.09475 11.5343 7.75988 11.536 7.41667C11.5359 7.07439 11.6443 6.7409 11.8456 6.46407L12.4101 5.68852C12.578 5.45784 12.6754 5.18338 12.6903 4.89845C12.7053 4.61352 12.6373 4.33036 12.4945 4.08333C12.3519 3.83616 12.1407 3.63566 11.8864 3.50615C11.6321 3.37664 11.3457 3.32369 11.0619 3.3537L10.1086 3.45519C9.76815 3.49094 9.42512 3.41808 9.1286 3.24704C8.83335 3.0755 8.59998 2.81491 8.46193 2.50259L8.06934 1.6263C7.95351 1.36545 7.76449 1.14381 7.52519 0.988266C7.28589 0.832722 7.0066 0.749953 6.72119 0.75C6.43578 0.749953 6.15649 0.832722 5.91719 0.988266C5.67789 1.14381 5.48887 1.36545 5.37304 1.6263L4.98341 2.50259C4.84537 2.81491 4.612 3.0755 4.31675 3.24704C4.02022 3.41808 3.67719 3.49094 3.33675 3.45519L2.38045 3.3537C2.09667 3.32369 1.81028 3.37664 1.55599 3.50615C1.30171 3.63566 1.09046 3.83616 0.947858 4.08333C0.805072 4.33036 0.737047 4.61352 0.752036 4.89845C0.767026 5.18338 0.864386 5.45784 1.0323 5.68852L1.59675 6.46407C1.79804 6.7409 1.90644 7.07439 1.90638 7.41667C1.90644 7.75894 1.79804 8.09243 1.59675 8.36926L1.0323 9.14482C0.864386 9.3755 0.767026 9.64995 0.752036 9.93489C0.737047 10.2198 0.805072 10.503 0.947858 10.75C1.0906 10.997 1.30188 11.1974 1.55612 11.3269C1.81037 11.4564 2.09669 11.5095 2.38045 11.4796L3.33378 11.3781C3.67423 11.3424 4.01726 11.4153 4.31378 11.5863C4.61014 11.7573 4.84459 12.018 4.98341 12.3307Z" stroke="var(--stroke-0, #F2EEFF)" stroke-width="1.5" stroke-linecap="round" stroke-linejoin="round"/>
<path d="M6.72 9.41667C7.82457 9.41667 8.72 8.52124 8.72 7.41667C8.72 6.3121 7.82457 5.41667 6.72 5.41667C5.61543 5.41667 4.72 6.3121 4.72 7.41667C4.72 8.52124 5.61543 9.41667 6.72 9.41667Z" stroke="var(--stroke-0, #F2EEFF)" stroke-width="1.5" stroke-linecap="round" stroke-linejoin="round"/>
</g>
</svg>
