<svg preserveAspectRatio="none" width="100%" height="100%" overflow="visible" style="display: block;" viewBox="0 0 15 15" fill="none" xmlns="http://www.w3.org/2000/svg">
<path id="Icon" d="M3.47959 6.90253C3.43815 6.63548 3.41665 6.3619 3.41665 6.08333C3.41665 3.13781 5.82018 0.75 8.78507 0.75C11.75 0.75 14.1535 3.13781 14.1535 6.08333C14.1535 6.74871 14.0308 7.38564 13.8068 7.973C13.7602 8.09499 13.737 8.15599 13.7264 8.20361C13.7159 8.25079 13.7119 8.28398 13.7108 8.3323C13.7096 8.38107 13.7162 8.43478 13.7295 8.54221L13.9978 10.7223C14.0269 10.9584 14.0414 11.0764 14.0022 11.1621C13.9678 11.2373 13.9067 11.297 13.8307 11.3297C13.7441 11.3669 13.6264 11.3497 13.3912 11.3152L11.2676 11.0039C11.1568 10.9877 11.1013 10.9796 11.0508 10.9798C11.0009 10.9801 10.9663 10.9838 10.9174 10.9941C10.868 11.0045 10.8049 11.0281 10.6787 11.0754C10.0898 11.296 9.45162 11.4167 8.78507 11.4167C8.50628 11.4167 8.23245 11.3956 7.96512 11.3549M4.5044 14.0833C6.48099 14.0833 8.08334 12.4417 8.08334 10.4167C8.08334 8.39162 6.48099 6.75 4.5044 6.75C2.5278 6.75 0.925449 8.39162 0.925449 10.4167C0.925449 10.8237 0.990195 11.2153 1.10971 11.5812C1.16023 11.7358 1.18549 11.8131 1.19378 11.866C1.20244 11.9211 1.20395 11.9521 1.20073 12.0078C1.19764 12.0612 1.18429 12.1215 1.15757 12.2422L0.750011 14.0833L2.74655 13.8107C2.85552 13.7958 2.91001 13.7883 2.95759 13.7887C3.00769 13.789 3.03428 13.7917 3.08342 13.8015C3.13008 13.8108 3.19945 13.8353 3.33819 13.8843C3.70374 14.0133 4.09608 14.0833 4.5044 14.0833Z" stroke="var(--stroke-0, #F2EEFF)" stroke-width="1.5" stroke-linecap="round" stroke-linejoin="round"/>
</svg>
