<svg preserveAspectRatio="none" width="100%" height="100%" overflow="visible" style="display: block;" viewBox="0 0 17 17" fill="none" xmlns="http://www.w3.org/2000/svg">
<path id="Vector" d="M13.25 0.750003L13.25 3.08976e-06L13.25 0.750003ZM15.75 3.25L16.5 3.25L16.5 3.25L15.75 3.25ZM0.750003 3.25L2.61506e-06 3.25L0.750003 3.25ZM3.25 0.75L3.25 1.5L3.25 0.75ZM3.25 15.75L3.25 16.5L3.25 15.75ZM0.75 13.25L1.5 13.25L0.75 13.25ZM13.25 15.75L13.25 15L13.25 15.75ZM15.75 13.25L15 13.25L15 13.25L15.75 13.25ZM5.71969 10.4483C6.01259 10.7412 6.48746 10.7412 6.78035 10.4483C7.07325 10.1554 7.07325 9.68053 6.78035 9.38764L6.25002 9.91797L5.71969 10.4483ZM4.58335 8.2513L4.05302 7.72097C3.91237 7.86162 3.83335 8.05239 3.83335 8.2513C3.83335 8.45021 3.91237 8.64098 4.05303 8.78163L4.58335 8.2513ZM6.78035 7.11497C7.07325 6.82207 7.07325 6.3472 6.78035 6.05431C6.48746 5.76141 6.01259 5.76141 5.71969 6.05431L6.25002 6.58464L6.78035 7.11497ZM13.25 15.75L13.25 15L3.25 15L3.25 15.75L3.25 16.5L13.25 16.5L13.25 15.75ZM0.75 13.25L1.5 13.25L1.5 3.25L0.750003 3.25L2.61506e-06 3.25L0 13.25L0.75 13.25ZM3.25 0.75L3.25 1.5L13.25 1.5L13.25 0.750003L13.25 3.08976e-06L3.25 0L3.25 0.75ZM15.75 3.25L15 3.25L15 13.25L15.75 13.25L16.5 13.25L16.5 3.25L15.75 3.25ZM13.25 0.750003L13.25 1.5C14.2165 1.5 15 2.28351 15 3.25L15.75 3.25L16.5 3.25C16.5 1.45508 15.0449 3.64435e-06 13.25 3.08976e-06L13.25 0.750003ZM0.750003 3.25L1.5 3.25C1.5 2.2835 2.2835 1.5 3.25 1.5L3.25 0.75L3.25 0C1.45508 -5.54589e-07 3.08445e-06 1.45507 2.61506e-06 3.25L0.750003 3.25ZM3.25 15.75L3.25 15C2.2835 15 1.5 14.2165 1.5 13.25L0.75 13.25L0 13.25C-4.69385e-07 15.0449 1.45507 16.5 3.25 16.5L3.25 15.75ZM13.25 15.75L13.25 16.5C15.0449 16.5 16.5 15.0449 16.5 13.25L15.75 13.25L15 13.25C15 14.2165 14.2165 15 13.25 15L13.25 15.75ZM6.25002 9.91797L6.78035 9.38764L5.11368 7.72097L4.58335 8.2513L4.05303 8.78163L5.71969 10.4483L6.25002 9.91797ZM4.58335 8.2513L5.11368 8.78163L6.78035 7.11497L6.25002 6.58464L5.71969 6.05431L4.05302 7.72097L4.58335 8.2513ZM10.25 0.750002L9.50002 0.750001L9.50002 15.75L10.25 15.75L11 15.75L11 0.750002L10.25 0.750002Z" fill="var(--stroke-0, #888888)"/>
</svg>
