<svg preserveAspectRatio="none" width="100%" height="100%" overflow="visible" style="display: block;" viewBox="0 0 14 14" fill="none" xmlns="http://www.w3.org/2000/svg">
<path id="Icon" d="M6.75 6.75L12.75 6.75M6.75 0.750001L6.75 12.75M3.95 0.750001H9.55C10.6701 0.750001 11.2302 0.750001 11.658 0.967988C12.0343 1.15973 12.3403 1.4657 12.532 1.84202C12.75 2.26984 12.75 2.8299 12.75 3.95V9.55C12.75 10.6701 12.75 11.2302 12.532 11.658C12.3403 12.0343 12.0343 12.3403 11.658 12.532C11.2302 12.75 10.6701 12.75 9.55 12.75H3.95C2.8299 12.75 2.26984 12.75 1.84202 12.532C1.4657 12.3403 1.15973 12.0343 0.967988 11.658C0.750001 11.2302 0.750001 10.6701 0.750001 9.55V3.95C0.750001 2.8299 0.750001 2.26984 0.967988 1.84202C1.15973 1.4657 1.4657 1.15973 1.84202 0.967988C2.26984 0.750001 2.8299 0.750001 3.95 0.750001Z" stroke="var(--stroke-0, #F2EEFF)" stroke-width="1.5" stroke-linecap="round" stroke-linejoin="round"/>
</svg>
