<svg preserveAspectRatio="none" width="100%" height="100%" overflow="visible" style="display: block;" viewBox="0 0 20 20" fill="none" xmlns="http://www.w3.org/2000/svg">
<g id="Media &#38; devices/signal-01">
<path id="Icon" d="M6.46447 13.5355C4.51184 11.5829 4.51184 8.41706 6.46447 6.46444M4.10744 15.8926C0.853074 12.6382 0.853074 7.36181 4.10744 4.10744M11.6667 10C11.6667 10.9205 10.9205 11.6667 10 11.6667C9.07953 11.6667 8.33333 10.9205 8.33333 10C8.33333 9.07952 9.07953 8.33333 10 8.33333C10.9205 8.33333 11.6667 9.07952 11.6667 10Z" stroke="var(--stroke-0, #F2EEFF)" stroke-width="1.5" stroke-linecap="round" stroke-linejoin="round"/>
<path id="Icon_2" d="M15.8926 4.10748C17.5197 5.73466 18.3333 7.86733 18.3333 10" stroke="var(--stroke-0, #F2EEFF)" stroke-width="1.5" stroke-linecap="round" stroke-linejoin="round"/>
<path id="Icon_3" d="M13.5355 6.46447C14.2561 7.18507 14.7108 8.0709 14.8995 9" stroke="var(--stroke-0, #F2EEFF)" stroke-width="1.5" stroke-linecap="round" stroke-linejoin="round"/>
<path id="Icon_4" d="M15.833 17.5V12.5M13.333 15H18.333" stroke="var(--stroke-0, #F2EEFF)" stroke-width="1.5" stroke-linecap="round" stroke-linejoin="round"/>
</g>
</svg>
