<svg preserveAspectRatio="none" width="100%" height="100%" overflow="visible" style="display: block;" viewBox="0 0 16 17" fill="none" xmlns="http://www.w3.org/2000/svg">
<g id="6">
<path id="Icon" d="M14.6667 8.15C14.6667 11.8319 11.6819 14.8167 8 14.8167C4.3181 14.8167 1.33333 11.8319 1.33333 8.15C1.33333 4.4681 4.3181 1.48333 8 1.48333M5.33333 9.48333C5.33333 9.48333 6.33333 10.8167 8 10.8167C9.66667 10.8167 10.6667 9.48333 10.6667 9.48333M10 6.15H10.0067M6 6.15H6.00667M10.3333 6.15C10.3333 6.33409 10.1841 6.48333 10 6.48333C9.8159 6.48333 9.66667 6.33409 9.66667 6.15C9.66667 5.9659 9.8159 5.81667 10 5.81667C10.1841 5.81667 10.3333 5.9659 10.3333 6.15ZM6.33333 6.15C6.33333 6.33409 6.18409 6.48333 6 6.48333C5.8159 6.48333 5.66667 6.33409 5.66667 6.15C5.66667 5.9659 5.8159 5.81667 6 5.81667C6.18409 5.81667 6.33333 5.9659 6.33333 6.15Z" stroke="var(--stroke-0, #F2EEFF)" stroke-width="1.5" stroke-linecap="round" stroke-linejoin="round"/>
<path id="Icon_2" d="M13.2 4.75V0.75M11.2 2.75H15.2" stroke="var(--stroke-0, #F2EEFF)" stroke-width="1.5" stroke-linecap="round" stroke-linejoin="round"/>
</g>
</svg>
