<svg preserveAspectRatio="none" width="100%" height="100%" overflow="visible" style="display: block;" viewBox="0 0 15 12" fill="none" xmlns="http://www.w3.org/2000/svg">
<path id="Icon" d="M12.5819 0.945268C13.5268 2.25876 14.0833 3.87036 14.0833 5.61193C14.0833 7.35351 13.5268 8.96511 12.5819 10.2786M9.91355 2.94527C10.4408 3.70116 10.75 4.62044 10.75 5.61193C10.75 6.60343 10.4408 7.52271 9.91355 8.2786M5.83955 1.18906L3.72909 3.29952C3.61379 3.41482 3.55614 3.47247 3.48886 3.51369C3.42921 3.55025 3.36418 3.57718 3.29616 3.59351C3.21943 3.61193 3.1379 3.61193 2.97484 3.61193H1.81667C1.4433 3.61193 1.25662 3.61193 1.11401 3.6846C0.988569 3.74851 0.886582 3.8505 0.822667 3.97594C0.750004 4.11855 0.750004 4.30523 0.750004 4.6786V6.54527C0.750004 6.91864 0.750004 7.10532 0.822667 7.24793C0.886582 7.37337 0.988569 7.47536 1.11401 7.53927C1.25662 7.61194 1.4433 7.61194 1.81667 7.61194H2.97484C3.1379 7.61194 3.21943 7.61193 3.29616 7.63036C3.36418 7.64669 3.42921 7.67362 3.48886 7.71018C3.55614 7.7514 3.61379 7.80905 3.72909 7.92435L5.83955 10.0348C6.12513 10.3204 6.26792 10.4632 6.39052 10.4728C6.49689 10.4812 6.60084 10.4381 6.67014 10.357C6.75 10.2635 6.75 10.0616 6.75 9.65769V1.56618C6.75 1.1623 6.75 0.960366 6.67014 0.866857C6.60084 0.78572 6.49689 0.742662 6.39052 0.751033C6.26792 0.760682 6.12513 0.903474 5.83955 1.18906Z" stroke="var(--stroke-0, #FAFAFA)" stroke-width="1.5" stroke-linecap="round" stroke-linejoin="round"/>
</svg>
