<svg preserveAspectRatio="none" width="100%" height="100%" overflow="visible" style="display: block;" viewBox="0 0 14 15" fill="none" xmlns="http://www.w3.org/2000/svg">
<path id="Icon" d="M2.75 10.4355C2.75 10.6697 2.75 10.7868 2.76045 10.8886C2.84716 11.7338 3.4584 12.4319 4.28471 12.6296C4.38423 12.6534 4.50034 12.6689 4.73246 12.6998L9.12708 13.2858C10.378 13.4525 11.0035 13.5359 11.489 13.3429C11.9152 13.1734 12.2702 12.8626 12.4945 12.4625C12.75 12.0069 12.75 11.3758 12.75 10.1138V4.09046C12.75 2.82843 12.75 2.19742 12.4945 1.74173C12.2702 1.34166 11.9152 1.03084 11.489 0.861366C11.0035 0.66834 10.378 0.751737 9.12708 0.918531L4.73246 1.50448C4.50031 1.53543 4.38423 1.55091 4.28471 1.57472C3.4584 1.77238 2.84716 2.47052 2.76044 3.3157C2.75 3.4175 2.75 3.53461 2.75 3.76881M6.75 4.43547L9.41667 7.10214M9.41667 7.10214L6.75 9.76881M9.41667 7.10214H0.75" stroke="var(--stroke-0, #FF0000)" stroke-width="1.5" stroke-linecap="round" stroke-linejoin="round"/>
</svg>
