<svg preserveAspectRatio="none" width="100%" height="100%" overflow="visible" style="display: block;" viewBox="0 0 14 14" fill="none" xmlns="http://www.w3.org/2000/svg">
<path id="Icon" d="M4.75 10.6198V2.85675C4.75 2.53572 4.75 2.37521 4.8084 2.24502C4.85988 2.13027 4.94278 2.03241 5.04751 1.96277C5.16632 1.88376 5.32465 1.85737 5.64131 1.80459L11.508 0.826815C11.9353 0.755596 12.1489 0.719986 12.3155 0.781834C12.4616 0.836107 12.5841 0.939867 12.6616 1.07508C12.75 1.22916 12.75 1.44576 12.75 1.87897V9.28648M4.75 10.6198C4.75 11.7244 3.85457 12.6198 2.75 12.6198C1.64543 12.6198 0.75 11.7244 0.75 10.6198C0.75 9.51524 1.64543 8.61981 2.75 8.61981C3.85457 8.61981 4.75 9.51524 4.75 10.6198ZM12.75 9.28648C12.75 10.391 11.8546 11.2865 10.75 11.2865C9.64543 11.2865 8.75 10.391 8.75 9.28648C8.75 8.18191 9.64543 7.28648 10.75 7.28648C11.8546 7.28648 12.75 8.18191 12.75 9.28648Z" stroke="var(--stroke-0, #F2EEFF)" stroke-width="1.5" stroke-linecap="round" stroke-linejoin="round"/>
</svg>
